<svg width="96" height="96" viewBox="0 0 96 96" fill="none" xmlns="http://www.w3.org/2000/svg">
<rect width="96" height="96" fill="#F1F1F1"/>
<path d="M65.7798 63H30V33H48.2305V39.7782H65.7764L65.7798 63ZM33.0929 35.8899V39.7782H37.5654V35.8899H33.0929ZM37.5654 46.555V42.6674H33.0929V46.555H37.5654ZM33.0929 49.445V53.3333H37.5654V49.445H33.0929ZM33.0929 60.1101H37.5654V56.2225H33.0929V60.1101ZM45.1342 35.8899H40.6617V39.7782H45.1342V35.8899ZM45.1342 46.555V42.6674H40.6617V46.555H45.1342ZM45.1342 53.3333V49.445H40.6617V53.3333H45.1342ZM40.6617 56.2232V60.1101H45.1342V56.2225L40.6617 56.2232ZM62.68 60.1101V42.6661H48.2305V46.555H52.0149V49.445H48.2305V53.3333H52.0149V56.2232H48.2305V60.1101H62.68ZM59.2397 46.555V49.445H55.4553V46.555H59.2397ZM55.4553 53.3333H59.2397V56.2232H55.4553V53.3333Z" fill="black"/>
</svg>
