<svg xmlns="http://www.w3.org/2000/svg" viewBox="0 0 132.89 53.43"><defs><style>.cls-1{fill:#e81d52;}</style></defs><g id="Layer_2" data-name="Layer 2"><g id="Calque_2" data-name="Calque 2"><path class="cls-1" d="M101.59,11.44a.09.09,0,0,0-.06.06S101.6,11.46,101.59,11.44Z" transform="translate(0 -0.23)"/><path class="cls-1" d="M124.58,17.29l-.25-.1A.77.77,0,0,0,124.58,17.29Z" transform="translate(0 -0.23)"/><path class="cls-1" d="M87.18,10.15h0l-1-.05Z" transform="translate(0 -0.23)"/><path class="cls-1" d="M102.41,47.41l.31-.07A2.5,2.5,0,0,0,102.41,47.41Z" transform="translate(0 -0.23)"/><path class="cls-1" d="M127.63,33.26a1.26,1.26,0,0,1-.18.34C127.56,33.45,127.64,33.33,127.63,33.26Z" transform="translate(0 -0.23)"/><path class="cls-1" d="M79.52,8.62l.42.09S79.78,8.63,79.52,8.62Z" transform="translate(0 -0.23)"/><path class="cls-1" d="M64.77,9.68l0,0S64.81,9.69,64.77,9.68Z" transform="translate(0 -0.23)"/><path class="cls-1" d="M70.55,9.66,71,9.59C70.78,9.61,70.56,9.62,70.55,9.66Z" transform="translate(0 -0.23)"/><path class="cls-1" d="M71.15,9.56l-.19,0C71.07,9.59,71.16,9.58,71.15,9.56Z" transform="translate(0 -0.23)"/><path class="cls-1" d="M69.61,1.47a7.13,7.13,0,0,0,1.16-.11Z" transform="translate(0 -0.23)"/><path class="cls-1" d="M56.27,49.41l.09,0C56.27,49.38,56.26,49.4,56.27,49.41Z" transform="translate(0 -0.23)"/><path class="cls-1" d="M70.14.65l.3,0A1.62,1.62,0,0,0,70.14.65Z" transform="translate(0 -0.23)"/><path class="cls-1" d="M87.37,8.49c.43-.07,1.3.07,1.3,0A4.49,4.49,0,0,0,87.37,8.49Z" transform="translate(0 -0.23)"/><path class="cls-1" d="M46.1,52.06l-.28,0Z" transform="translate(0 -0.23)"/><path class="cls-1" d="M70.14.65l-.34,0a.46.46,0,0,0,.1.05Z" transform="translate(0 -0.23)"/><path class="cls-1" d="M10.18,38.63h0l.09,0Z" transform="translate(0 -0.23)"/><path class="cls-1" d="M8.4,37l.4.31A2.27,2.27,0,0,0,8.4,37Z" transform="translate(0 -0.23)"/><path class="cls-1" d="M70.77,1.36l.66-.07A6.08,6.08,0,0,0,70.77,1.36Z" transform="translate(0 -0.23)"/><path class="cls-1" d="M11.64,17l-.19.15A1.25,1.25,0,0,0,11.64,17Z" transform="translate(0 -0.23)"/><path class="cls-1" d="M128.64,31.73l.12-.18S128.73,31.53,128.64,31.73Z" transform="translate(0 -0.23)"/><polygon class="cls-1" points="115.9 45.52 115.9 45.53 115.9 45.53 115.9 45.52"/><path class="cls-1" d="M116.79,45.19a4.26,4.26,0,0,0-.89.57A4.13,4.13,0,0,0,116.79,45.19Z" transform="translate(0 -0.23)"/><path class="cls-1" d="M113.83,46.66l.12,0Z" transform="translate(0 -0.23)"/><path class="cls-1" d="M130.53,33.7h0v0Z" transform="translate(0 -0.23)"/><path class="cls-1" d="M128,37.21a1.63,1.63,0,0,0-.23.19Z" transform="translate(0 -0.23)"/><path class="cls-1" d="M104,50.18h0Z" transform="translate(0 -0.23)"/><path class="cls-1" d="M65.22,53.65c3.91.07,9-.07,12.84-.08a24.58,24.58,0,0,1,3.3-.33l.14.25,1-.12c.43.07-.79.08,0,.15l.38-.17c.08.09,2.66-.07.93.2,1.34-.06,2.68-.15,4-.24.89-.07.5-.26,1.49-.28.21.06-.35.08-.26.17,3-.08,3.36-.81,6.11-1.06l-.23.07c.45-.14,1.34-.25,1.35-.29-.39-.21-.47.21-1.33.17,0-.22,1-.26,1-.41a7.09,7.09,0,0,0,1.55-.31c1,0,2.31-.36,3-.33a11.07,11.07,0,0,1,1.91-.7c.74,0-.13.2.84,0l.13-.16c.79-.18.67-.11.66,0a15.86,15.86,0,0,1,1.73-.54l-.55.28c.76-.26,1.08-.32,2.16-.62,0,.08-.43.2-.76.26.64,0,1-.37,1.3-.45-.1,0-.85.19-.52-.05a6.85,6.85,0,0,1,1.5-.49l-.54.3a10.61,10.61,0,0,1,1.82-.72c-.07,0,0,0,0,.08a29.85,29.85,0,0,1,3-1.14l-.2.12c.45-.22.66-.45.91-.54-.68.22-.52.1-.62,0,.93-.2,1.22-.76,2.64-1.34,0,.08-.28.32-.7.44A3.47,3.47,0,0,1,114,46.85c.52-.28,1.13-.59,1-.45l.08-.25.82-.39c.08-.18-.73.13,0-.3s.53,0,.62-.18c1.1-.63.37-.42,1.48-.94a1.9,1.9,0,0,1-.4.25c.82-.33,1.86-1.07,2.2-1a.72.72,0,0,1-.37.34v0c-.75.65.66-.45.51-.11-.12-.08,1-.69,1.43-1l-.23,0c1.3-1.4.09.31,1.57-.79.89-.78-.38.23.14-.28a10.81,10.81,0,0,0,1.83-1.31c.29-.17.85-.53,1-.45.48-.54,1.65-1.44,1.79-1.87-.93.81-.75,1-1.93,1.82l.19-.39c.36-.34.76-.73,1.13-1.1a13.44,13.44,0,0,1,.93-1c-.12.08-.19.09-.16,0a12.31,12.31,0,0,0,.95-1.3c.25-.38.5-.73.9-1.29.21-.07-.23.6-.6,1A11.73,11.73,0,0,0,130.21,34c.16,0-.53.77-.51,1,.27-.43.57-.85.8-1.31h0c-.08-.31.64-1,.95-1.9a7,7,0,0,0,.69-2.19c.06-.53.05-1,.09-1.57.11-.31.18-.41.21-.26-.18.53-.11.45-.09.65.15-.74.47-1.63.51-1.19.07-1.25-.17.43-.15-.33a12,12,0,0,0,.07-1.7c-.1.21-.12.8-.22-.07a14.26,14.26,0,0,0-.3-2c.09.12.1-.34.25.38a3.17,3.17,0,0,0-.47-1.43c.14.52,0,.12-.22-.31s-.47-.85-.38-.46a8.2,8.2,0,0,0-.42-1,2.45,2.45,0,0,1,.35.51c0-.35-.47-.72-.69-1s-.77-1.08-.79-1.16a5.31,5.31,0,0,1-.85-1c-.39-.3-.11.05-.25,0a11.34,11.34,0,0,0-1.27-1c0-.13,0-.42.24-.3-.55-.3-.33.08-1.11-.42.56.13-1-.77-.2-.54a5.93,5.93,0,0,0-1.13-.74c-.49-.25-1-.5-1.42-.65s.79.45.68.57c-2.14-.92-2.42-.56-4-1.17l.4.17a6.53,6.53,0,0,0-1.51-.28c.33-.09-1-.82-2.65-1.18-.16,0,.88.39.58.46l-1.1-.24c-.08,0,.05,0,.2,0-1-.18-1.78-.64-2.11-.5l-1-.45.37.19a14.7,14.7,0,0,1-1.5-.14,7.05,7.05,0,0,1-2.14-.46c.19.11.65.35-.24.23,0-.28-1.85-.41-1.8-.55-.36-.05-1-.23-1-.12l.08-.17c-.12.24-1.42,0-2.44-.06.28-.31-1.11-.12-1.51-.48-.22.2-1.8-.14-2,.05-.78-.08-.68-.29-.87-.38l-.37,0a26.73,26.73,0,0,0-2.7-.47l-.83.13-.29-.12c-.14,0-.81,0-.4.12l-.44,0c-.05.22-.62,0-1.5,0-.2,0-.14-.1,0-.11-.44,0-.24-.14-.47-.23.3.08-1.6.28-.43.47.07.1-.62.11-1,.05l-.24-.21-.53.18a11.54,11.54,0,0,1-1.5-.21c.56,0,1.26-.32-.18-.39a14,14,0,0,0,1.53-.1c-.29,0-.44-.05,0-.11-1.13,0-.39.1-1.5.07.07-.18-.24-.26-1.21-.36l.72.16L89,8.46c.27,0,.35.06.41.13a7.55,7.55,0,0,1-1.49.06c1.11.32-2,.14-1.25.33a2.5,2.5,0,0,1-1-.05c.94-.12-.69-.23-.54-.35-.35.05.73.15.26.21a5.71,5.71,0,0,1-1.27-.18l.23,0-.85-.1c-.15.08.83.17,0,.2-.2,0-1,0-1-.08.38-.12.11-.29.78-.31-.56,0-2.34,0-1.62.19H81c.42.08,1.59.22.25.24v0l-.93.14-.4-.1s-.14.09-.48.09c-.09-.06-.42-.07-.39-.15-1,0-.92.12-1,.17-.56,0-.77,0-.51-.12-.77,0-2.1,0-2.63,0-1,.12.21,0-.38.17-.9-.3-3.4,0-5.06.15.47.25-.46.06-.75.34.36-.11-1.6-.11-.14-.29l-.89.09c-.62-.11,1.47-.21.53-.36a27.68,27.68,0,0,1-2.82.43c.38-.23-.9.14-.62-.1a4.26,4.26,0,0,1,.9-.14l-.21,0c-2.2.13-.62.28-1.75.51-1.33.15-1.07,0-1.15-.13a5.61,5.61,0,0,0-1.23.17c.8-.2,1.52,0,1.15.13a5.64,5.64,0,0,0-2.33.31c1.93,0,1.32-.13,3.13-.06.24-.1.18-.29,1.26-.3-.66.16.06.11.25.12-.22-.09.74-.11,1.06-.18s-.62.32.47.27l.18-.29c.43,0-.16.21.74.09-.48.17.16.2-1.06.34a11.51,11.51,0,0,0,3.36-.46c-.11,0-.12.06-.24.09a4.79,4.79,0,0,1,1-.15c.75,0-.59.16-.39.22l1.21-.07,0,0a1.74,1.74,0,0,1,.74,0,7.2,7.2,0,0,0-.73.28l1.26-.25c-.13.1,1.06.11.16.22.62,0,1.25-.08,1.88-.11l.16.18c.45,0,.46-.09-.08-.09.65,0,2.86-.4,2.52,0,1.48-.16,2-.13,3.81-.21-1.38.16,1.58.22.12.29a7.2,7.2,0,0,0,1.7-.14c.63.09.35.26-.33.32l.8-.07,0,0,.7-.09c.74.11.15.18.91.23l.17-.16.52.1c-.2-.07.26-.1.81-.09v0h.67c-.67.07.61.06.3.16.58,0,.59,0,1.63,0l-.18-.12c1.36,0,0,.16,1.14.23l-.06-.13c1.56.31,2.68,0,3.84.26-.67,0-.51.14-.5.1,1,0,2.64.18,3.69.13a3.09,3.09,0,0,0,1.5.46,2.76,2.76,0,0,0,1.15,0,14.92,14.92,0,0,1,2.17.34c.19-.09.67.09,1.09.06l.08.07-.05-.14c1.29.46,2.26.12,3.56.57H106l.57,0c.08.07-.15.07-.19.14.87.14,1.73.26,2.59.42l-.49-.18a9,9,0,0,1,1.55.2c-1.07,0,.86.15,1,.32l-.57,0c.77.11.77.11.73,0,1,.13.62.36,1.55.39l-.64-.13c-.17-.1.31-.12.74,0,.09,0,.39.16.06.11.78.1,1.91.4,2.26.43s.25.19,0,.17c1.64.28.73.18,2.37.5l0,.06.58.06.74.38-.26-.17a9.35,9.35,0,0,1,1.46.42l-.27,0a8.48,8.48,0,0,1,1.53.59,11.41,11.41,0,0,0,1.46.56c.08.06-.14,0-.25,0,1.28.39.84.57,2.1,1-.09,0,0,.11,0,.11l.56.22-.11.11.52.07.22.32.24.06a2.91,2.91,0,0,0,.79.77,4.55,4.55,0,0,1,.85.9l0-.24a5.76,5.76,0,0,1,2.07,2.71,11.63,11.63,0,0,1,.64,3.62l-.14,0a8.93,8.93,0,0,1,.1,1c-.17.53-.08-.35-.18-.18-.07,1.09.19.48-.06,1.77-.28.62,0-.25,0-.57a10.12,10.12,0,0,1-.52,2,10.29,10.29,0,0,1-.8,1.68s0,.09,0,.05c-.18.38-.42.81-.68,1.24l-.86,1.22c0-.06.08-.26.2-.46-.19.28-.5.62-.64.88l.13-.35c-.24.27-.55.7-.83,1.06a2.48,2.48,0,0,1-.68.63c.1,0,.15.07-.28.53a2.82,2.82,0,0,0-.83.74,6.14,6.14,0,0,1-1.19,1.09c.06-.12.62-.6.46-.47a5,5,0,0,0-1,1l0-.15c-.57.54-1.21,1-1.82,1.53-.42,0-1.85,1.28-1.81,1-.74.44.66-.28-.25.29-.29.07-.81.55-.85.4l.09-.07c-.21.13-.42.26-.65.38l.35-.35c-.55.35-.91.69-.88.8a8.66,8.66,0,0,1-1.65.69l.2-.13c-1.54.82-2.76.87-3.93,1.6-.1,0-.1,0,.09-.1l-1,.38.2-.19c-.52.28-1.06.51-1.6.76v-.07c-1.1.37-2.84.94-4.31,1.36l.21-.1c-1.56.55-1.56.33-2.71.7a.39.39,0,0,1,.11-.06l-1.06.24.22-.12a8.17,8.17,0,0,1-1.79.3,8.73,8.73,0,0,0-1.31.5c-1.17.22-.3,0-1,0a16.33,16.33,0,0,1-2.15.39v-.07c-.54.08-.87.19-1.62.3l.22-.06c-1.22.29-1.57,0-2.5.39-.53,0-1.52.14-1.48,0-1.54.24-2.74.38-4.29.53-.26-.22-.33,0-1.27,0l.07.12c-2.18.14-4.71-.1-7.13,0l-.07-.12-.48.14-8.07-.15a17.8,17.8,0,0,1-2.8.11l.11,0a57.31,57.31,0,0,1-5.93-.18c.13,0-.07-.09.16-.11a6.34,6.34,0,0,1-1.64-.08l.51.12a4.29,4.29,0,0,1-1.72-.19l-.93.08a.35.35,0,0,1-.16-.06l-.17.05-.48-.2a11.26,11.26,0,0,0-1.84.11c-.09-.06-1-.18-.28-.15l-3.36-.34.52.11c.06.13-1,.12-1.48,0,.7,0,.08-.17-.21-.29-.46,0,.39.15.14.19a9.89,9.89,0,0,1-2.1-.14h.35c-.78,0-1.12-.29-1.88-.37s-1.2-.14-1.08.1c-1-.08-.37-.2-.69-.26a5.82,5.82,0,0,1-2-.33c-.59.25-2.65-.5-2.89-.26L38,47.36c0,.07-.22.2-.88.12s-.44-.28-.62-.38l-.46.2c-3.51-.87-8.24-1.59-11.95-2.84a41.25,41.25,0,0,1-5.72-1.65l.22,0c-.61-.26-1.23-.51-1.83-.79.43.22.86.44,1.3.64a8.41,8.41,0,0,1-1.14-.36,60.85,60.85,0,0,1-6.74-3.71,2.28,2.28,0,0,1-1.11-.84,3,3,0,0,0-1-.9,2.34,2.34,0,0,0,.3.12,22.11,22.11,0,0,1-3.14-3c.36,0-.59-.91-.36-.88l-.18-.05c-.12-.36-.46-1.14-.32-1.06a5.79,5.79,0,0,1-.41-.6l.1-.1a8,8,0,0,1-.45-1.77,5.76,5.76,0,0,1,0-.9,1.68,1.68,0,0,1,.17-.58,7.71,7.71,0,0,1,1-3.95,15.25,15.25,0,0,1,3-3.84A8.39,8.39,0,0,1,9.27,18.8l.71-.37A9,9,0,0,1,11.68,17s0,0,0,.08a20.81,20.81,0,0,0,1.8-1.31c.73-.44,1.48-.8,1.33-.54,0-.13.36-.34.77-.53s.81-.32.81-.32,2.39-1.3,6.38-3A115.81,115.81,0,0,1,38.26,6.13c3-.78,6.13-1.45,9.21-2s6.1-1,8.93-1.35c5.66-.7,10.48-1,13.21-1.27.36-.12,1.38-.19,1-.34.78,0,1.14.19,1.29.07-1.06-.1.34-.32-.7-.49l.67,0C72,.6,71,.78,71.13.62l-.2.23a3.84,3.84,0,0,1-1-.18,4.5,4.5,0,0,1-2.06.25l.34,0c-1,0-.61-.14-.82-.17h.22l-.84-.1c.63.07,1.68-.14,1.13-.11-1.18,0,.31.05-.58.09-.55,0-.4-.11-.37-.18l-1,0c0-.11.66,0,.26-.11L64.92.46C64.68.2,63.57.65,63,.42c.9-.1-.08-.09.06-.19-.74.05-1.48.06-2.21.13-.21,0,.57-.13.24-.09a2.77,2.77,0,0,0-.9.13C60,.34,58.52.52,58.56.33c-1.51,0-.61.28-2,.31C56.36.55,57.66.5,57,.45L55.58.63A1.51,1.51,0,0,1,56.39.4c-3.92.23-6.12,0-9.66.72-.52,0,.34-.16.69-.3-2.55.64-3.68.37-5.87.87v.12A68.37,68.37,0,0,0,31.42,4.23l.42-.06c-.43.25-1.17.49-1.71.72-.1,0,.32-.36-.63,0,.21,0,.63-.14.53,0-.74.18-1.67.45-2.73.78s-2.21.78-3.44,1.23c-2.43,1-5,2.07-7.33,3.14a54.57,54.57,0,0,0-9,5.63A20.46,20.46,0,0,0,.72,24.27c.19-.55.35-.65.35-.56a2.69,2.69,0,0,1-.23.82,5.35,5.35,0,0,0-.62,1.58A6.6,6.6,0,0,0,0,27.69a25.35,25.35,0,0,0,.18,3.37,16.54,16.54,0,0,0,2.67,5.62,15.32,15.32,0,0,0,4.12,4l0,.15A6.09,6.09,0,0,0,8,41.57l0,0a34.61,34.61,0,0,0,3.31,2l.11-.11c.72.38.32.3,1.1.61l0,0,.93.3c-.19.21,2.08,1,2.64,1.29l4.37,1.41a23.15,23.15,0,0,0,3.25,1.13c2.31.57,5.62,1.25,8.55,1.84l0-.18.77.13s.08.07,0,.07c.56.29,1.79.26,2.39.48-.37-.21-.54-.12-1-.2-.62-.19,0-.23.85,0l0,0h.6c0,.14.56.29.61.42,2.54.38,4.31.4,6.93.8-.29.11,1.89.19,1.33.37,1.59.09-.23-.23.51-.32.44.06.91,0,1,.14-.22,0,.34.19,0,.17l1.06.09c.1,0-.14,0-.26.05,2.17.08,3.81.53,5.75.55.16-.08-.76-.09-.61-.17,2,0,1.7.3,3.53.3l-.38.09A5.84,5.84,0,0,1,57,53c.16.16-.83.07-1.3.11.67,0,2.35.11,1.84,0a7,7,0,0,1,1.51.2s-.74-.13-.27-.17c1.08.13,2.75.22,4.07.27,0,0,.08.1,0,.11C63.88,53.32,63.76,53.65,65.22,53.65Z" transform="translate(0 -0.23)"/><path class="cls-1" d="M130.83,33.21l-.3.49s.05,0-.05.3Z" transform="translate(0 -0.23)"/><path class="cls-1" d="M110.14,48.22l-.17.1A.45.45,0,0,0,110.14,48.22Z" transform="translate(0 -0.23)"/><path class="cls-1" d="M104.23,50.24c.42-.14,0-.08-.19-.06C104,50.21,104.05,50.24,104.23,50.24Z" transform="translate(0 -0.23)"/><path class="cls-1" d="M129.91,18.66c.08.06.14.09.15.06S129.91,18.63,129.91,18.66Z" transform="translate(0 -0.23)"/><path class="cls-1" d="M91.75,8.71l.15,0Z" transform="translate(0 -0.23)"/><path class="cls-1" d="M93.92,9.09h.45A2.36,2.36,0,0,0,93.92,9.09Z" transform="translate(0 -0.23)"/><path class="cls-1" d="M132.37,28.42a2.37,2.37,0,0,0-.05.44A1.87,1.87,0,0,0,132.37,28.42Z" transform="translate(0 -0.23)"/><path class="cls-1" d="M94.82,9.1l.55.06,0,0Z" transform="translate(0 -0.23)"/><path class="cls-1" d="M91.05,8.65l.7.06A3,3,0,0,0,91.05,8.65Z" transform="translate(0 -0.23)"/><path class="cls-1" d="M116.55,12.34h0C117,12.39,116.77,12.35,116.55,12.34Z" transform="translate(0 -0.23)"/><path class="cls-1" d="M97.25,9.06h.08l.16,0Z" transform="translate(0 -0.23)"/><path class="cls-1" d="M88.67,8.47H89l-.31,0Z" transform="translate(0 -0.23)"/><path class="cls-1" d="M108.42,10.58c-.16,0-.23.05-.24.08C108.36,10.69,108.48,10.68,108.42,10.58Z" transform="translate(0 -0.23)"/></g></g></svg>