<?xml version="1.0" encoding="UTF-8"?><svg id="Layer_2" xmlns="http://www.w3.org/2000/svg" viewBox="0 0 197.93 40.71"><defs><style>.cls-1{fill:#e82153;}</style></defs><g id="Calque_1"><g id="Layer_2-2"><g id="Calque_2"><path class="cls-1" d="M48.05,3.86s.06-.02,.08-.05c-.07,.02-.09,.03-.08,.05Z"/><path class="cls-1" d="M14.55,7.31l.38-.12c-.13,.03-.26,.07-.38,.12Z"/><path class="cls-1" d="M46.35,38.03l-.45-.05,.45,.05Z"/><path class="cls-1" d="M4.79,28.49c.13,.05,.34,.16,.53,.26-.17-.11-.35-.2-.53-.26Z"/><path class="cls-1" d="M78.8,5.18l-.57-.08c.18,.07,.38,.1,.57,.08Z"/><path class="cls-1" d="M91.24,5.11h-.58c.19,.02,.38,.02,.58,0Z"/><path class="cls-1" d="M90.39,5.11h.27c-.09-.01-.18-.01-.27,0Z"/><path class="cls-1" d="M98.38,.2c-.59,0-1.09,.04-1.62,.08l1.62-.08Z"/><path class="cls-1" d="M111.26,40.58h-.13c.12,.02,.14,0,.13,0Z"/><path class="cls-1" d="M68,5.1c-.59,.05-1.8-.04-1.79,0,.6,.04,1.19,.04,1.79,0Z"/><path class="cls-1" d="M97.64,.77h.34c-.11,0-.19,0-.34,0Z"/><path class="cls-1" d="M178.81,36.12h0l-.13,.04,.13-.04Z"/><path class="cls-1" d="M182.36,35.29l-.75,.23c.25-.06,.5-.14,.75-.23Z"/><path class="cls-1" d="M96.76,.28l-.93,.05c.33,0,.63-.03,.93-.05Z"/><path class="cls-1" d="M183.46,9.94l.34,.12c-.15-.05-.28-.1-.34-.12Z"/><path class="cls-1" d="M2.45,26.83l-.25-.24c-.06-.02-.05,.01,.25,.24Z"/><path class="cls-1" d="M26.9,33.38c.45,.09,.91,.15,1.37,.17-.45-.08-.91-.14-1.37-.17Z"/><path class="cls-1" d="M9.23,28.54c.09,.05,.21,.11,.34,.17-.08-.05-.19-.1-.34-.17Z"/><path class="cls-1" d="M98.6,37.97c-5.36,.05-12.3,.07-17.61-.14-1.16,.1-2.85,.05-4.54,0l-.17-.18h-1.41c-.57-.08,1.08,0,.08-.1l-.54,.08c-.1-.07-3.61-.21-1.25-.22l-5.49-.28c-1.21-.08-.69,.1-2.06,0-.27-.07,.48,0,.38-.08-4.01-.38-4.66,.04-8.4-.32h.32c-.32,0-.78,0-1.17-.05s-.69-.04-.69,0c.47,.22,.69-.03,1.81,.16-.11,.14-1.43,0-1.37,.08-.87-.12-1.37-.08-2.15-.14-1.3-.21-3.17-.31-4.12-.52-.92,.03-1.83,0-2.74-.08-.97-.22,.24-.08-1.09-.27l-.22,.06c-1.09-.13-.92-.14-.88-.17-1.17-.14-.98,0-2.44-.21h.83c-1.09-.09-1.53-.16-3.04-.36,.37,0,.73,.03,1.09,.1-.61-.12-1.23-.18-1.85-.19,.12,.05,1.17,.2,.64,.22-.72-.04-1.43-.13-2.13-.26h.83c-.88-.04-1.76-.13-2.63-.28,.1,0,.05,0,.09-.03-1.15-.05-2.61-.36-4.27-.63h.32c-.69-.08-1.06-.06-1.42-.12,.94,.2,.69,.19,.75,.28-1.23-.34-1.95-.14-3.98-.59,.37-.03,.74,.02,1.1,.14,.69-.08,1.4-.08,2.09,0-.51-.02-1.01-.1-1.5-.25l-.27,.09-1.19-.21c-.21,.05,.93,.31-.17,.17-1.23-.18-.62-.25-.83-.23-.78-.06-1.56-.18-2.33-.34,.16,0,.48,.06,.62,.1-1.15-.27-2.85-.54-3.16-.78,.23-.03,.46,0,.69,.06h0c1.3,.15-1.06-.19-.64-.25-.77-.08-1.52-.23-2.26-.45l.21,.15c-2.49-.28,.17-.15-2.22-.69-1.52-.32,.56,.18-.38,0-1.02-.28-1.37-.46-2.87-.84-.44-.13-.87-.33-1.26-.58-.91-.23-2.66-.92-3.19-1,1.46,.62,1.52,.42,3.25,1.11l-.53-.05c-1.23-.38-2.8-.88-3.61-1.24,.16,.08,.23,.14,.11,.12-1.33-.38-2.63-.89-3.86-1.52-.15-.19,.73,.32,1.43,.62-.98-.58-1.09-.49-2.54-1.43,0-.12,.99,.61,1.21,.62-.56-.29-1.11-.62-1.63-.97h0c-.72-.4-1.34-.96-1.8-1.65-.28-.39-.48-.84-.58-1.32-.14-.43-.22-.78-.3-1.08-.17-.6-.28-1.23-.33-1.85,.05-.4,.11-.52,.13-.35-.1,.69,0,.55,0,.78-.02-.43,.02-.85,.12-1.27,.1-.3,.17-.43,.16-.19,.19-1.37-.16,.49-.06-.37,.05-.32,.16-.62,.23-.94,.1-.31,.23-.61,.36-.91-.09,.11-.17,.23-.24,.36-.04,.06-.06,0,.14-.5,.32-.75,.77-1.45,1.32-2.06-.08,.14,.32-.21-.23,.45l.63-.69c.18-.19,.36-.39,.51-.6-.47,.42-.13,0,.28-.35s.88-.77,.47-.53c.35-.25,.69-.47,1.08-.69-.25,.16-.25,.22-.61,.45,.46-.25,.89-.55,1.28-.89,.5-.29,1.02-.55,1.55-.77,.46-.27,.96-.48,1.47-.63,.56-.27,0-.09,.16-.19,.64-.26,1.3-.51,1.95-.74,.13,0,.35,.13,.06,.25,.73-.32,.21-.27,1.37-.64-.62,.32,1.54-.37,.63,.06,.69-.12,2.56-.63,3.61-.9,.62-.25-1.15,.22-1.1,.11,2.94-.73,3.09-1.02,5.3-1.37l-.58,.08c1.37-.3,1.21-.25,2.01-.47-.36,.19,1.62,.07,3.9-.23,.19-.09-1.29,.05-.93-.1l1.52-.21c.11,0-.05,.04-.25,.08,1.37-.21,2.55-.12,2.93-.3l1.41,.05h-.56c.19-.08,1.71-.24,2.06-.28,.99-.14,2-.2,3-.16-.27-.03-.97-.1,.27-.21,0,.2,2.6-.09,2.57,0,.48,.01,.96-.02,1.44-.1l-.08,.13c.11-.18,1.93-.26,3.33-.34-.31,.25,1.53-.08,2.15,.12,.26-.17,2.48-.13,2.74-.27,.42-.06,.85,0,1.24,.16l.5-.07c.54,.06,2.56,.05,3.76,.09l1.12-.14,.42,.06c.18-.04,1.1-.07,.53-.12h.6c.05-.15,.84-.04,2.06-.11,.28,0,.21,.06-.05,.08,.6,0,.34,.08,.69,.14-.43-.04,2.17-.27,.55-.34,.47-.1,.95-.13,1.43-.08l.36,.14,.69-.14c.93,0,1.32,.08,2.06,.1-.77,0-1.71,.25,.27,.27-1.04,0-1.56,.08-2.1,.1,.41,0,.62,0,0,.08,1.55,0,.51-.08,2.06-.08-.08,.12,.34,.16,1.69,.23l-1-.1c.06-.01,.13-.01,.19,0-.19,.01-.39-.02-.57-.09,.68-.05,1.37-.07,2.06-.05-1.54-.22,2.7-.1,1.71-.23,.46-.04,.92-.02,1.37,.04-1.29,.07,.97,.16,.75,.25,.48,0-1.01-.12-.36-.15,.59,.01,1.17,.06,1.76,.15h-.32l1.18,.08c.2-.05-1.14-.13-.05-.14,.28,0,1.37,0,1.37,.08-.52,.07-.15,.19-1.08,.19,.77,0,3.22,.06,2.23-.08h.92c-.57-.06-2.18-.2-.34-.17h0l1.28-.06,.56,.08s.19-.05,.69,0c.12,.04,.57,.07,.53,.12,1.37,0,1.27,0,1.45-.06,.78,0,1.06,.05,.69,.12,1.06,.05,2.89,.1,3.61,.19,1.42,0-.29-.04,.54-.1,1.21,.27,4.66,.26,6.97,.34-.62-.21,.63,0,1.06-.15-.5,.04,2.18,.24,.16,.21h1.23c.84,.14-2.06,0-.78,.19,1.37,.05,2.3-.11,3.92,0-.55,.11,1.26,0,.84,.14s-.79,0-1.25,0l.28,.03c3.02,.18,.88-.12,2.47-.14,1.85,.08,1.45,.18,1.56,.25,.28,.03,1.21,.06,1.7,.05-1.13,0-2.06-.19-1.56-.24,1.08,.15,2.16,.18,3.24,.11-2.63-.29-1.82-.1-4.29-.39-.58,.14-1.18,.15-1.77,.05,.93,0-.06-.08-.32-.12,.28,.1-1.04,0-1.49,0s.9-.14-.6-.24l-.29,.17c-.59-.05,.25-.12-1-.14,.69-.07-.2-.16,1.5-.11-1.56-.14-3.12-.16-4.68-.05h-1.08c-1.04-.09,.83-.05,.56-.11l-1.68-.07h-.05c-.34,.02-.68,0-1.02-.04,.5-.04,.69-.1,1.04-.13l-1.77,.05c.19-.05-1.45-.16-.2-.16l-2.61-.07-.21-.14c-.63,0-.64,0,.1,.07-.89-.06-3.97,.08-3.49-.15-2.06,0-2.79,0-5.28-.04,1.91-.06-2.18-.21-.16-.21-.79-.03-1.58-.01-2.37,.04-.88-.08-.48-.19,.47-.21h-1.11l-.97,.05c-1.02-.09-.22-.13-1.28-.17l-.23,.1-.69-.08c.27,.05-.36,.06-1.12,.05h-.93c.93-.05-.85-.03-.43-.11h-2.26l.25,.08c-1.88,.04-.08-.12-1.6-.14l.09,.09c-2.19-.18-3.72,.05-5.34-.05,.93,0,.69-.12,.69-.09-1.37,0-3.67,0-5.12,.12-.7-.16-1.42-.23-2.14-.2-.53-.03-1.07,.01-1.59,.12-1.05,0-3.01,.08-3.07,0-.24,.08-.94,0-1.52,.08h-.12l.1,.08c-1.87-.14-3.13,.21-5.01,.12h.32l-.79,.07c-.12-.03,.19-.07,.23-.12l-3.66,.19h.73c-.77,.05-1.28,.16-2.17,.17,1.45-.23-1.21,.08-1.46,0l.78-.09c-1.07,.08-1.07,.09-.97,.16-1.37,.14-.97-.09-2.24,.12l.91-.08c.27,0-.38,.15-.99,.21-.14,0-.58,0-.12-.05-1.09,.13-2.74,.25-3.21,.34-.6,.04-.41-.04-.09-.1-2.33,.35-1.06,.1-3.4,.47v-.05l-.8,.18-1.16,.06h.43c-.77,.13-1.24,.23-2.13,.36l.34-.14c-2.14,.42-2.51,.32-4.53,.86-.14,0,.17-.08,.33-.12-1.86,.55-1.45,.19-3.31,.83,.1-.05-.11,0-.04-.07l-.84,.29,.03-.12c-.22,.12-.44,.23-.69,.35l-.56,.08-.32,.15c-1.17,.29-2.32,.67-3.43,1.13h.26c-1.67,.83-3.28,1.79-4.8,2.87-.84,.64-1.59,1.37-2.26,2.18-.67,.84-1.19,1.8-1.52,2.83l-.07-.1c-.08,.29-.15,.58-.2,.87-.06,.29-.1,.58-.12,.88-.23,.92,0-.58-.09-.29-.09,.45-.11,.91-.06,1.37,0,.23,0,.51,.11,1.58s-.15-.36-.16-.9c.05,1.14,.23,2.27,.55,3.37,.17,.6,.46,1.17,.83,1.67,.28,.37,.59,.72,.92,1.04,0,0,.11,.06,.06,0,1.11,.97,2.34,1.79,3.66,2.46-.24-.06-.47-.16-.69-.28,.48,.28,.97,.52,1.49,.72l-.52-.15c.97,.51,2.94,1.19,3.13,1.37-.11-.08-.03-.12,.84,.19,.44,.32,2.41,.76,3.81,1.24-.18,0-1.22-.32-.93-.23,.66,.22,1.33,.39,2.01,.5h-.21c1.12,.27,2.24,.55,3.36,.79,.46,.28,3.17,.69,2.92,.76,1.2,.27-.99-.28,.53,0,.39,.14,1.37,.26,1.3,.34h-.16l1.06,.23-.69-.04c.54,.14,1.11,.18,1.67,.14,.86,.23,2.11,.4,2.48,.57l-.33-.04c2.46,.4,4.01,.97,5.97,1.1,.14,0,.12,.05-.19,0l1.52,.23h-.37l2.52,.25-.03,.05c1.65,.25,4.26,.56,6.4,.8h-.32c2.35,.2,2.25,.31,3.96,.44h-.19l1.54,.16h-.34c1.15,0,3.24,.46,2.55,.3,.64,0,1.76,.06,1.96,0,1.68,.14,.4,.1,1.44,.23,1.21,.11,1.44,.04,3.08,.23l-.03,.04,2.33,.13h-.32c1.76,0,2.18,.31,3.57,.19,.69,.03,1.38,.11,2.06,.24l6.06,.21c.34,.18,.47,0,1.78,.17l-.1-.09c3.07,.13,6.58,.49,9.97,.55l.12,.12,.69-.08c3.61,.15,8.33,.28,11.24,.28,.95-.04,2.4-.13,3.91-.1h-.16c2.63-.05,5.4-.08,8.28-.04-.18,0,.1,.06-.21,.08,.77-.05,1.53-.05,2.3,0l-.73-.06c.8-.06,1.61-.04,2.41,.05l1.29-.1c.08,0,.16,0,.23,0h.25l.69,.1c.32,0,2.06-.06,2.56-.18,.12,.04,1.33,.06,.4,.09h3.98c.68-.14,1.37-.18,2.06-.13-.96,.08-.08,.13,.33,.19,.64-.05-.56-.07-.22-.12,.81-.06,2.51-.12,2.94-.08l-.48,.04c1.09-.05,1.6,.1,2.67,.07,.97-.08,1.69-.03,1.48-.18,1.37-.06,.54,.09,.99,.1,.95-.08,1.91-.08,2.87,0,.76-.23,3.77,0,4.05-.21h1.13s.26-.16,1.19-.21c.32-.02,.64,.03,.94,.16l.58-.21c5.07,0,11.74-.43,17.29-.69,2.47-.24,5.58-.6,8.46-.93l-.32,.06c.96-.09,1.91-.19,2.87-.3-.69,.06-1.37,.13-2.09,.18,.62-.09,1.1-.19,1.71-.27,3.77-.35,7.5-.98,11.18-1.87,2.42-.83,1.7-.2,4.02-1.03-.2,.08-.27,.12-.44,.2,2.16-.65,4.26-1.5,6.27-2.54-.19,.33,1.58-.75,1.41-.57l.16-.19,1.09-.54c.36-.19,.62-.37,.55-.28l.95-.78h.14c.32-.25,.69-.6,1.16-.97,.47-.37,.84-.88,1.26-1.31s.73-.96,1.04-1.37,.47-.77,.62-.94,.25-.46,.34-.73l.25-.85c.22-.63,.33-1.29,.35-1.95,.03-1.49-.41-2.95-1.26-4.18-.8-1.18-1.8-2.21-2.94-3.07-1.03-.79-2.13-1.5-3.27-2.13-.64-.27-1.91-.91-2.93-1.37-.34-.19-.69-.38-1.04-.56-1.05-.41-2.2-.69-3.16-1.1h.12c-1.02-.38-2.05-.7-3.11-.97-1.18-.37-2.31-.75-1.93-.73-.16,.12-2.51-.69-2.51-.69l-.69-.18c-.45-.12-1.12-.29-1.97-.5-1.71-.42-4.17-.98-7.18-1.58-6.03-1.2-14.27-2.46-23.03-3.35-8.76-.9-18.02-1.49-26.06-1.74-8.05-.25-14.81-.18-18.63,0-.51,.08-1.93,.14-1.37,.24-1.1,0-1.6-.12-1.81-.04,1.49,.06-.47,.22,.99,.34h-.93c-.19,.06,1.27-.06,1.04,.05l.26-.16c.48,0,.96,.04,1.44,.12,.95-.17,1.91-.23,2.87-.16h-.47c1.37,0,.85,.11,1.14,.14h-.3l1.17,.09c-.88-.06-2.34,.05-1.58,.05,1.65,.07-.43-.04,.81-.05,.77,0,.56,.09,.52,.14h1.37c-.05,.08-.91,0-.36,.07l1.74-.05c.32,.19,1.9-.05,2.69,.14-1.26,0,.11,.07-.09,.12l3.06,.07c.29,.03-.81,.03-.34,.04,.42,.03,.84,.03,1.26,0,.26,.06,2.28,.08,2.19,.2,2.06,.16,.88-.13,2.81,0,.25,.09-1.54-.05-.69,.07l2.01,.05c-.38,.08-.76,.1-1.15,.06,5.41,.34,8.31,.91,13.26,1.14,.69,.14-.51,0-1.01,.05,3.59,.13,5.02,.56,8.07,.82l.05-.07c4.22,.6,9.33,.99,14.08,1.71l-.56-.12c.69,0,1.72,.14,2.51,.22,.12,.05-.59,.08,.8,.23-.28-.06-.86-.17-.69-.19,4.06,.73,12.68,2.06,19.21,3.72,4.55,1.01,9.01,2.4,13.32,4.16,2.12,.9,4.14,2.02,6.02,3.35,1.77,1.27,3.29,2.87,3.61,4.57-.12-.51-.14-.69-.08-.61,.14,.23,.23,.5,.25,.78,0,.52-.06,1.05-.19,1.56-.07,.25-.17,.51-.25,.77-.07,.26-.16,.51-.28,.75l-.35,.73c-.14,.24-.3,.47-.47,.69-.35,.5-.77,.95-1.23,1.34-1.74,1.61-3.78,2.87-5.99,3.72-2.18,.9-4.42,1.57-6.71,2.3l-.11-.06c-.69,.14-.88,.24-1.61,.43h0l-2.74,.6c-.83,.16-1.63,.27-2.13,.38l-.05,.11c-1.05,.2-.56,0-1.63,.26v-.05l-1.26,.27c.1-.17-2.99,.42-3.85,.45-1.37,.21-3.97,.58-6.08,.74-.4-.04-2.97,.17-4.62,.26-3.16,.29-7.74,.61-11.82,.74l.08,.11-1.07,.05s-.13,0,0-.05c-.84-.1-2.46,.15-3.33,.1,.46,.05,.92,.05,1.37,0,.88,0,.05,.16-1.14,.15h0l-.8,.09c-.1-.09-.83-.1-.93-.19-3.48,.08-5.86,.29-9.49,.29,.37-.1-2.61,.08-1.89-.11-2.18,.1,.36,.13-.63,.27-.46,.03-.92,.03-1.37,0,.29-.05-.49-.1,0-.12l-1.46,.03c-.14,0,.19-.03,.34-.05-2.96,.14-5.26-.05-7.93,.07-.19,.07,1.06,0,.86,.08-2.67,.14-2.37-.09-4.87,0l.52-.09c-.83,.1-1.66,.12-2.49,.08-.23-.1,1.12-.09,1.77-.14-.91,0-3.22,0-2.52,.12-.69,.01-1.37-.01-2.06-.08,0,0,1.02,.06,.38,.11-1.49-.05-3.79-.04-5.6-.05,0,0-.11-.07,.05-.08-1.47,.17-1.32-.05-3.33-.05Z"/><path class="cls-1" d="M3.82,25.62c.17,.15,.34,.29,.53,.42,0,0,.05,0,.33,.14-.3-.17-.58-.35-.86-.56Z"/><path class="cls-1" d="M36.67,34.82h.27c-.09-.01-.18-.01-.27,0Z"/><path class="cls-1" d="M45.07,35.69c-.6-.04-.07,.05,.22,.1,.02-.02,0-.05-.22-.1Z"/><path class="cls-1" d="M8.46,11.16c-.1,.06-.16,.1-.14,.12,.14-.09,.16-.12,.14-.12Z"/><path class="cls-1" d="M58.95,4.85h-.62c.21,.01,.41,.01,.62,0Z"/><path class="cls-1" d="M1.5,20.61c0,.18,.01,.36,.05,.53-.04-.32-.03-.43-.05-.53Z"/><path class="cls-1" d="M62.92,5.04h-.95c.32,.02,.64,.02,.95,0Z"/><path class="cls-1" d="M27.57,6.25h-.08c-.58,.13-.22,.06,.08,0Z"/><path class="cls-1" d="M66.24,5.12h.05s-.05,0-.05,0Z"/><path class="cls-1" d="M38.92,5.44c.1-.01,.2-.04,.29-.1-.25,.01-.41,.03-.29,.1Z"/></g></g></g></svg>