<svg xmlns="http://www.w3.org/2000/svg" viewBox="0 0 142.33 55.82"><defs><style>.cls-1{fill:#e81d52;}</style></defs><g id="Layer_2" data-name="Layer 2"><g id="Calque_2" data-name="Calque 2"><path class="cls-1" d="M110.46,47.18a.12.12,0,0,0,0,.08S110.47,47.2,110.46,47.18Z"/><path class="cls-1" d="M134.39,37.64l-.22.22C134.33,37.73,134.38,37.67,134.39,37.64Z"/><path class="cls-1" d="M95.21,49h0l-1.08.07Z"/><path class="cls-1" d="M109.64,3.63l.34.06A2,2,0,0,0,109.64,3.63Z"/><path class="cls-1" d="M139.62,16.73a3.19,3.19,0,0,1-.35-.32A1.13,1.13,0,0,0,139.62,16.73Z"/><path class="cls-1" d="M87.09,48l.44.08S87.36,48,87.09,48Z"/><path class="cls-1" d="M71.64,47.92l0,0S71.68,47.93,71.64,47.92Z"/><path class="cls-1" d="M77.66,48.63l.44,0C77.92,48.6,77.68,48.59,77.66,48.63Z"/><path class="cls-1" d="M78.31,48.59l-.21,0C78.22,48.61,78.31,48.61,78.31,48.59Z"/><path class="cls-1" d="M71.75,55.56A8.17,8.17,0,0,0,73,55.45Z"/><path class="cls-1" d="M60.2.41l.09,0C60.2.39,60.19.4,60.2.41Z"/><path class="cls-1" d="M72.32,54.74l.31,0Z"/><path class="cls-1" d="M95.23,47.36c.43-.13,1.35-.08,1.34-.17A4.86,4.86,0,0,0,95.23,47.36Z"/><path class="cls-1" d="M50.05,4.63l-.29,0Z"/><path class="cls-1" d="M72.32,54.74l-.37,0,.11,0Z"/><path class="cls-1" d="M9.72,11.64h0l.08-.07Z"/><path class="cls-1" d="M7.25,13.14c.15-.14.31-.25.48-.39A2.09,2.09,0,0,0,7.25,13.14Z"/><path class="cls-1" d="M73,55.45l.7-.07C73.44,55.39,73.21,55.42,73,55.45Z"/><path class="cls-1" d="M8.42,40.53l-.23-.18Z"/><path class="cls-1" d="M140.92,18.62l.12.24S141.08,18.85,140.92,18.62Z"/><polygon class="cls-1" points="122.53 9.9 122.52 9.9 122.52 9.9 122.53 9.9"/><path class="cls-1" d="M123.57,10.14a3.6,3.6,0,0,0-1-.24A4.19,4.19,0,0,0,123.57,10.14Z"/><path class="cls-1" d="M120.36,9.15l.12,0Z"/><path class="cls-1" d="M138.28,19.36h0Z"/><path class="cls-1" d="M135.54,16.55l-.19-.21A1.12,1.12,0,0,0,135.54,16.55Z"/><path class="cls-1" d="M110,6.83h0Z"/><path class="cls-1" d="M69.89,4c4-.09,9.29-.17,13.29.1a20.17,20.17,0,0,1,3.44,0l.11.26H87.8c.43.1-.82,0-.06.14l.41-.13c.08.08,2.72.28.93.31,1.37.12,2.75.22,4.12.37.91.1.55-.15,1.55,0,.2.1-.37,0-.29.11,3,.53,3.54-.1,6.33.41h-.24c.48,0,1.39.13,1.41.1-.33-.31-.53.06-1.36-.2.1-.21,1.08,0,1.05-.14a8.78,8.78,0,0,0,1.62.19c1,.28,2.37.43,3.07.73a8.75,8.75,0,0,1,2.08.08c.69.31-.21.13.78.39l.18-.1c.81.18.68.19.63.24a13.23,13.23,0,0,1,1.83.3h-.63a18.91,18.91,0,0,1,2.25.49c0,.06-.49,0-.81-.15.56.32,1,.17,1.37.27-.08-.08-.84-.29-.44-.32a7.26,7.26,0,0,1,1.58.36l-.63,0a7.4,7.4,0,0,1,2,.38c-.08,0,0,0-.09.05a16,16,0,0,1,3.14.87l-.25,0c.51.11.81.08,1.07.16-.67-.27-.47-.25-.5-.38.86.46,1.47.2,2.93.8a1.24,1.24,0,0,1-.82-.18,3.8,3.8,0,0,1-1.63,0c.58.13,1.25.31,1.08.35l.24-.13.86.29c.19-.07-.62-.42.2-.24s.4.36.57.32c1.24.36.57,0,1.72.46a3.09,3.09,0,0,1-.46-.13c.81.38,2,.75,2.21,1.06a.67.67,0,0,1-.5-.08l0,0c-1-.19.78.25.41.34,0-.14,1.12.38,1.62.62l-.1-.2c1.87.37-.21.21,1.47.94,1.09.41-.38-.23.31,0s.87.63,1.92,1.11c.24.2.75.61.71.77.64.28,1.68,1.19,2.09,1.28-.89-.76-1-.54-2.08-1.42l.41.06a17.2,17.2,0,0,1,2.31,1.59c-.09-.1-.11-.17,0-.15.55.38.91.62,1.24.88a5.22,5.22,0,0,1,1.08,1c0,.23-.45-.37-.88-.72.27.32.4.49.59.68a5.24,5.24,0,0,1,.78.93c0,.06-.15-.11-.29-.3s-.33-.37-.43-.38a8.74,8.74,0,0,1,.89,1h0c.3,0,.57.86.92,1.56l.25.58c0,.18.1.33.15.48a5.49,5.49,0,0,1,.24.72l.2.61a6.18,6.18,0,0,1,.11.74c-.08.31-.14.39-.18.26.12-.5,0-.41,0-.59a3.65,3.65,0,0,1-.15,1c-.09.23-.2.32-.21.13-.12,1.07.18-.37.13.29a10.21,10.21,0,0,1-.3,1.46c.16-.14.32-.65.19.12a7.91,7.91,0,0,1-.58,1.75c0-.14-.26.19,0-.41a6.28,6.28,0,0,0-.47,1.23c.53-.8-.63,1.43-.15.89-.17.27-.4.51-.59.77a2.86,2.86,0,0,1,.27-.5c-.29.14-.39.68-.56,1a6.08,6.08,0,0,1-.86,1,2.94,2.94,0,0,1-.39.53,1.6,1.6,0,0,1-.43.33c-.28.36.06.1,0,.24-.36.37-.7.76-1.1,1.1-.12,0-.39-.11-.24-.29-.37.46,0,.34-.62.94.27-.46-1,.65-.56,0a22.26,22.26,0,0,0-2.22,1.6c-.33.4.74-.44.79-.29-.9.68-1.32,1.12-1.73,1.47a5.66,5.66,0,0,1-1.48,1.06l.4-.17a8,8,0,0,0-1.26.91c.08-.15-.23-.11-.76.06a13.09,13.09,0,0,0-2,.85c-.09.15.94-.27.75,0-.34.18-.68.36-1,.51-.09,0,0-.06.14-.14-.92.47-1.84.56-2,.85l-1.08.13.43,0a13.63,13.63,0,0,1-1.38.69,7,7,0,0,1-2.17.64c.21,0,.75,0-.12.32-.08-.26-1.91.46-1.92.31-.37.11-1,.22-1,.34V44.1c0,.26-1.35.59-2.36.9.16-.38-1.12.29-1.64.08-.14.27-1.8.5-2,.72-.8.16-.76-.07-1-.1l-.36.15c-.42,0-1.92.23-2.82.28l-.8.34-.32,0c-.13.08-.82.2-.38.22l-.45,0c0,.23-.63.14-1.52.36-.22,0-.17-.07,0-.13-.46.06-.28-.08-.53-.12.33,0-1.58.6-.35.55.09.08-.61.23-1.06.23l-.3-.17-.51.27a14.64,14.64,0,0,1-1.58,0c.58-.08,1.25-.52-.24-.37A11.59,11.59,0,0,0,99,47c-.31,0-.47,0,0-.11-1.15.18-.37.16-1.52.31,0-.19-.28-.22-1.29-.21l.76.08-.14.06c.29,0,.37,0,.44.08a6.92,6.92,0,0,1-1.53.23c1.19.19-2,.37-1.26.49a2.26,2.26,0,0,1-1,0c1-.18-.74-.17-.59-.3-.36.07.77.1.29.19a6,6,0,0,1-1.33-.09l.23-.05-.89,0c-.14.1.87.11,0,.2a7.53,7.53,0,0,1-1,0c.39-.14.1-.29.8-.36-.58.06-2.43.11-1.68.26l-.69,0c.43.06,1.66.17.27.23v0l-1,.16-.42-.08s-.14.09-.5.1c-.1,0-.44-.07-.41-.14-1,0-1,.1-1.09.15-.59,0-.81,0-.54-.13a22.72,22.72,0,0,1-2.73-.1c-1.07.06.22,0-.41.15-.92-.32-3.53-.19-5.28-.24.47.29-.47,0-.81.25.38-.07-1.64-.29-.11-.3l-.93,0c-.63-.18,1.54,0,.59-.28a24.07,24.07,0,0,1-3,0c.42-.17-.95,0-.63-.19a4.9,4.9,0,0,1,.94,0l-.21-.06c-2.28-.2-.68.2-1.88.24-1.4-.09-1.09-.24-1.16-.34a6.25,6.25,0,0,0-1.29-.07c.86,0,1.56.26,1.16.35a6.34,6.34,0,0,0-2.45-.14c2,.4,1.38.13,3.23.54.26-.06.23-.25,1.35-.09-.72.06,0,.12.23.16-.21-.13.79,0,1.13,0s-.69.22.45.34l.23-.26c.44.07-.2.19.75.18-.52.11.14.23-1.15.19a10.78,10.78,0,0,0,3.56,0c-.12,0-.14,0-.26.06a7.23,7.23,0,0,1,1.08,0c.78.1-.63.1-.43.18l1.28,0s0,0,0,0a1.91,1.91,0,0,1,.77,0c-.38.07-.54.15-.79.21l1.34-.14c-.15.09,1.11.17.15.22h2l.16.19c.48,0,.49-.06-.08-.09.68.07,3-.3,2.66,0,1.56-.15,2.12-.08,4-.23-1.45.21,1.67.17.13.29a9,9,0,0,0,1.8-.2c.66,0,.38.25-.34.33l.84-.11v0l.73-.14c.78.05.17.17,1,.15l.16-.17.55.07c-.2-.06.27-.12.85-.16v0l.71-.08c-.69.15.65,0,.34.13.6,0,.62-.05,1.71-.16l-.2-.09c1.42-.21.07.16,1.23.07l-.08-.12c1.68,0,2.81-.39,4-.42-.7.12-.51.24-.5.2a32.82,32.82,0,0,0,3.85-.7,3.51,3.51,0,0,0,1.66.07,2.66,2.66,0,0,0,1.18-.35,18.71,18.71,0,0,1,2.31-.34c.16-.14.71-.13,1.12-.32l.1,0-.09-.11c1.45,0,2.3-.69,3.74-.82l-.23.1.57-.2c.11,0-.12.12-.13.2.91-.21,1.8-.5,2.71-.75l-.56.06a15.08,15.08,0,0,1,1.57-.54c-1,.54.89-.29,1.11-.21l-.56.24c.78-.28.78-.28.67-.38,1-.38.78,0,1.66-.48l-.66.24c-.22,0,.22-.27.66-.43.11,0,.44-.09.11,0,.77-.33,2-.75,2.29-.95s.33,0,.12.12c1.61-.82.77-.28,2.35-1.17V42l.52-.36a8.57,8.57,0,0,0,.86-.27l-.32.07c.52-.3.82-.52,1.45-.82l-.2.23c.73-.42,1.16-.66,1.59-.88a6.7,6.7,0,0,0,1.46-1c.1,0-.09.13-.18.22,1.11-1,1.06-.47,2.11-1.59-.05.08.11,0,.08.07l.5-.49.05.15c.1-.18.2-.34.29-.52l.42-.18.15-.24a3.84,3.84,0,0,0,1.06-.78,7.94,7.94,0,0,1,1.11-1h-.26c.38-.54.74-1.13,1.2-1.7s.87-1.21,1.26-1.89A12.45,12.45,0,0,0,142,26.48l.13.08,0-1.35c.22-.69.06.45.16.23a2.56,2.56,0,0,0,0-1.05,5.38,5.38,0,0,1-.07-1.22c0-.92.15.33.14.71,0-.2,0-.4,0-.62s-.06-.47-.08-.72a7.84,7.84,0,0,0-.3-1.44,12.93,12.93,0,0,0-.91-2.24s-.09-.06-.06,0A17.66,17.66,0,0,0,138.8,16c.07,0,.27.18.47.38a4.08,4.08,0,0,0-.94-.92l.4.2a15.22,15.22,0,0,0-1.21-1.07,3.21,3.21,0,0,1-.81-.74c0,.12-.05.15-.64-.27a3.17,3.17,0,0,0-1-.77,13.48,13.48,0,0,1-1.6-.95c.15,0,.88.46.68.33a5.22,5.22,0,0,0-1.45-.7h.18c-.81-.4-1.62-.78-2.44-1.11-.26-.4-2.31-1-2.07-1.07-.87-.39.69.4-.42-.05-.26-.22-1-.36-.92-.48l.12,0-.78-.29.54.06a2.43,2.43,0,0,0-1.3-.21,17.7,17.7,0,0,1-1.79-.78l.25,0c-1.82-.57-2.89-1.36-4.4-1.55-.11,0-.08-.08.14,0l-1.13-.34.3,0L117,5.4l0-.06c-1.24-.36-3.2-.8-4.82-1.12l.25,0c-1.79-.27-1.69-.44-3-.61h.14l-1.16-.23.27,0A14.08,14.08,0,0,1,106.83,3a9.93,9.93,0,0,0-1.52,0c-1.27-.21-.3-.15-1.08-.33s-1.1,0-2.34-.31l0-.07c-.59-.07-1-.07-1.78-.17h.25c-1.35,0-1.64-.44-2.72-.25-.55-.12-1.62-.2-1.55-.34L91.5,1.2c-.25-.26-.36,0-1.35-.24l.07.14c-2.34-.19-5-.67-7.6-.75L82.56.22,82,.33C79.25.16,75.65,0,73.43,0a26,26,0,0,1-3,.17l.12,0c-2,.08-4.13.17-6.32.15.13-.06-.09-.09.16-.13a7.5,7.5,0,0,1-1.76.06l.56.08a5,5,0,0,1-1.84,0l-1,.18A.44.44,0,0,1,60.2.41L60,.49,59.5.35a11.51,11.51,0,0,0-2,.33c-.1-.05-1,0-.31-.11l-3.6.18.57,0c.08.12-1,.29-1.56.27.72-.16.05-.18-.27-.25-.49.1.43.08.18.17a14.12,14.12,0,0,1-2.23.25l.36-.08c-.83.12-1.24-.06-2.06,0s-1.28.13-1.1.33c-1.06.17-.43-.1-.78-.08a7,7,0,0,1-2.18.17c-.55.39-2.88.25-3.07.55l-.89,0c0,.07-.17.26-.87.39s-.54-.12-.75-.17l-.4.34a112.46,112.46,0,0,0-13.08,2.4c-1.83.57-4.1,1.37-6.23,2.11l.23-.12c-.71.22-1.42.45-2.13.71.52-.16,1-.32,1.57-.46-.45.19-.79.37-1.23.55a32.81,32.81,0,0,0-8,3.77,4.63,4.63,0,0,1-1.39.92A3.1,3.1,0,0,0,7,13.46c.11-.13.13-.2.23-.32a22.9,22.9,0,0,0-2,1.85,11.35,11.35,0,0,0-.84.95,14.5,14.5,0,0,0-.88,1.18c-.08-.39-.86,1.12-.86.88v.22c-.32.37-1,1.34-.94,1.17l-.29.95-.16,0a8.58,8.58,0,0,0-.44,1.14,9.9,9.9,0,0,0-.39,1.4l-.16.68-.1.61A3.73,3.73,0,0,1,0,25a16.55,16.55,0,0,0,.9,5.84A19.53,19.53,0,0,0,4,36.41c.46.33,1.17,1.23,1.83,1.79l.57.76c.67.59,1.54,1,2.1,1.6,0,0,0,0-.1,0A15.38,15.38,0,0,0,10.54,42c.81.52,1.56,1.1,1.23,1.06.11-.09.53.21.94.48s.8.59.8.59a56.44,56.44,0,0,0,7,3.45,98.78,98.78,0,0,0,17.14,5.23A137.18,137.18,0,0,0,57.5,55.54a92,92,0,0,0,14.25,0c.39-.12,1.48-.19,1.06-.34.84,0,1.22.19,1.38.06-1.13-.09.35-.32-.75-.48l.71,0c.14-.08-1,.1-.8-.06l-.2.23a3.86,3.86,0,0,1-1.09-.18,4.52,4.52,0,0,1-2.19.24h.36c-1,0-.64-.16-.86-.21h.23l-.88-.14c.67.09,1.78-.06,1.2-.07-1.25-.1.33.07-.62.07-.58,0-.41-.12-.38-.19l-1,0c0-.1.69,0,.27-.09l-1.32.07c-.24-.29-1.45.06-2-.23,1,0-.08-.09.08-.17-.78,0-1.55-.06-2.32-.12-.22,0,.61,0,.26,0a3.77,3.77,0,0,0-1,0c-.2-.09-1.73-.11-1.65-.29-1.56-.25-.68.18-2.14,0-.18-.13,1.17.07.53-.1l-1.52-.09a1.54,1.54,0,0,1,.87-.08c-4.08-.52-6.21-1.35-9.93-1.75-.5-.21.39,0,.77-.06-2.71-.22-3.72-.87-6-1.26l-.06.1c-3.1-.9-6.9-1.54-10.35-2.63l.39.19c-.5,0-1.28-.23-1.87-.35-.07-.07.48-.09-.54-.35.2.1.61.26.47.28-2.9-1.11-9.15-3.09-13.53-5.55a33.9,33.9,0,0,1-8.48-5.72,15.46,15.46,0,0,1-4.86-8c.06.44.06.58,0,.53a1,1,0,0,1-.2-.65c0-1,0-1.74,0-2.55,0-.4,0-.81.09-1.24A5.11,5.11,0,0,1,4.23,23a10.21,10.21,0,0,1,2.5-4.21,38.86,38.86,0,0,1,3.76-3.41l.13.07c.45-.25.53-.39,1-.69v0c.56-.33,1.17-.71,1.75-1A9.2,9.2,0,0,1,14.8,13l0-.15a8.48,8.48,0,0,0,1.11-.51v.08l.81-.51c0,.25,2.07-.85,2.71-1A38,38,0,0,1,23.7,9.38c.32,0,2.16-.52,3.38-.76a80.76,80.76,0,0,1,8.68-1.95l-.08-.15.79-.16s.1,0,0,.08c.64.08,1.81-.37,2.47-.36-.42-.08-.56.07-1,.14-.66,0-.07-.22.82-.29V6l.59-.19c.08.12.64.1.73.21,2.61-.42,4.37-.87,7.09-1.1-.26.16,2-.25,1.43.06,1.63-.25-.29-.18.45-.42.45,0,.93-.15,1-.07-.21.08.38.11,0,.17l1.1-.12c.1,0-.14.07-.26.09,2.22-.33,4-.15,6-.42.15-.09-.79,0-.65-.07,2-.31,1.79,0,3.67-.17l-.39.14a5.66,5.66,0,0,1,1.87-.17c.18.13-.84.15-1.32.24.69,0,2.42-.13,1.89-.24A6.34,6.34,0,0,1,63.49,4s-.77-.07-.29-.16c1.12,0,2.85,0,4.23,0,0,0,.08.09,0,.11C68.49,3.71,68.38,4.05,69.89,4Z"/><path class="cls-1" d="M138.54,19.77a3.1,3.1,0,0,0-.26-.41s-.07,0-.23-.14A6.23,6.23,0,0,1,138.54,19.77Z"/><path class="cls-1" d="M116.4,8.16h-.2C116.33,8.18,116.38,8.17,116.4,8.16Z"/><path class="cls-1" d="M110.16,7c.45.06.06-.06-.15-.14C110,6.85,110,6.89,110.16,7Z"/><path class="cls-1" d="M136.68,32.34c0-.08.07-.13,0-.14S136.66,32.35,136.68,32.34Z"/><path class="cls-1" d="M99.76,47h0Z"/><path class="cls-1" d="M102.05,46.92l.45-.08A2.67,2.67,0,0,0,102.05,46.92Z"/><path class="cls-1" d="M140,23.71a1.31,1.31,0,0,0,0-.4A1.8,1.8,0,0,0,140,23.71Z"/><path class="cls-1" d="M103,46.75l.57-.06s0,0,0,0Z"/><path class="cls-1" d="M99,47l.72,0A3.08,3.08,0,0,0,99,47Z"/><path class="cls-1" d="M124.9,41.05l.06,0C125.34,40.79,125.1,40.93,124.9,41.05Z"/><path class="cls-1" d="M105.41,46.14h.08l.16-.06Z"/><path class="cls-1" d="M96.57,47.19l.28,0h-.33S96.57,47.17,96.57,47.19Z"/><path class="cls-1" d="M116.8,43.77c-.14.1-.19.15-.18.18C116.8,43.89,116.91,43.84,116.8,43.77Z"/></g></g></svg>