<svg xmlns="http://www.w3.org/2000/svg" viewBox="0 0 288.75 59.33"><defs><style>.cls-1{fill:#e81d52;}</style></defs><g id="Layer_2" data-name="Layer 2"><g id="Calque_2" data-name="Calque 2"><path class="cls-1" d="M218.51,53.72a.22.22,0,0,0-.12.07C218.49,53.76,218.52,53.74,218.51,53.72Z"/><path class="cls-1" d="M267.36,48.7l-.55.18A3.11,3.11,0,0,0,267.36,48.7Z"/><path class="cls-1" d="M189.14,53.58h.07l-2.06,0Z"/><path class="cls-1" d="M221,3.91l.65.07Z"/><path class="cls-1" d="M281.59,17.81c-.19-.07-.49-.23-.78-.38A3.37,3.37,0,0,0,281.59,17.81Z"/><path class="cls-1" d="M173.68,51.8l.83.12A2,2,0,0,0,173.68,51.8Z"/><path class="cls-1" d="M143.94,51l.08,0Z"/><path class="cls-1" d="M155.54,51.91h.84A5.38,5.38,0,0,0,155.54,51.91Z"/><path class="cls-1" d="M156.78,51.9h-.4A1.75,1.75,0,0,0,156.78,51.9Z"/><path class="cls-1" d="M145.14,59.06c.86,0,1.59-.06,2.36-.12Z"/><path class="cls-1" d="M126.36.19l.19,0C126.37.16,126.34.18,126.36.19Z"/><path class="cls-1" d="M146.21,58.23l.61,0Z"/><path class="cls-1" d="M189.43,51.92c.86-.08,2.62.06,2.61,0A17.72,17.72,0,0,0,189.43,51.92Z"/><path class="cls-1" d="M106.41,3.91h0Z"/><path class="cls-1" d="M146.21,58.23l-.7,0,.21,0C145.88,58.24,146,58.24,146.21,58.23Z"/><path class="cls-1" d="M27.88,6.7h0l.19-.06Z"/><path class="cls-1" d="M22.7,7.9l1.09-.34A8.79,8.79,0,0,0,22.7,7.9Z"/><path class="cls-1" d="M147.5,58.94l1.35-.07C148.37,58.88,147.93,58.91,147.5,58.94Z"/><path class="cls-1" d="M21.09,44.86l-.5-.17C20.81,44.77,21,44.83,21.09,44.86Z"/><path class="cls-1" d="M285,20.24l.36.35C285.45,20.62,285.44,20.57,285,20.24Z"/><polygon class="cls-1" points="247.3 10.44 247.29 10.44 247.29 10.44 247.3 10.44"/><path class="cls-1" d="M249.35,10.69a13.73,13.73,0,0,0-2-.25A18,18,0,0,0,249.35,10.69Z"/><path class="cls-1" d="M242.93,9.65l.24,0Z"/><path class="cls-1" d="M282.19,21.35s0,0,0,0h0Z"/><path class="cls-1" d="M275.11,17.74c-.13-.08-.31-.16-.5-.25C274.73,17.56,274.89,17.64,275.11,17.74Z"/><path class="cls-1" d="M222.54,7.17h0Z"/><path class="cls-1" d="M144.81,4c7.82-.07,17.94-.1,25.68.2,1.69-.14,4.15-.07,6.62,0l.25.26h2.06c.83.12-1.58,0-.11.14l.79-.12c.15.1,5.27.3,1.82.32l8,.41c1.77.11,1-.15,3,0,.4.1-.7,0-.55.11,5.85.55,6.8-.06,12.25.47h-.46c.46,0,1.14,0,1.7.07s1,.06,1,0c-.68-.32-1,.05-2.64-.23.16-.2,2.08,0,2-.12,1.27.18,2,.12,3.14.2,1.89.3,4.62.45,6,.76a36.22,36.22,0,0,1,4,.11c1.41.32-.35.12,1.59.4l.32-.09c1.59.19,1.34.2,1.28.25,1.7.2,1.43,0,3.56.31H224.9c1.59.13,2.23.23,4.43.52a8.35,8.35,0,0,1-1.59-.15,14.46,14.46,0,0,0,2.7.27c-.18-.08-1.7-.29-.94-.32a25.17,25.17,0,0,1,3.11.38l-1.21,0a29.54,29.54,0,0,1,3.83.41c-.14,0-.07,0-.13.05,1.67.07,3.8.53,6.22.92l-.46,0c1,.11,1.54.09,2.07.18-1.37-.29-1-.27-1.1-.41,1.8.5,2.84.21,5.8.86a4.12,4.12,0,0,1-1.6-.2,12.63,12.63,0,0,1-3.05,0,8.22,8.22,0,0,1,2.18.37l.39-.13,1.74.31c.31-.07-1.35-.45.25-.25,1.8.26.91.37,1.21.33a25.26,25.26,0,0,1,3.4.5c-.24,0-.7-.09-.9-.14,1.67.39,4.16.79,4.6,1.13a2.49,2.49,0,0,1-1-.09l0,0c-1.89-.22,1.55.28.93.37a17.55,17.55,0,0,1,3.3.65l-.3-.22c3.63.41-.25.22,3.24,1,2.22.46-.82-.26.55,0,1.48.41,2,.67,4.18,1.22a7,7,0,0,1,1.83.85c1.32.33,3.88,1.34,4.65,1.46-2.13-.9-2.22-.61-4.74-1.62l.78.07c1.79.56,4.08,1.28,5.26,1.81-.24-.12-.33-.2-.16-.17A31.91,31.91,0,0,1,280,19.63c.22.28-1.07-.46-2.08-.9,1.43.84,1.59.72,3.71,2.08,0,.17-1.44-.89-1.77-.91a24.5,24.5,0,0,1,2.38,1.42l0,0a7.75,7.75,0,0,1,2.63,2.4,5.18,5.18,0,0,1,.85,1.92c.2.62.32,1.13.44,1.58a13.59,13.59,0,0,1,.48,2.7c-.08.59-.16.76-.19.51.15-1,0-.8,0-1.14a6.78,6.78,0,0,1-.18,1.85c-.14.44-.25.63-.23.27-.28,2,.23-.72.09.54-.07.47-.23.91-.34,1.37a12.53,12.53,0,0,1-.53,1.32,2.63,2.63,0,0,0,.35-.52c.06-.09.09,0-.21.73a11,11,0,0,1-1.92,3c.11-.21-.46.3.34-.65l-.92,1a9.46,9.46,0,0,0-.75.88c.68-.61.19,0-.41.51s-1.29,1.12-.68.77c-.51.36-1,.69-1.58,1,.36-.24.36-.32.89-.66A11.62,11.62,0,0,0,278.5,42a16.91,16.91,0,0,1-2.26,1.12,9.57,9.57,0,0,1-2.15.92c-.81.39,0,.13-.24.28-.94.38-1.89.75-2.85,1.08-.19,0-.51-.19-.09-.37-1.06.46-.3.4-2,.93.91-.46-2.25.54-.92-.09-1,.18-3.73.92-5.26,1.31-.91.36,1.68-.32,1.61-.16-4.29,1.06-4.5,1.48-7.73,2l.84-.11c-2,.44-1.77.37-2.93.69.53-.27-2.36-.1-5.68.34-.28.13,1.88-.07,1.36.14l-2.22.31c-.16,0,.08-.06.36-.11-2,.3-3.72.18-4.27.44l-2.05-.07.81,0c-.27.11-2.5.35-3,.41a24.54,24.54,0,0,1-4.38.24c.4.05,1.41.14-.39.3,0-.29-3.79.13-3.74,0a11.13,11.13,0,0,0-2.1.15l.11-.19c-.16.26-2.81.38-4.85.5.45-.36-2.23.11-3.14-.18-.38.25-3.61.19-4,.39a3.28,3.28,0,0,1-1.81-.24l-.73.1c-.79-.09-3.73-.07-5.48-.13l-1.63.21-.61-.09c-.26.06-1.61.1-.77.17h-.88c-.07.22-1.23.06-3,.16-.41,0-.3-.09.08-.12-.88,0-.5-.12-1-.2.62.06-3.17.39-.8.5a6.49,6.49,0,0,1-2.08.11l-.53-.2-1,.2c-1.35,0-1.93-.12-3-.15,1.12,0,2.49-.36-.4-.39,1.52,0,2.27-.11,3.06-.15-.6,0-.9,0,0-.11-2.26,0-.75.12-3,.11.12-.17-.5-.24-2.46-.33l1.46.15a.88.88,0,0,1-.28,0,1.89,1.89,0,0,1,.83.13,27.17,27.17,0,0,1-3,.07c2.25.32-3.94.15-2.5.34a9.16,9.16,0,0,1-2-.06c1.88-.1-1.41-.24-1.1-.36-.7,0,1.47.17.53.22a19.17,19.17,0,0,1-2.56-.22l.47,0-1.72-.12c-.29.08,1.66.19.07.2-.41,0-2,0-2-.11.76-.1.22-.28,1.57-.28-1.12,0-4.69-.09-3.25.12l-1.34,0c.83.09,3.18.29.49.25l0,0-1.87.09-.82-.12s-.27.08-1,0c-.18-.06-.83-.1-.78-.17-2,0-1.85,0-2.11.09-1.13,0-1.55-.08-1-.17-1.54-.07-4.22-.14-5.27-.28-2.07,0,.42.06-.79.14-1.77-.39-6.8-.38-10.16-.49.9.31-.92,0-1.55.22.73-.06-3.18-.35-.23-.3l-1.8,0c-1.22-.21,3,0,1.13-.27-2-.08-3.35.16-5.71,0,.8-.16-1.83,0-1.23-.2s1.15,0,1.82,0l-.41-.05c-4.41-.26-1.29.17-3.6.2-2.69-.11-2.12-.26-2.27-.36-.41-.05-1.77-.09-2.48-.07,1.65,0,3,.27,2.27.35a23.63,23.63,0,0,0-4.73-.16c3.83.42,2.66.15,6.26.57a6.29,6.29,0,0,1,2.58-.07c-1.36,0,.09.12.47.17-.41-.14,1.51,0,2.17,0s-1.31.21.88.35l.42-.25c.86.08-.37.18,1.46.2-1,.1.29.23-2.19.16a44,44,0,0,0,6.83.08c-.23,0-.26,0-.49,0,.49,0,1.38,0,2.06,0,1.51.13-1.21.07-.82.16l2.45.1.07,0a7.23,7.23,0,0,1,1.48.06c-.73.06-1,.14-1.52.19l2.58-.08c-.28.07,2.12.23.29.23l3.81.1.31.2c.92,0,.94,0-.15-.1,1.3.09,5.79-.11,5.09.22,3,0,4.07,0,7.7.06-2.79.09,3.18.3.23.3a33.89,33.89,0,0,0,3.45-.06c1.28.11.7.28-.68.31l1.62,0,0,0,1.41-.07c1.49.13.32.19,1.86.25l.34-.15,1,.11c-.39-.08.52-.09,1.64-.08l0,0h1.36c-1.35.07,1.24.05.62.16,1.17,0,1.19,0,3.3,0l-.37-.12c2.74-.06.11.17,2.33.2l-.13-.13c3.19.26,5.42-.07,7.78.08-1.35,0-1,.17-1,.13,2,0,5.35,0,7.46-.17a11.76,11.76,0,0,0,3.12.29,9.52,9.52,0,0,0,2.32-.17c1.53,0,4.39-.12,4.47,0,.35-.11,1.37,0,2.21-.12l.18,0-.14-.12c2.72.21,4.56-.3,7.3-.18l-.47,0,1.15-.1c.18.05-.28.1-.33.18l5.34-.27-1.06,0c1.12-.08,1.87-.24,3.16-.25-2.12.34,1.77-.12,2.13,0l-1.14.13c1.56-.12,1.56-.13,1.42-.24,2-.21,1.41.13,3.27-.17l-1.33.11c-.4,0,.55-.22,1.44-.3.21,0,.84,0,.17.08,1.59-.19,4-.37,4.68-.5.87-.06.6.06.13.15,3.4-.51,1.55-.14,4.95-.69l0,.08,1.16-.26,1.69-.09h-.62c1.12-.19,1.81-.34,3.11-.53l-.5.2c3.12-.61,3.66-.47,6.6-1.26.21,0-.25.11-.48.18,2.71-.8,2.12-.28,4.82-1.21-.15.08.16,0,.06.1l1.22-.43-.05.17c.32-.17.64-.33,1-.51l.81-.11.46-.22a35,35,0,0,0,5-1.65l-.38,0a51.3,51.3,0,0,0,7-4.18,19.34,19.34,0,0,0,3.29-3.18,13,13,0,0,0,2.21-4.13l.1.15a10.64,10.64,0,0,0,.29-1.27,9.17,9.17,0,0,0,.18-1.28c.33-1.34,0,.84.13.43a7,7,0,0,0,.09-2c0-.34,0-.75-.16-2.3s.22.53.23,1.31a20.93,20.93,0,0,0-.8-4.91,7.58,7.58,0,0,0-1.21-2.43,13.11,13.11,0,0,0-1.34-1.52s-.16-.09-.09,0A26.57,26.57,0,0,0,279.8,17a3.94,3.94,0,0,1,1,.41,15.85,15.85,0,0,0-2.17-1.05l.76.22c-1.42-.74-4.29-1.74-4.57-2,.16.12.05.18-1.22-.28-.64-.47-3.52-1.11-5.56-1.81.26,0,1.78.47,1.36.33a19.58,19.58,0,0,0-2.93-.73h.31c-1.63-.4-3.26-.8-4.9-1.15-.67-.41-4.62-1-4.25-1.11-1.75-.4,1.45.41-.77,0-.57-.21-2-.38-1.89-.5l.24,0L253.67,9l1,.06a7.47,7.47,0,0,0-2.43-.2c-1.25-.33-3.07-.59-3.62-.83l.48.06c-3.58-.59-5.85-1.41-8.71-1.61-.2,0-.17-.08.27,0l-2.21-.34.54,0-3.68-.36.05-.07c-2.41-.37-6.21-.82-9.33-1.17l.47,0c-3.42-.29-3.28-.45-5.78-.64H221l-2.25-.23.5,0c-1.67,0-4.73-.67-3.72-.44-.94,0-2.57-.09-2.86,0-2.45-.21-.59-.14-2.1-.34-1.77-.16-2.1-.06-4.49-.33l.05-.06-3.39-.19h.47c-2.57,0-3.18-.45-5.2-.27a20.38,20.38,0,0,1-3-.35l-8.84-.31c-.49-.26-.68,0-2.59-.25l.14.13c-4.48-.19-9.6-.71-14.54-.8L169,.29l-1,.12C162.73.19,155.85,0,151.61,0c-1.39.06-3.5.19-5.7.15l.23,0c-3.84.07-7.88.12-12.07.06.26,0-.15-.09.31-.12a26.79,26.79,0,0,1-3.35,0l1.06.09A18.31,18.31,0,0,1,128.58.1L126.7.24a1.65,1.65,0,0,1-.34,0L126,.26,125,.1c-.47,0-3,.09-3.73.26-.18-.06-1.94-.09-.58-.13h-6.87l1.07,0a11.2,11.2,0,0,1-3,.19c1.4-.12.12-.19-.48-.27-.94.08.81.1.32.18-1.18.09-3.66.17-4.28.12l.7-.06c-1.59.07-2.33-.14-3.9-.1-1.41.12-2.46.05-2.16.26-2,.09-.79-.13-1.45-.14a25.39,25.39,0,0,1-4.18,0c-1.11.34-5.5,0-5.91.3L88.9.69c-.05.08-.38.25-1.74.32A2.88,2.88,0,0,1,85.79.78l-.85.3c-7.39,0-17.11.62-25.21,1-3.6.35-8.13.87-12.34,1.35l.46-.09c-1.4.13-2.79.27-4.19.44,1-.09,2-.19,3.05-.26-.91.13-1.61.27-2.49.39a114.17,114.17,0,0,0-16.3,2.73c-3.53,1.21-2.48.29-5.86,1.5.29-.11.39-.18.64-.29a52.59,52.59,0,0,0-9.14,3.71c.27-.48-2.31,1.1-2.05.83l-.23.27-1.59.79c-.52.28-.9.54-.8.41L7.51,15h-.2c-.47.36-1,.87-1.69,1.41S4.4,17.7,3.78,18.32s-1.06,1.4-1.51,2-.68,1.12-.9,1.37S1,22.36.88,22.76L.51,24A9.47,9.47,0,0,0,0,26.85a10.45,10.45,0,0,0,1.83,6.09,19,19,0,0,0,4.28,4.47,37.1,37.1,0,0,0,4.77,3.1c.93.39,2.79,1.32,4.27,2,.5.28,1,.55,1.51.81,1.53.6,3.21,1,4.6,1.61,0,0-.08,0-.18,0a43.35,43.35,0,0,0,4.53,1.41c1.72.54,3.37,1.09,2.81,1.07.23-.18,3.66,1,3.66,1l1,.26c.66.18,1.63.42,2.87.73,2.49.61,6.08,1.43,10.47,2.3,8.79,1.75,20.81,3.58,33.58,4.89s26.27,2.17,38,2.53,21.59.26,27.16,0c.75-.12,2.82-.2,2-.35,1.6,0,2.33.18,2.64.06-2.17-.09.68-.32-1.45-.49l1.36,0c.28-.09-1.85.09-1.52-.07l-.38.24a14.15,14.15,0,0,1-2.1-.17,16.68,16.68,0,0,1-4.18.23h.69c-2,0-1.24-.16-1.66-.2H141l-1.7-.13c1.29.09,3.41-.07,2.3-.07-2.41-.1.62.06-1.18.07-1.12,0-.81-.13-.76-.2l-2,0c.07-.11,1.33,0,.52-.1l-2.53.08c-.47-.28-2.77.07-3.92-.21,1.83,0-.16-.1.13-.18l-4.46-.1c-.42-.05,1.18-.05.5-.06a12,12,0,0,0-1.84,0c-.38-.09-3.33-.11-3.2-.29-3-.23-1.28.19-4.09,0-.37-.13,2.24.07,1-.1l-2.93-.08a5.29,5.29,0,0,1,1.67-.09c-7.89-.49-12.12-1.32-19.33-1.66-1-.21.74,0,1.47-.08-5.24-.19-7.32-.82-11.76-1.19l-.08.1c-6.15-.88-13.6-1.45-20.53-2.5l.82.18c-1,0-2.51-.21-3.66-.32-.17-.07.86-.11-1.16-.34.41.09,1.25.25,1,.27-5.92-1.07-18.48-3-28-5.43a120.4,120.4,0,0,1-19.42-6.06A46.65,46.65,0,0,1,9.08,35c-2.58-1.85-4.79-4.18-5.27-6.67.17.75.21,1,.11.89a2.46,2.46,0,0,1-.36-1.13,9.61,9.61,0,0,1,.27-2.27c.1-.37.25-.75.36-1.12a5.31,5.31,0,0,1,.41-1.09l.51-1.07a9,9,0,0,1,.68-1,10.16,10.16,0,0,1,1.8-1.95,27.09,27.09,0,0,1,8.74-5.42c3.18-1.31,6.45-2.29,9.79-3.36l.16.09c1-.2,1.29-.35,2.35-.63l0,0,4-.87C33.84,9.17,35,9,35.73,8.85l.07-.16c1.53-.29.81,0,2.37-.38l0,.08L40,8c-.14.25,4.36-.61,5.62-.65,2-.3,5.79-.85,8.86-1.08.58.06,4.33-.25,6.73-.38C65.81,5.47,72.49,5,78.45,4.81l-.12-.16,1.56-.08s.19,0,0,.08c1.22.14,3.59-.22,4.85-.14a8.87,8.87,0,0,0-2,0c-1.28,0-.07-.24,1.66-.22l0,0,1.17-.13c.14.13,1.21.15,1.35.27C92,4.32,95.47,4,100.76,4c-.54.15,3.81-.11,2.75.16,3.18-.15-.53-.19.92-.39a14,14,0,0,1,2,0c-.42.07.72.14,0,.18l2.13-.05c.2,0-.27.05-.5.07,4.32-.2,7.67.07,11.56-.1.28-.1-1.55,0-1.26-.11,3.9-.21,3.45.13,7.1,0l-.76.13a21.18,21.18,0,0,1,3.63-.11c.34.15-1.64.13-2.58.2,1.33,0,4.7,0,3.67-.18a25.69,25.69,0,0,1,3,.11s-1.49-.09-.56-.16c2.17.08,5.52.06,8.17.07,0,0,.16.1-.07.11C142.11,3.68,141.89,4,144.81,4Z"/><path class="cls-1" d="M283,22a9.38,9.38,0,0,0-.77-.61s-.07,0-.48-.2A13.38,13.38,0,0,1,283,22Z"/><path class="cls-1" d="M235.1,8.59l-.39,0A1.46,1.46,0,0,0,235.1,8.59Z"/><path class="cls-1" d="M222.86,7.32c.87.06.1-.07-.32-.15C222.51,7.2,222.53,7.24,222.86,7.32Z"/><path class="cls-1" d="M276.24,43.09c.15-.09.24-.15.2-.17C276.24,43.05,276.2,43.09,276.24,43.09Z"/><path class="cls-1" d="M198.22,52l.32,0Z"/><path class="cls-1" d="M202.62,52.28l.9,0A7.92,7.92,0,0,0,202.62,52.28Z"/><path class="cls-1" d="M286.38,29.31a3.14,3.14,0,0,0-.08-.77C286.36,29,286.35,29.17,286.38,29.31Z"/><path class="cls-1" d="M204.43,52.22l1.11,0,0,0Z"/><path class="cls-1" d="M196.83,52l1.39,0A11.26,11.26,0,0,0,196.83,52Z"/><path class="cls-1" d="M248.38,50.24l.12,0C249.35,50.05,248.82,50.15,248.38,50.24Z"/><path class="cls-1" d="M209.28,52h.15l.32,0Z"/><path class="cls-1" d="M192,51.89l.55,0-.62,0C192,51.86,192,51.88,192,51.89Z"/><path class="cls-1" d="M231.83,51.42a1.14,1.14,0,0,0-.43.14C231.77,51.54,232,51.51,231.83,51.42Z"/></g></g></svg>