<svg xmlns="http://www.w3.org/2000/svg" viewBox="0 0 33.1 45.3"><defs><style>.cls-1{fill:#e81d52;}</style></defs><g id="Layer_2" data-name="Layer 2"><g id="Calque_3" data-name="Calque 3"><path class="cls-1" d="M4.46,44.21v0Z" transform="translate(-0.02 -0.02)"/><path class="cls-1" d="M7.07,44.65l0,0S7.07,44.66,7.07,44.65Z" transform="translate(-0.02 -0.02)"/><path class="cls-1" d="M2.9,44v0H2.8Z" transform="translate(-0.02 -0.02)"/><path class="cls-1" d="M12.64,45.1h0Z" transform="translate(-0.02 -0.02)"/><path class="cls-1" d="M9.34,44.8l0,0S9.34,44.76,9.34,44.8Z" transform="translate(-0.02 -0.02)"/><path class="cls-1" d="M2.09,42.6l.05.09A.09.09,0,0,0,2.09,42.6Z" transform="translate(-0.02 -0.02)"/><path class="cls-1" d="M.51,43v0A0,0,0,0,0,.51,43Z" transform="translate(-0.02 -0.02)"/><path class="cls-1" d="M1.12,43.35l0,0S1.12,43.31,1.12,43.35Z" transform="translate(-0.02 -0.02)"/><path class="cls-1" d="M1.19,43.29l0,0A0,0,0,0,0,1.19,43.29Z" transform="translate(-0.02 -0.02)"/><path class="cls-1" d="M32.9,43.6c.05,0,.08-.08.12-.14Z" transform="translate(-0.02 -0.02)"/><path class="cls-1" d="M17.69,45.06v0S17.7,45.07,17.69,45.06Z" transform="translate(-0.02 -0.02)"/><path class="cls-1" d="M32.86,42.77h0Z" transform="translate(-0.02 -0.02)"/><path class="cls-1" d="M2.93,42.35c0-.09.14,0,.14-.07S3,42.23,2.93,42.35Z" transform="translate(-0.02 -0.02)"/><path class="cls-1" d="M18.66,41.51h0Z" transform="translate(-0.02 -0.02)"/><path class="cls-1" d="M32.86,42.77l0,0,0,0S32.85,42.77,32.86,42.77Z" transform="translate(-0.02 -0.02)"/><polygon class="cls-1" points="22.94 44.9 22.94 44.9 22.93 44.92 22.94 44.9"/><path class="cls-1" d="M23.25,45.06l-.06,0A0,0,0,0,0,23.25,45.06Z" transform="translate(-0.02 -0.02)"/><path class="cls-1" d="M33,43.46l.06-.08A.1.1,0,0,0,33,43.46Z" transform="translate(-0.02 -0.02)"/><path class="cls-1" d="M26.26,44.76h0Z" transform="translate(-0.02 -0.02)"/><path class="cls-1" d="M9.13,44.75l0,0S9.1,44.76,9.13,44.75Z" transform="translate(-0.02 -0.02)"/><polygon class="cls-1" points="11.16 42.23 11.16 42.23 11.16 42.23 11.16 42.23"/><path class="cls-1" d="M11.07,42.37s.09,0,.11-.12S11.11,42.27,11.07,42.37Z" transform="translate(-0.02 -0.02)"/><path class="cls-1" d="M11.42,42.3h0Z" transform="translate(-0.02 -0.02)"/><polygon class="cls-1" points="9.18 42.11 9.18 42.12 9.18 42.11 9.18 42.11"/><path class="cls-1" d="M9.64,42.11l0,0Z" transform="translate(-0.02 -0.02)"/><polygon class="cls-1" points="12.49 42.01 12.49 42.01 12.49 42.01 12.49 42.01"/><path class="cls-1" d="M16.62,41.27a6.34,6.34,0,0,1-1.35.22c-.09.19-.22.2-.35.24l0-.25-.1.08c-.05-.07.08-.05,0-.14l0,.16c0-.09-.28-.06-.1-.24h-.43c-.09,0-.05.21-.15.15s0-.05,0-.14c-.32-.19-.36.5-.65.39l0,0c0,.07-.14.06-.14.1,0,.26.05-.14.14,0s-.11.12-.1.28c-.07-.07-.11,0-.17.06s-.24,0-.32-.2c-.05.07-.1.28-.21.29-.08-.17,0-.16-.09-.22v.12c-.09,0-.07,0-.07-.11s-.08.17-.19.09l.06-.12c-.08,0-.12,0-.24,0s0-.07.09-.05c-.07-.18-.11.08-.14.06s.09.08.05.21c-.06,0-.12.17-.17,0l.07-.12c-.13.1-.07.16-.21.11,0,0,0,0,0-.07-.09.16-.21,0-.34,0l0,0c0,.05-.08.16-.11.15s.05.11.06.23c-.1-.21-.15.24-.31.12,0-.07,0-.16.09-.08.05-.22.05-.4.15-.5-.06,0-.13.08-.12,0v.2h-.1c0,.13.08.21,0,.29s-.05-.2-.06-.11-.06.21-.19.14c0,0,0,0,.05,0s-.22,0-.25-.2c0-.05,0-.12,0-.1v0c.1-.17-.09,0-.06-.17,0,.13-.12.1-.17.08v.15c-.19.44,0-.29-.18-.23s.05,0,0,.14-.11-.16-.23-.09a.62.62,0,0,1-.11-.3c-.07.07-.22-.07-.26.09.13.13.12-.18.27,0l0,.16c-.1,0-.23.07-.3,0a.14.14,0,0,1,0,.11c-.14.06-.18.22-.32.17s.06-.12.12-.13c-.09-.12-.09,0-.23-.06s.09,0,.11-.12l-.16,0v0c0,.21-.12,0-.21,0s-.26.29-.38.46a.18.18,0,0,1,0-.17c.05.1,0,0,.06,0s-.16-.21-.12-.3c-.12.06,0,.11,0,.18H8.32c0,.11.08.13,0,.21s-.11,0-.21,0,0-.16.05-.16-.12,0-.15.06-.17.1-.09.27l-.1-.1s0-.07.06-.05c0-.17-.09.05-.12.06s-.13-.05-.14-.11-.11,0-.13-.07,0,.1,0,.16l-.16,0a1.59,1.59,0,0,1,0-.38c-.06.09,0,.27-.11.26,0-.17-.13-.13,0-.35S6.94,42,6.86,42s.09.08.08.23c-.23,0-.25.45-.42.38l0,0c-.11.08-.1.06-.16.18,0-.17-.12-.48-.3-.44,0,.09.1.17.07.31l-.12,0a.07.07,0,0,1,0-.07c-.11.06-.2-.23-.23,0l-.11-.27,0,.12c0,.09-.14.11-.16.15s-.17,0-.24-.1c0,.08.08.24,0,.27,0-.29-.2-.11-.2-.26s-.1-.09-.11,0v-.18c0,.26-.15.24-.26.29,0-.35-.12,0-.17-.29,0,.23-.19.09-.21.29-.08,0-.07-.21-.09-.28l0,.08c0-.11-.2-.13-.29-.2l-.09.2,0-.09c0,.05-.09.08,0,.16h0c0,.22-.07.06-.16.15a.13.13,0,0,1,0-.12s0-.12,0-.19-.17.4-.05.5-.06.16-.11.12l0-.2L3.34,43c-.07,0-.1-.1-.16-.13s.14-.38,0-.38c.08,0,.12-.14.17-.18s-.05,0,0-.11c-.12.06,0,.12-.16.15,0-.18,0-.24-.13-.31l.08.14s0,0,0,0,0,.05,0,.11S3,42.6,3,42.49c.11.28-.21.21-.14.38s-.1.06-.11,0-.07-.2-.05-.33c0,.05.08.14,0,.2s-.11-.1-.14-.15l0,0-.09-.08c0,.09.08.15,0,.2s-.11,0-.11-.06,0-.29.09-.32-.25,0-.17.2H2.26c0,.08.16.22,0,.24v0l-.1.14,0-.1c0,.05,0,.09-.05.09s0-.08,0-.15-.1.1-.12.15-.08,0-.05-.13-.22,0-.28-.1c-.11.08,0,0,0,.16-.09-.32-.36-.13-.54-.09,0,.27-.05,0-.09.28,0-.09-.16-.22,0-.29l-.09,0c-.06-.15.16-.11.06-.32-.1,0-.18.31-.3.21,0-.2-.1.06-.07-.16s.07,0,.1-.06l0,0c-.23-.06-.07.23-.2.36s-.11-.15-.11-.24-.1,0-.13,0c.08-.12.15.12.11.24-.06-.22-.21,0-.25.07.2.24.14,0,.33.27,0-.07,0-.27.14-.19-.08.1,0,.12,0,.15s.08-.05.12-.09-.08.26,0,.31l0-.27c.05,0,0,.2.08.13-.05.14,0,.22-.12.26.15.24.24-.12.37-.21s0,0,0,.07a.12.12,0,0,1,.11-.08c.08.06-.07.12-.05.19h.13v0s.07-.06.08,0-.06.18-.09.25l.14-.18c0,.08.11.15,0,.21l.21,0v.18c.05,0,.05-.06,0-.09s.32-.31.28,0c.16-.15.21-.09.41-.18-.15.17.16.22,0,.29.09.08.11-.11.18-.14a.26.26,0,0,1,0,.32l.09-.08v0l.07-.1c.08.1,0,.19.1.21l0-.16,0,.1c0-.08,0-.11.09-.12v0l.07,0c-.07.1.07,0,0,.15a.31.31,0,0,0,.18,0l0-.11c.15-.09,0,.17.12.18v-.13c.17.22.29-.11.41,0-.07,0,0,.18,0,.14s.28,0,.4-.16c0,.19.05.24.16.33s.1,0,.13-.14c.08.07.23,0,.23.1,0-.1.07,0,.12-.06v-.08c.14.29.25-.15.39.09l0,0L5,44.15c0,.05,0,.09,0,.16l.28,0,0-.1c.06,0,.1-.13.16-.06-.11.19.1,0,.12.16l-.06,0c.08,0,.08,0,.07-.14s.08.24.18.11H5.62c0-.07,0-.18.07-.17s0,.07,0,.09.21,0,.25,0,0,.13,0,.16c.18-.11.08,0,.26-.09v.08l.06-.09.09.15,0-.09c.06,0,.1-.06.17,0l0,.11c.17-.06.19.18.35,0,0,0,0,.05,0,.07.14-.17.11.19.26,0a.41.41,0,0,0,0,.11l.07-.07v.14l.06-.21,0,.15,0-.07c.07.28.17.07.27.28l0-.19c.25-.37.58.22.88,0v.15l.13-.17c.07.11,0,.12,0,.19s.06-.21.21-.25,0,.11-.06.16c.14-.07.36-.15.46-.07s0,0,0-.06.23,0,.34,0a.11.11,0,0,1-.06.09s.09.05.13,0l0,.13c.08,0,.24-.09.26.06,0-.06,0-.17.06-.16,0,.22.19-.1.31,0s-.1.07-.08.07.11,0,.16-.11v.08l.26-.12c0,.22.25,0,.24.13.09,0-.08-.1,0-.13s.1,0,.1.1v0h.08l-.05.14c.07,0,.12-.17.13-.28.07.08.16,0,.19.14l0,0c.19-.06.32.38.47.14,0,0,0,.06,0,.06h.12l0,.11.19-.16v.07a1.49,1.49,0,0,0,.5,0l0,0c.18-.12.17.07.31,0,0,0,0,0,0,0h.12l0,.07c.08-.16.25.2.2.07a.75.75,0,0,0,.15-.24c.13,0,0,.09.11.15s.11-.12.24,0v.07c.06,0,.1-.07.18-.08l0,0c.14-.16.18.21.28-.11.06.06.17,0,.16.16A2.42,2.42,0,0,1,14.5,45c0,.24,0,0,.14.12V45c.24,0,.52.28.78.23v.13l.05-.15a4.94,4.94,0,0,0,.88.1c.07-.07.18-.22.3-.18v0a.94.94,0,0,1,.64-.07c0,.05,0,.09,0,.13.05-.15.13,0,.18,0l-.06-.1c.06-.12.15,0,.19.09l.1-.14a.43.43,0,0,1,0,.05l0-.07.06.17a.46.46,0,0,0,.19-.24s.11.09,0,.13l.36,0L18.31,45c0-.13.09-.21.15-.16s0,.18,0,.28c.05-.07,0-.11,0-.19s.19-.13.23-.07l0,0c.09,0,.13.17.22.16s.13,0,.11-.23c.1,0,0,.14.08.16s.2,0,.22.07c.05-.32.3.11.31-.16l.1.15c0-.07,0-.24.08-.27s.06.21.08.28l0-.27c.4.28.92.06,1.36.28a1.79,1.79,0,0,1,.65-.17l0,0,.23.06L22,44.93c.05,0,.08-.09.13-.09a1,1,0,0,0,.88.08c.18-.32.14.27.32,0l0,.11a2,2,0,0,0,.5-.36c0,.3.13,0,.12.14v-.12c.05.07.16.09.14.18l.09-.16v.13c.12,0,.37-.11.44.14a1.83,1.83,0,0,1,1.12-.14c.05-.11.16-.12.24-.14l.1.15c.08-.06.16-.25.25-.16s0,0,0,0,.17,0,.25-.11a.18.18,0,0,1,.17.22c0-.25.2,0,.2,0a17,17,0,0,0,2.62,0c1.37-.12,2.89-.5,3.4-1.24,0-.13.13-.22.07-.37s.15.16.15,0,0-.33-.14-.47l.07,0c0-.09-.09.11-.09,0V43a.28.28,0,0,1-.13-.15c-.05.09,0,.41-.19.29l0,0c-.1,0-.08-.14-.11-.18h0l-.11-.11c.08.07.17-.13.11-.11s0,.06-.05.1-.06-.11-.06-.18l-.11,0c0-.11.07,0,0-.11l-.12.13c-.06-.27-.13.14-.22-.11.08-.07,0-.09,0-.18l-.23,0s.05-.1,0-.08-.07.08-.09.08-.18,0-.19-.16c-.17-.11,0,.24-.2.15s.11,0,0-.15l-.15.06s0-.18.07-.16c-.43-.1-.71-.65-1.07-.48-.07-.12,0-.09.06-.18-.26.2-.41-.25-.65-.22v.11c-.36-.3-.73-.07-1.11-.18l.05.07c0,.11-.12.13-.18.18s0-.23-.08-.18.08.07.07.13c-.34-.25-1-.15-1.53-.24-.7.12-1.48,0-2.17.06.11,0,.08.26,0,.2-.24-.44-.37.1-.61-.2-.4.17-.77-.21-1.13.16l0-.13c-.06,0-.07,0-.13.05v0c-.14,0-.3.1-.38,0v.14c-.08,0-.05-.11-.13,0v-.07l-.1.14c0-.25-.23,0-.3-.12s-.31.16-.47.12-.24-.12-.37-.18a3.69,3.69,0,0,1-.91.06v.16l-.08,0s0-.06,0-.07c-.07-.19-.19.06-.26-.05.05.14.06,0,.11,0s0,.24-.09.16v0l-.06.09c0-.13-.07-.19-.08-.31-.27,0-.45.26-.73.21,0-.15-.2,0-.15-.21-.16.1,0,.2,0,.38,0,0-.09.06-.1,0s-.05-.15,0-.17l-.11,0s0-.05,0-.07c-.22.15-.41-.15-.61,0,0,.09.09,0,.07.11-.2.19-.18-.15-.37,0l0-.12c-.06.08-.08.19-.19.09s.09-.12.13-.19-.24,0-.18.17-.12-.08-.17-.11.08.09,0,.16a.93.93,0,0,0-.44-.08.4.4,0,0,1,0-.11C16.77,41.55,16.78,41.22,16.62,41.27Z" transform="translate(-0.02 -0.02)"/><path class="cls-1" d="M9.14,42.1l.06,0a.15.15,0,0,1,0-.11Z" transform="translate(-0.02 -0.02)"/><path class="cls-1" d="M11.84,42.18s0,0,0,0S11.84,42.16,11.84,42.18Z" transform="translate(-0.02 -0.02)"/><path class="cls-1" d="M12.49,41.92c-.05,0,0,.07,0,.11A.23.23,0,0,0,12.49,41.92Z" transform="translate(-0.02 -0.02)"/><path class="cls-1" d="M7.62,42.49a.06.06,0,0,0,0-.06A.13.13,0,0,0,7.62,42.49Z" transform="translate(-0.02 -0.02)"/><path class="cls-1" d="M3.4,42.36l0,0Z" transform="translate(-0.02 -0.02)"/><path class="cls-1" d="M3.63,42.59a.06.06,0,0,0,.05,0S3.64,42.58,3.63,42.59Z" transform="translate(-0.02 -0.02)"/><path class="cls-1" d="M8.64,42.44a.12.12,0,0,0,0,0S8.65,42.41,8.64,42.44Z" transform="translate(-0.02 -0.02)"/><path class="cls-1" d="M3.73,42.54l.06,0v0Z" transform="translate(-0.02 -0.02)"/><path class="cls-1" d="M3.33,42.34l.07,0S3.35,42.32,3.33,42.34Z" transform="translate(-0.02 -0.02)"/><path class="cls-1" d="M6.07,42.67h0C6.12,42.61,6.09,42.63,6.07,42.67Z" transform="translate(-0.02 -0.02)"/><polygon class="cls-1" points="3.97 42.27 3.98 42.28 3.99 42.24 3.97 42.27"/><path class="cls-1" d="M3.07,42.28l0,0,0,0Z" transform="translate(-0.02 -0.02)"/><path class="cls-1" d="M5.19,42.44a.41.41,0,0,0,0,.12S5.19,42.54,5.19,42.44Z" transform="translate(-0.02 -0.02)"/><path class="cls-1" d="M15.14,4.46h0Z" transform="translate(-0.02 -0.02)"/><path class="cls-1" d="M14.7,7.07l0,0A0,0,0,0,0,14.7,7.07Z" transform="translate(-0.02 -0.02)"/><path class="cls-1" d="M15.33,2.9h0l0-.1Z" transform="translate(-0.02 -0.02)"/><path class="cls-1" d="M14.25,12.64v0S14.24,12.63,14.25,12.64Z" transform="translate(-0.02 -0.02)"/><path class="cls-1" d="M14.55,9.34a.08.08,0,0,1,0,0S14.59,9.34,14.55,9.34Z" transform="translate(-0.02 -0.02)"/><path class="cls-1" d="M16.75,2.09l-.1.05A.1.1,0,0,0,16.75,2.09Z" transform="translate(-0.02 -0.02)"/><path class="cls-1" d="M16.39.51h0S16.38.51,16.39.51Z" transform="translate(-0.02 -0.02)"/><path class="cls-1" d="M16,1.12l0,0S16,1.12,16,1.12Z" transform="translate(-0.02 -0.02)"/><path class="cls-1" d="M16.06,1.19l0,0S16,1.19,16.06,1.19Z" transform="translate(-0.02 -0.02)"/><path class="cls-1" d="M15.75,32.9c0,.05.08.08.14.12Z" transform="translate(-0.02 -0.02)"/><path class="cls-1" d="M14.29,17.69h0Z" transform="translate(-0.02 -0.02)"/><path class="cls-1" d="M16.58,32.86l0,0S16.58,32.87,16.58,32.86Z" transform="translate(-0.02 -0.02)"/><path class="cls-1" d="M17,2.93c.1,0,0,.14.08.14S17.12,3,17,2.93Z" transform="translate(-0.02 -0.02)"/><path class="cls-1" d="M17.84,18.66v0S17.84,18.67,17.84,18.66Z" transform="translate(-0.02 -0.02)"/><path class="cls-1" d="M16.58,32.86l0,0-.05,0S16.58,32.85,16.58,32.86Z" transform="translate(-0.02 -0.02)"/><polygon class="cls-1" points="14.41 22.94 14.41 22.94 14.39 22.93 14.41 22.94"/><path class="cls-1" d="M14.29,23.25l0-.06A0,0,0,0,0,14.29,23.25Z" transform="translate(-0.02 -0.02)"/><path class="cls-1" d="M15.89,33l.08.06A.1.1,0,0,0,15.89,33Z" transform="translate(-0.02 -0.02)"/><path class="cls-1" d="M14.59,26.26s0,0,0,0S14.58,26.25,14.59,26.26Z" transform="translate(-0.02 -0.02)"/><path class="cls-1" d="M14.6,9.13l0,0S14.58,9.1,14.6,9.13Z" transform="translate(-0.02 -0.02)"/><polygon class="cls-1" points="17.07 11.16 17.07 11.16 17.08 11.16 17.07 11.16"/><path class="cls-1" d="M17,11.07s.05.09.12.11S17.08,11.11,17,11.07Z" transform="translate(-0.02 -0.02)"/><path class="cls-1" d="M17.05,11.42h0Z" transform="translate(-0.02 -0.02)"/><polygon class="cls-1" points="17.2 9.18 17.19 9.18 17.2 9.18 17.2 9.18"/><path class="cls-1" d="M17.24,9.64l0,0Z" transform="translate(-0.02 -0.02)"/><polygon class="cls-1" points="17.3 12.49 17.3 12.49 17.3 12.49 17.3 12.49"/><path class="cls-1" d="M18.08,16.62a6.34,6.34,0,0,1-.22-1.35c-.19-.09-.2-.22-.25-.35l.26,0-.08-.1c.07-.05,0,.08.14,0l-.16,0c.09,0,.06-.28.24-.1v-.43c0-.09-.22-.05-.15-.15s.05,0,.14,0c.18-.32-.5-.36-.39-.65l0,0c-.07,0-.06-.14-.1-.14-.26,0,.14.05,0,.14s-.12-.11-.28-.1c.07-.07-.05-.11-.06-.17s0-.24.2-.32c-.07-.05-.28-.1-.29-.21.17-.08.16,0,.22-.09h-.12c0-.09.05-.07.11-.07s-.17-.08-.1-.19l.13.06c-.05-.08,0-.12,0-.24s.07,0,.05.09c.18-.07-.09-.11-.07-.14s-.07.09-.2.05-.17-.12,0-.17l.12.07c-.1-.13-.16-.07-.11-.21h.07c-.16-.09,0-.21,0-.34l0,0c-.05,0-.16-.08-.15-.11s-.11.05-.23.06c.21-.1-.24-.15-.12-.31.07,0,.16,0,.08.09.22.05.4.05.5.15-.05-.06-.08-.13,0-.12h-.2s0-.07,0-.1-.21.08-.29,0,.2-.05.11-.06-.21-.06-.15-.19c0,0,.05,0,0,.05s0-.22.2-.25c0,0,.12,0,.1,0h0c.17.1,0-.09.16-.06-.12,0-.1-.12-.07-.17H17c-.44-.19.29,0,.23-.18s0,.05-.14,0,.15-.11.09-.23a.62.62,0,0,1,.3-.11c-.07-.07.07-.22-.09-.26-.13.13.17.12,0,.27l-.16,0c0-.1-.07-.23,0-.3a.14.14,0,0,1-.11,0c-.06-.14-.22-.18-.17-.32s.12.06.13.12c.12-.09,0-.09.06-.23s0,.09.12.11l0-.16h0c-.21,0,0-.12,0-.21s-.29-.26-.46-.38a.18.18,0,0,1,.17,0c-.1.05,0,0,0,.06s.21-.16.3-.12c-.06-.12-.11,0-.18,0V8.32c-.11,0-.13.08-.21,0s0-.11,0-.21.16,0,.15.05S17,8,16.92,8s-.09-.17-.26-.09l.1-.1s.07,0,0,.06c.17,0,0-.09-.06-.12s0-.13.11-.14,0-.11.07-.13-.11,0-.16,0l0-.16a1.59,1.59,0,0,1,.38,0c-.09-.06-.27,0-.26-.11.17,0,.13-.13.34,0a.2.2,0,0,0,.08-.29c-.14-.05-.08.09-.22.08-.05-.23-.45-.25-.38-.42l0,0c-.08-.11-.06-.1-.19-.16.18,0,.49-.12.45-.3-.09,0-.17.1-.31.07l0-.12s0,0,.07,0,.23-.2,0-.23L17,5.73l-.11,0c-.09,0-.11-.14-.15-.16s0-.17.1-.24c-.08,0-.25.08-.27,0,.29,0,.11-.2.26-.2,0,0,.09-.1,0-.11h.19c-.26,0-.24-.15-.29-.26.34,0,0-.12.29-.17-.23,0-.09-.19-.29-.21,0-.08.21-.07.28-.09l-.08,0c.11,0,.12-.2.2-.29l-.21-.09.1,0c-.05,0-.08-.09-.16,0v0c-.22,0-.06-.07-.15-.16a.13.13,0,0,1,.12,0s.11,0,.19,0-.4-.17-.5-.05-.16-.06-.12-.11l.2,0-.21-.06c0-.07.1-.1.12-.16s.39.14.39,0c0,.08.13.12.18.17s0-.05.11,0c-.06-.12-.12,0-.15-.16.18,0,.24,0,.3-.13l-.13.08-.05,0s-.05,0-.12,0S16.75,3,16.86,3c-.28.11-.21-.21-.38-.14s-.07-.1,0-.11.21-.07.34-.05c-.05,0-.14.08-.21,0s.11-.11.16-.14l0,0,.08-.09c-.09,0-.16.08-.2,0s0-.11.06-.11.29,0,.32.09,0-.25-.2-.17V2.26c-.08,0-.22.16-.24,0h0l-.14-.1.09,0s-.08,0-.08-.05.08,0,.15,0-.1-.1-.15-.12,0-.08.13-.05,0-.22.1-.28c-.08-.11,0,0-.16,0,.32-.09.13-.36.09-.54-.27,0,0-.05-.28-.09.09,0,.22-.16.29,0l0-.09c.15-.06.11.16.32.06,0-.1-.31-.18-.21-.3.2,0-.06-.1.15-.07s.05.07.07.1l0,0c.06-.23-.23-.07-.37-.2s.16-.11.25-.11,0-.1,0-.13c.12.08-.12.15-.25.11.23-.06,0-.21-.06-.25-.24.2,0,.14-.27.33.07,0,.27,0,.18.14-.09-.08-.11,0-.14,0,.12,0,.05.08.09.12s-.26-.08-.31,0l.27,0s-.2,0-.13.07c-.15-.05-.22,0-.26-.12-.24.15.11.24.21.37s-.05,0-.07,0a.12.12,0,0,1,.08.11c-.06.08-.12-.07-.19-.05v.13h0s.06.07,0,.08-.17-.06-.24-.09l.18.14c-.09,0-.15.11-.22,0l0,.21h-.18c0,.05.06.05.09,0s.31.32-.05.28c.15.16.09.21.18.41-.17-.15-.22.16-.29,0-.08.09.11.11.14.18a.26.26,0,0,1-.32,0l.08.09h0l.11.07c-.1.08-.19,0-.21.1l.16,0-.1,0c.08,0,.11,0,.12.09h0l0,.07c-.09-.07,0,.07-.15,0s0,.07,0,.18l.12,0c.09.15-.17,0-.18.12h.13c-.22.17.11.29,0,.41,0-.07-.17,0-.14,0s0,.28.17.4c-.19,0-.24.05-.33.16s0,.1.14.13c-.08.08,0,.23-.1.23.1,0,0,.07.06.12h.08c-.29.14.15.25-.1.39l0,0,0,.06c-.06,0-.09,0-.16,0l0,.28.1,0c0,.06.13.1.05.16-.19-.11,0,.1-.15.12l0-.06c0,.08,0,.08.14.07s-.24.08-.11.18V5.62c.07,0,.18,0,.17.07s-.07,0-.09,0,0,.21,0,.25S15,6,15,6c.11.18,0,.08.08.26H15l.09.06-.16.09.1,0c0,.06.06.1,0,.17l-.11,0c.06.17-.18.19,0,.35,0,0,0,0-.07,0,.17.14-.19.11,0,.26a.41.41,0,0,0-.11,0l.07.07h-.14l.21.06-.15,0,.07,0c-.28.07-.07.17-.28.27l.18,0c.38.25-.21.58,0,.88h-.15l.17.13c-.11.07-.12,0-.2,0,.08.13.22.06.26.21s-.11,0-.16-.06c.07.14.15.36.07.46h.05c.07.1,0,.23,0,.34a.11.11,0,0,1-.09-.06s-.05.09,0,.13l-.12,0c0,.08.09.24-.06.26.06,0,.17,0,.16.06-.22,0,.09.19,0,.31s-.07-.1-.07-.08,0,.11.11.16h-.09l.13.26c-.22,0,0,.25-.13.24,0,.09.1-.08.12,0s0,.1-.09.1h0v.08l-.14-.05c0,.07.17.12.28.13-.08.07,0,.16-.14.19l0,0c.06.19-.39.32-.14.47,0,0-.06,0-.06,0v.12l-.1,0,.16.19h-.07a1.76,1.76,0,0,0,0,.5l0,0c.11.18-.07.17,0,.31l0,0v.12l-.07,0c.15.08-.2.25-.07.2a.75.75,0,0,0,.24.15c0,.13-.09,0-.15.11s.12.11,0,.24h-.07c0,.06.07.1.08.18l0,0c.16.14-.21.18.11.28-.06.06,0,.17-.16.16a2.37,2.37,0,0,1,.2.47c-.23,0,0,0-.11.14h.12c0,.24-.29.52-.23.78H14l.14.05a6,6,0,0,0-.09.88c.07.07.22.18.18.3h0a.94.94,0,0,1,.07.64c-.06,0-.09,0-.13,0,.14.05,0,.13,0,.18l.09-.06c.13.06,0,.15-.08.19l.14.1h-.05l.06,0-.16.06a.46.46,0,0,0,.24.19s-.09.11-.13,0l0,.36.06-.05c.13,0,.21.09.16.15s-.19,0-.28,0c.07.05.11,0,.18,0s.14.19.08.23l-.05,0c.05.09-.17.13-.16.22s0,.13.23.11c0,.1-.15,0-.17.08s0,.2-.06.22c.32.05-.11.3.16.31l-.15.1c.07,0,.23,0,.27.08s-.21.06-.28.08l.27,0c-.28.4-.06.92-.28,1.36a1.6,1.6,0,0,1,.16.65l0,0-.07.23.12-.17c0,.05.09.08.09.13a1,1,0,0,0-.08.88c.32.18-.27.14,0,.32l-.1,0a2,2,0,0,0,.36.5c-.3,0,0,.13-.15.12h.13c-.07.05-.1.16-.19.14l.16.09h-.12c0,.12.11.37-.14.44a1.83,1.83,0,0,1,.14,1.12c.11.05.12.16.14.24l-.15.1c0,.08.25.16.16.25h0c0,.09,0,.17.11.25a.18.18,0,0,1-.22.17c.25,0,0,.2,0,.2a17.84,17.84,0,0,0,.06,2.62c.12,1.37.5,2.89,1.24,3.4.13,0,.22.13.36.07s-.15.15,0,.15.33,0,.47-.14l0,.07c.09,0-.12-.09.05-.09H16.4a.28.28,0,0,1,.15-.13c-.09-.05-.41,0-.29-.19l0,0c0-.1.14-.08.18-.11v0l.1-.11c-.07.08.13.17.11.11s-.05,0-.09-.05.11-.06.18-.06l0-.11c.11,0,0,.07.11,0l-.13-.12c.27-.06-.15-.13.1-.22.08.08.09,0,.18,0l0-.23s.09.05.08,0-.08-.07-.08-.09,0-.18.16-.19c.1-.17-.24,0-.15-.2s0,.11.15,0l-.06-.15c.05,0,.18,0,.16.07.1-.43.65-.71.47-1.07.13-.07.1,0,.19.06-.2-.26.25-.41.21-.65H18c.3-.36.07-.73.18-1.11l-.07.05c-.11,0-.13-.12-.18-.18s.23,0,.18-.08-.08.08-.13.07c.25-.34.14-1,.24-1.53-.13-.7,0-1.48-.07-2.17,0,.11-.25.08-.19,0,.44-.24-.1-.37.2-.61-.17-.4.21-.77-.16-1.13l.13,0c.05-.06,0-.07-.05-.13h0c0-.14-.09-.3,0-.38h-.15c0-.08.11-.05,0-.13H18l-.14-.1c.25,0,0-.23.12-.3a.81.81,0,0,1-.12-.47c.13,0,.12-.24.18-.37a3.26,3.26,0,0,1-.06-.91h-.17v-.08s.05,0,.07,0c.19-.07-.06-.19.05-.26-.14.05,0,.06,0,.11s-.24,0-.16-.09h0l-.09-.06c.13,0,.19-.07.31-.08,0-.27-.26-.45-.21-.73.14,0,0-.2.21-.15-.1-.16-.2,0-.38,0,0,0-.07-.09,0-.1s.15-.05.17,0l0-.11s.05,0,.07,0c-.15-.22.15-.41,0-.61-.09,0,0,.08-.12.07-.18-.2.16-.18,0-.37l.12,0c-.09-.06-.19-.08-.1-.19s.13.09.2.13,0-.24-.17-.18.07-.12.11-.17-.09.08-.16,0a.93.93,0,0,0,.08-.44H18C17.8,16.77,18.12,16.78,18.08,16.62Z" transform="translate(-0.02 -0.02)"/><path class="cls-1" d="M17.24,9.14l0,.06a.17.17,0,0,1,.11,0Z" transform="translate(-0.02 -0.02)"/><path class="cls-1" d="M17.17,11.84l0,0A0,0,0,0,0,17.17,11.84Z" transform="translate(-0.02 -0.02)"/><path class="cls-1" d="M17.43,12.49c0-.05-.07,0-.11,0A.23.23,0,0,0,17.43,12.49Z" transform="translate(-0.02 -0.02)"/><path class="cls-1" d="M16.86,7.62a.06.06,0,0,0,.06,0Z" transform="translate(-0.02 -0.02)"/><path class="cls-1" d="M17,3.4l0,0Z" transform="translate(-0.02 -0.02)"/><path class="cls-1" d="M16.76,3.63a.06.06,0,0,0,0,.05A.08.08,0,0,0,16.76,3.63Z" transform="translate(-0.02 -0.02)"/><path class="cls-1" d="M16.91,8.64l.05,0A.08.08,0,0,0,16.91,8.64Z" transform="translate(-0.02 -0.02)"/><path class="cls-1" d="M16.81,3.73l0,.06h0Z" transform="translate(-0.02 -0.02)"/><path class="cls-1" d="M17,3.33s0,0,0,.07S17,3.35,17,3.33Z" transform="translate(-0.02 -0.02)"/><path class="cls-1" d="M16.68,6.07h0C16.74,6.12,16.72,6.09,16.68,6.07Z" transform="translate(-0.02 -0.02)"/><polygon class="cls-1" points="17.04 3.97 17.03 3.98 17.07 3.99 17.04 3.97"/><path class="cls-1" d="M17.07,3.07s0,0,0,0l0,0Z" transform="translate(-0.02 -0.02)"/><path class="cls-1" d="M16.91,5.19l-.12,0S16.81,5.2,16.91,5.19Z" transform="translate(-0.02 -0.02)"/><path class="cls-1" d="M4.76,23.14l0,.05A.12.12,0,0,0,4.76,23.14Z" transform="translate(-0.02 -0.02)"/><path class="cls-1" d="M6.84,25.64h0Z" transform="translate(-0.02 -0.02)"/><path class="cls-1" d="M3.42,21.74h0l-.1-.09Z" transform="translate(-0.02 -0.02)"/><path class="cls-1" d="M11.57,30.84l0,0S11.56,30.84,11.57,30.84Z" transform="translate(-0.02 -0.02)"/><path class="cls-1" d="M8.75,27.73a.09.09,0,0,1,.07,0S8.78,27.7,8.75,27.73Z" transform="translate(-0.02 -0.02)"/><path class="cls-1" d="M3.52,20l0,.11S3.54,20,3.52,20Z" transform="translate(-0.02 -0.02)"/><path class="cls-1" d="M1.72,19.05v0S1.72,19.06,1.72,19.05Z" transform="translate(-0.02 -0.02)"/><path class="cls-1" d="M2.1,19.83s0,0,.06,0S2.12,19.8,2.1,19.83Z" transform="translate(-0.02 -0.02)"/><path class="cls-1" d="M2.2,19.83h0S2.19,19.84,2.2,19.83Z" transform="translate(-0.02 -0.02)"/><path class="cls-1" d="M28.85,17.88c0-.05,0-.13,0-.2Z" transform="translate(-0.02 -0.02)"/><path class="cls-1" d="M18.05,35.49v.08A.11.11,0,0,0,18.05,35.49Z" transform="translate(-0.02 -0.02)"/><path class="cls-1" d="M28.17,17.4l0,0S28.17,17.39,28.17,17.4Z" transform="translate(-0.02 -0.02)"/><path class="cls-1" d="M4.5,20.48c.11,0,.13.13.18.06S4.61,20.4,4.5,20.48Z" transform="translate(-0.02 -0.02)"/><path class="cls-1" d="M16.92,30.53h0Z" transform="translate(-0.02 -0.02)"/><path class="cls-1" d="M28.17,17.4l-.05,0h.05S28.16,17.41,28.17,17.4Z" transform="translate(-0.02 -0.02)"/><polygon class="cls-1" points="22.38 28.58 22.38 28.58 22.39 28.6 22.38 28.58"/><path class="cls-1" d="M22.72,28.41v.07A0,0,0,0,0,22.72,28.41Z" transform="translate(-0.02 -0.02)"/><path class="cls-1" d="M28.82,17.68l0-.12A.17.17,0,0,0,28.82,17.68Z" transform="translate(-0.02 -0.02)"/><path class="cls-1" d="M24.76,25.28s0,0,0,0S24.77,25.29,24.76,25.28Z" transform="translate(-0.02 -0.02)"/><path class="cls-1" d="M8.59,27.5v0S8.56,27.49,8.59,27.5Z" transform="translate(-0.02 -0.02)"/><polygon class="cls-1" points="12.16 27.49 12.16 27.5 12.16 27.49 12.16 27.49"/><path class="cls-1" d="M12,27.51s.11,0,.18,0S12.11,27.47,12,27.51Z" transform="translate(-0.02 -0.02)"/><path class="cls-1" d="M12.36,27.75v0Z" transform="translate(-0.02 -0.02)"/><polygon class="cls-1" points="10.49 25.69 10.48 25.69 10.49 25.69 10.49 25.69"/><path class="cls-1" d="M10.91,26.08a.06.06,0,0,0,0,.06Z" transform="translate(-0.02 -0.02)"/><polygon class="cls-1" points="13.51 28.45 13.51 28.45 13.51 28.45 13.51 28.45"/><path class="cls-1" d="M16.72,30.29a.24.24,0,0,1,0,.13l-.05,0h0l-.15-.13a.59.59,0,0,1-.49-.09L16.1,30,16,30c0-.09.11,0,.1-.11L15.9,30c0-.07-.22-.27.07-.26l-.4-.34c-.08-.08-.19.12-.24,0s.07,0,.12-.09c-.17-.39-.66.09-.86-.23h.05c-.09,0-.17-.08-.2-.05-.13.23.14-.06.13.13s-.18,0-.29.12c0-.11-.13,0-.19-.09s-.2-.23-.16-.42c-.09,0-.28.12-.39,0,.05-.19.13-.1.08-.24l-.1.08c-.07-.08,0-.1,0-.14s-.19.07-.24-.09l.14,0c-.11,0-.12-.08-.22-.19s.09,0,.11,0c.06-.2-.16,0-.17-.08s0,.13-.1.19-.22,0-.16-.12l.14,0c-.18,0-.17.07-.26-.09l.05,0c-.19,0-.19-.16-.31-.28h.05c-.08,0-.18,0-.2,0,0,.12,0,.13-.1.22.05-.23-.3.05-.36-.18,0-.05.14-.08.13,0,.2-.1.33-.23.48-.22-.09,0-.17-.06-.1-.11l-.15.13s0-.06-.08-.08-.07.21-.21.19.1-.19,0-.13-.19.1-.26,0,.07,0,.06,0-.22-.16-.08-.36c0,0,.1-.08.11,0l0,0c.21,0-.11,0,.07-.16-.09.1-.18,0-.22-.1l-.08.12c-.48.15.21-.2,0-.32s0,.07-.13.07,0-.2-.14-.26a.47.47,0,0,1,.11-.31c-.11,0-.14-.25-.29-.17,0,.21.23,0,.21.27l-.15.08c-.08-.1-.25-.15-.27-.25a.18.18,0,0,1-.07.08c-.17-.08-.32,0-.41-.16.09-.12.14,0,.21,0,0-.16-.08-.09-.17-.24.08-.1.07.08.18,0l-.17-.11,0,0c-.17.14-.09-.11-.22-.15-.2-.2-.43,0-.66,0a.2.2,0,0,1,.09-.15c0,.12,0,.06.08,0s0-.29.09-.32c-.15-.06,0,.12-.15.11l-.14-.16c-.06.1,0,.16-.16.15s-.1-.09-.18-.18.09-.14.15-.08a.11.11,0,0,0-.17-.08C9.25,25,9,24.79,9,25l0-.17s.07,0,.09,0c.09-.14-.11,0-.15-.06s-.09-.15-.05-.2-.11-.09-.06-.17-.08.08-.13.1l-.14-.15c.06-.07.22-.27.27-.27-.12,0-.21.17-.29.08.17-.08,0-.21.2-.29,0-.14-.1-.27-.21-.31s0,.13-.08.23c-.25-.17-.54.11-.65-.09v.06a.45.45,0,0,0-.28,0,.4.4,0,0,0,0-.59c-.07,0,0,.22-.15.29l-.13-.08a.08.08,0,0,1,.07,0c-.14-.05,0-.35-.2-.22l.08-.28,0,.12c-.07.05-.2,0-.25,0s-.17-.13-.15-.27c0,.07-.1.24-.21.18.2-.21-.11-.25,0-.36s0-.16-.12-.07l.12-.13c-.17.18-.3.05-.43,0,.25-.23-.13-.08,0-.35-.17.15-.24-.1-.39,0-.09-.06.06-.21.09-.29l-.09,0c0-.12-.11-.27-.15-.4l-.21.08,0-.1s-.14,0-.15.09l0-.05c-.15.17-.1,0-.25,0A.1.1,0,0,1,5,21.23s0-.11.08-.19c0,.07-.43.17-.37.35s-.17.07-.19,0l.11-.18-.19.12c-.09,0,0-.16-.08-.23s.38-.18.23-.31c.09.05.21,0,.27,0s0-.06.08-.08c-.16-.06-.12.06-.25,0,.12-.13.13-.2.06-.34v.17l0,0a.17.17,0,0,1,0,.13s-.28,0-.23-.05c-.07.32-.34,0-.38.19,0,0-.13,0-.08-.11s.06-.21.15-.3c-.06,0,0,.17-.1.18s0-.16,0-.23h0l0-.13c-.08.06,0,.19-.13.16s-.11-.08-.06-.14.2-.21.29-.18c-.07,0-.27-.17-.3,0L3.77,20c0,.09,0,.3-.12.2l0,0-.18,0v-.1a.07.07,0,0,1-.1,0c0-.05,0-.09.05-.15-.11-.08-.16,0-.2,0s-.07-.08,0-.14c-.07-.09-.22-.18-.22-.3-.16,0,0,0-.14.09.11-.33-.28-.38-.48-.49-.12.25-.07,0-.26.16.09,0,0-.31.17-.24L2.24,19c0-.17.23,0,.26-.2-.12-.08-.37.1-.43-.07.16-.13-.14,0,0-.17s.09,0,.14,0v-.05c-.2-.23-.21.13-.41.14s0-.21,0-.29-.09-.08-.16-.07c.16,0,.08.23,0,.29.07-.22-.2-.18-.29-.14.06.35.13.12.17.47.06,0,.18-.2.25,0-.14,0-.07.09-.07.13s.11,0,.18,0-.24.15-.15.28l.19-.2c0,.07-.14.14,0,.17-.14.07-.12.18-.27.11,0,.31.31.09.49.11l-.07,0a.15.15,0,0,1,.16,0c0,.11-.14,0-.16.12l.13.09a0,0,0,0,1,0,0c.06,0,.1,0,.07.07A2.36,2.36,0,0,0,2,20l.25,0c-.07.06,0,.21-.12.18l.22.13-.1.16c.07,0,.1,0,0-.08,0,.09.5,0,.24.25.25,0,.27.1.51.18-.25,0,0,.3-.17.23,0,.14.18,0,.27,0A.25.25,0,0,1,3,21.3h.13l0,0,.14,0c0,.13-.1.15,0,.23l.12-.11v.12c0-.07.1-.06.16,0l0,0,.08,0c-.13,0,0,.08-.06.14s.06.06.18.13l.05-.1c.2,0-.1.13,0,.23l.07-.1c0,.3.35.14.38.34-.08,0-.16.1-.14.07s.28.22.48.19c-.08.18-.11.23,0,.38s.1.06.2,0c0,.12.24.17.15.27.09-.06.06.08.16.05l0,0,.08-.1c-.06.33.33.08.3.38h0c0,.05-.07.05-.12.11l.24.25v-.12c.06,0,.18,0,.19.1-.23.05.08.09,0,.21H5.54c.09.06.09.06.17,0,.13.06-.1.24.08.22l-.06-.06c0-.07.15-.11.19-.07s0,.1,0,.08c.11,0,.18.19.25.18s-.06.12-.11.13c.24.07.06.09.3.16l-.06.05h.12l0,.19,0-.1c.06.05.13,0,.16.13l-.09,0c.19.1,0,.3.29.33,0,0,0,0-.07,0,.25,0,0,.23.24.21a.5.5,0,0,0-.07.08H7l-.11.1.2-.11L7,25.79l.07,0c-.12.26.11.2,0,.44l.12-.15c.48-.05.36.65.75.79l-.11.1h.23c0,.14-.12.05-.15.12.17.06.2-.1.36,0s-.1.06-.17.06c.18.08.43.21.47.36,0,0,0,0,0,0s.2.2.3.29a.1.1,0,0,1-.11,0s0,.11.12.1l-.13.05c.06.09.28.15.2.27,0-.05.11-.12.17-.06-.12.2.23.11.26.29s-.14,0-.12,0,.13.06.22.05l-.07.05.32.15c-.11.19.26.2.13.3.08.08,0-.14.12-.06,0,.1.13.06,0,.16h0l.09.06-.15.06a.33.33,0,0,0,.31-.09c0,.11.15.15.09.27h-.05c.21.12,0,.56.33.51,0,0,0,.05-.05,0l.11.11-.1.05.29.05-.05,0a2.26,2.26,0,0,0,.49.41h0c.24.07.12.2.3.26h0l.12.1-.07,0c.18,0,.1.36.14.22a.73.73,0,0,0,.3-.05c.13.1,0,.09,0,.21s.18,0,.26.16l-.05,0c.07.05.14,0,.23.1h0c.23,0,0,.3.34.15,0,.09.15.14,0,.25a5,5,0,0,1,.58.24c-.12.2.05,0,.06.21l.07-.11c.25.19.32.65.61.82l-.08.11.14-.07c.42.42,1.12,1,1.53,1.36a.88.88,0,0,1,.58.24h0a4.26,4.26,0,0,1,1.14.84s0,.14,0,.15.23.18.32.25l-.12-.22a.06.06,0,0,1,.08,0s0-.06.06-.07a.12.12,0,0,1,.14,0l.07-.38a.05.05,0,0,1,0,0v-.12l.12.12a2.21,2.21,0,0,0,.14-.69c0,.05.16-.08.09.1l.45-.66-.1,0a.42.42,0,0,1,.1-.45c0,.24.1.19.19.21,0-.16-.12,0-.13-.14s.14-.48.22-.5v.12c.06-.2.26-.1.35-.27s.15-.27,0-.4c.09-.23.16,0,.22,0s.2-.41.32-.39c-.08-.17,0-.24.06-.28s.15-.1.05-.18l.18,0c-.06,0-.18-.14-.16-.23s.21.05.28.07l-.2-.19c.51-.26.68-.9,1.17-1.21a2.05,2.05,0,0,1,.32-.75v0l.21-.18-.21.09a.36.36,0,0,1,0-.18,1.53,1.53,0,0,0,.69-.82c-.12-.37.32,0,.26-.29a.33.33,0,0,1,.06.1,2.35,2.35,0,0,0,.08-.71c.24.2.09-.14.21,0l-.09-.09c.09,0,.19-.09.25,0l-.06-.18.11.06c.09-.11.19-.43.44-.34a2.64,2.64,0,0,1,.74-1.18c0-.12,0-.23.08-.32h.19c0-.11-.07-.31.07-.34s0,0,0,0,.17-.14.11-.31.21-.14.3,0c-.2-.15.18-.18.18-.18A24.49,24.49,0,0,0,27.3,22.1c.94-1.47,1.76-3.23,1.55-4.22-.09-.11-.08-.27-.24-.3,0-.11.23,0,.13-.12-.14.08-.25-.21-.46-.16l0-.1c-.07-.06,0,.16-.1.06l.18.14a.22.22,0,0,1-.21,0c0,.11.3.3.09.38v-.05c-.06.12-.17,0-.22,0l0,0-.16,0c.11,0,0-.25,0-.18s.07,0,0,.11-.12,0-.19-.05l-.06.12c-.09-.06,0-.07-.07-.08v.2c-.25-.11,0,.23-.24.16,0-.14-.08,0-.15-.1l-.14.27s0-.11,0-.07,0,.11,0,.14-.11.19-.26.09c-.21.11.15.19,0,.3-.11,0,0-.14-.09-.13l-.07.19c0-.05-.13-.13-.07-.18-.4.37-1,.31-1.17.79-.15,0-.05-.09-.09-.17,0,.38-.51.25-.65.51l.09.06c-.5.16-.6.68-1,1h.09c.06.11,0,.21,0,.3s-.16-.18-.2,0,.11,0,.15,0c-.46.18-.86.9-1.35,1.36-.43.77-1.16,1.43-1.62,2.18.07-.11.25.09.14.14-.53,0-.21.43-.63.49-.18.5-.77.66-.76,1.26l-.11-.07c-.09,0,0,.1-.06.17l0,0c-.14.12-.15.38-.26.43l.11.09c0,.09-.12,0-.11.12l-.06,0,0,.19c-.2-.15-.18.24-.33.24a1.23,1.23,0,0,1-.25.57c-.13,0-.27.18-.41.28a6.17,6.17,0,0,1-.61,1l.14.09-.05.09s0,0-.06,0c-.2,0-.08.24-.22.25.15,0,.06-.05.09-.1s.2.12.07.18l0,0,0,.11c-.11-.06-.2,0-.31-.09a1.75,1.75,0,0,0-.13.47l0,.11s0,0,0,0,0,0,0,0,0,.06-.17-.13c.05.08.14.14.26.29s0,.08,0,0a1.14,1.14,0,0,1-.12-.14v0l0-.06c.06.17-.12-.12-.05.06s0,0,.06.12c.05.26-.09-.17-.06,0l0-.17c0,.12.06.28,0,.15l-.06-.27s0,.06.05.25,0-.12-.05-.18,0,.14.05.25c0-.14-.05-.14-.07-.17v-.14C16.72,30.66,16.72,30.24,16.72,30.29Z" transform="translate(-0.02 -0.02)"/><path class="cls-1" d="M10.47,25.64l0,.07a.11.11,0,0,1,.1-.05Z" transform="translate(-0.02 -0.02)"/><path class="cls-1" d="M12.82,28h0A0,0,0,0,0,12.82,28Z" transform="translate(-0.02 -0.02)"/><path class="cls-1" d="M13.59,28.38c-.07,0-.05,0-.06.09A.2.2,0,0,0,13.59,28.38Z" transform="translate(-0.02 -0.02)"/><path class="cls-1" d="M8.83,24.57a.09.09,0,0,0,.06,0A.09.09,0,0,0,8.83,24.57Z" transform="translate(-0.02 -0.02)"/><path class="cls-1" d="M5,20.87v0A0,0,0,0,0,5,20.87Z" transform="translate(-0.02 -0.02)"/><path class="cls-1" d="M5,21.23l.06,0S5.05,21.23,5,21.23Z" transform="translate(-0.02 -0.02)"/><path class="cls-1" d="M9.79,25.43a.06.06,0,0,0,.07,0S9.81,25.43,9.79,25.43Z" transform="translate(-0.02 -0.02)"/><polygon class="cls-1" points="5.14 21.25 5.18 21.31 5.2 21.29 5.14 21.25"/><path class="cls-1" d="M4.89,20.79a.24.24,0,0,1,.06.08C5,20.81,4.93,20.79,4.89,20.79Z" transform="translate(-0.02 -0.02)"/><path class="cls-1" d="M7.29,23.35h0C7.38,23.34,7.34,23.34,7.29,23.35Z" transform="translate(-0.02 -0.02)"/><polygon class="cls-1" points="5.55 21.28 5.55 21.29 5.59 21.27 5.55 21.28"/><path class="cls-1" d="M4.68,20.54s0,0,.05,0l0,0Z" transform="translate(-0.02 -0.02)"/><path class="cls-1" d="M6.62,22.42l-.11.07S6.56,22.5,6.62,22.42Z" transform="translate(-0.02 -0.02)"/></g></g></svg>