<svg xmlns="http://www.w3.org/2000/svg" viewBox="0 0 360.76 37.82"><defs><style>.cls-1{fill:#333;}</style></defs><g id="Layer_2" data-name="Layer 2"><g id="Calque_1" data-name="Calque 1"><polygon class="cls-1" points="122.94 22.98 126.43 19.5 122.94 16 123.61 15.31 127.09 18.81 130.58 15.31 131.28 16 127.78 19.5 131.28 22.98 130.58 23.65 127.09 20.18 123.61 23.65 122.94 22.98"/><path class="cls-1" d="M161.7,15.25a7.17,7.17,0,0,0-1.09.07v3.6l.88,0c1.55,0,2.33-.67,2.33-1.89,0-1-.68-1.81-2.12-1.81m0,6.23c-.42,0-.69,0-1.09,0v3.77h-2.93V12.72a33.12,33.12,0,0,1,3.52-.21c3.65,0,5.61,2,5.61,4.5s-1.77,4.47-5.11,4.47"/><path class="cls-1" d="M173.79,17.66l-1.26,3H175Zm3.11,7.56L176,22.93H171.6l-.95,2.29h-3l5.94-12.73h.4L180,25.22Z"/><path class="cls-1" d="M186.87,15.25a7,7,0,0,0-1.08.07v3.6l.88,0c1.55,0,2.32-.67,2.32-1.89,0-1-.67-1.81-2.12-1.81m0,6.23c-.41,0-.69,0-1.08,0v3.77h-2.93V12.72a32.79,32.79,0,0,1,3.51-.21c3.66,0,5.62,2,5.62,4.5s-1.77,4.47-5.12,4.47"/><polygon class="cls-1" points="195.69 25.22 195.69 12.6 203.68 12.6 203.68 15.28 198.62 15.28 198.62 17.54 203.23 17.54 203.23 20.09 198.62 20.09 198.62 22.55 203.68 22.55 203.68 25.22 195.69 25.22"/><path class="cls-1" d="M212.39,15.13a6,6,0,0,0-1.13.08v3.48a7.62,7.62,0,0,0,.93.06c1.39,0,2.29-.68,2.29-1.95,0-1.05-.83-1.67-2.09-1.67M215,25.22l-2.15-4.11h-.5c-.43,0-.67,0-1.08,0v4.13h-2.93V12.72a30.1,30.1,0,0,1,3.72-.21c3.93,0,5.48,1.88,5.48,4.19a4.25,4.25,0,0,1-2.17,3.65l3,4.87Z"/><path class="cls-1" d="M228.39,20.86c0,2.78-1.19,4.57-4.53,4.57a6.45,6.45,0,0,1-3.44-.9l.91-2.44a4.85,4.85,0,0,0,2.45.67c1.18,0,1.68-.74,1.68-2.15v-8h2.93Z"/><path class="cls-1" d="M236.47,17.66l-1.26,3h2.5Zm3.12,7.56-1-2.29h-4.36l-.95,2.29h-3l6-12.73h.39l5.94,12.73Z"/><polygon class="cls-1" points="255.93 25.22 255.77 19.02 252.28 23.45 251.97 23.45 248.44 19.02 248.31 25.22 245.49 25.22 246.07 12.51 246.47 12.47 252.19 19.69 257.77 12.47 258.17 12.51 258.77 25.22 255.93 25.22"/><polygon class="cls-1" points="270.35 19.74 270.35 21.83 268.46 21.83 268.46 19.74 266.5 19.74 266.5 17.92 268.46 17.92 268.46 15.83 270.35 15.83 270.35 17.92 272.32 17.92 272.32 19.74 270.35 19.74"/><path class="cls-1" d="M284.35,15.13a7.8,7.8,0,0,0-1.21.07v7.44a11.9,11.9,0,0,0,1.4.07c2.76,0,4-1.55,4-3.91s-1.45-3.67-4.17-3.67m-.28,10.19a36.4,36.4,0,0,1-3.85-.2V12.72a31.41,31.41,0,0,1,3.73-.21c5.24,0,7.69,2.72,7.69,6.29s-2.33,6.52-7.57,6.52"/><polygon class="cls-1" points="295.66 25.22 295.66 12.6 303.65 12.6 303.65 15.28 298.59 15.28 298.59 17.54 303.21 17.54 303.21 20.09 298.59 20.09 298.59 22.55 303.65 22.55 303.65 25.22 295.66 25.22"/><polygon class="cls-1" points="307.94 25.22 307.94 12.6 310.87 12.6 310.87 22.55 315.93 22.55 315.93 25.22 307.94 25.22"/><path class="cls-1" d="M323.89,17.66l-1.26,3h2.5ZM327,25.22l-.95-2.29H321.7l-.95,2.29h-3l6-12.73h.39l5.94,12.73Z"/><polygon class="cls-1" points="343.5 25.46 335.89 18.62 335.89 25.22 332.96 25.22 332.96 12.42 333.36 12.35 340.87 19.14 340.87 12.6 343.8 12.6 343.8 25.41 343.5 25.46"/><path class="cls-1" d="M354.28,15c-2,0-3.34,1.63-3.34,3.91s1.34,3.91,3.34,3.91,3.34-1.66,3.34-3.91S356.28,15,354.28,15m0,10.42a6.18,6.18,0,0,1-6.41-6.51,6.28,6.28,0,0,1,6.53-6.53,6.19,6.19,0,0,1,6.41,6.53,6.29,6.29,0,0,1-6.53,6.51"/><path class="cls-1" d="M36.84,33.21H36v4.52h.89v-3L37,35l1.86,2.73h.89V33.21h-.89v3L38.69,36ZM4,37.73h.89V33.21h-1l-1.3,2.91-.1.27-.1-.27L1,33.21H0v4.52H.88V34.87l.13.39,1,2.47h.75l1-2.47L4,34.87ZM11.21,36H10l.54-1.42.08-.25.09.25Zm.66,1.77h1l-1.75-4.52h-1L8.36,37.73h1l.38-1h1.8Zm4.49,0h.89V33.21h-.89ZM22,34.4a.46.46,0,0,1,.51-.49.54.54,0,0,1,.55.57h.9a1.29,1.29,0,0,0-1.43-1.35,1.3,1.3,0,0,0-1.42,1.35c0,.75.47,1.12,1.29,1.38.57.19.81.36.81.67s-.22.51-.6.51a.64.64,0,0,1-.71-.69H21a1.44,1.44,0,0,0,1.6,1.47,1.36,1.36,0,0,0,1.5-1.37c0-.68-.34-1.08-1.3-1.4-.55-.2-.8-.31-.8-.65m6.73-6.88h.64V0h-.64Zm1.29,0h1V.62H30Zm1.31,7.94a1.42,1.42,0,1,1-2.84,0,1.42,1.42,0,1,1,2.84,0m.92,0a2.34,2.34,0,1,0-2.34,2.36,2.26,2.26,0,0,0,2.34-2.36m0-7.94h1V1.9h-1Zm1.6,0h.65V.63h-.65Zm1.3,0h1.93V1.28H35.15Zm10.3-.18L38.32,2.39l-.62.17,7.13,25Zm.72.17L48,27,41.19,3l-1.86.53Zm3.52,8.61L48.4,33.21h-1v4.52h.89V34.87l.13.39,1,2.47h.75l1-2.47.13-.39v2.86h.89V33.21h-1L49.9,36.12l-.11.27Zm.88-8.6L58,1.16,56.11.65,48.71,27Zm3.41,0,4-22-.63-.11-4,22Zm4.65,0h1V.94h-1Zm1.08,7.93A1.42,1.42,0,1,1,58.29,34a1.41,1.41,0,0,1,1.42,1.51m.92,0a2.34,2.34,0,1,0-2.34,2.36,2.26,2.26,0,0,0,2.34-2.36m-.39-7.93h.65V0h-.65Zm1.29,0h1.93V1.28H61.53Zm3.21,0h.65V.65h-.65Zm1.29,0h1V0H66Zm1.44,7.94a1.3,1.3,0,0,1-1.41,1.44h-.81V34h.81a1.29,1.29,0,0,1,1.41,1.43m.92,0a2.17,2.17,0,0,0-2.33-2.26h-1.7v4.52h1.7a2.17,2.17,0,0,0,2.33-2.26m3.74,2.26h2.6v-.82H73V35.83H74.5V35H73V34h1.72v-.83h-2.6Zm8.5-3.08c0,.4-.27.6-.68.6h-.51V34H80c.41,0,.68.2.68.61m1.1,3.08-1-1.85a1.3,1.3,0,0,0,.79-1.23A1.43,1.43,0,0,0,80,33.21h-1.4v4.52h.89V36h.4l.88,1.69Zm6.52,0h.89V33.21h-.89v3L88.07,36l-1.86-2.74h-.88v4.52h.89v-3l.17.3Zm4.86,0h2.6v-.82H94V35.83h1.49V35H94V34h1.72v-.83h-2.6ZM99,33.57h-.11v-.38H99c.15,0,.23.05.23.17a.2.2,0,0,1-.23.21m.46.56h.11V34c-.12,0-.14,0-.15-.1l0-.14c0-.11-.07-.16-.26-.18v0c.22-.05.29-.11.29-.25s-.11-.25-.42-.25h-.47v.09c.12,0,.16,0,.16.07V34s0,.06-.16.07v.08h.5V34c-.13,0-.15,0-.15-.07v-.31H99c.19,0,.24.05.25.17v.11c0,.14,0,.2.25.2m.39-.52a.85.85,0,1,1-.85-.86.82.82,0,0,1,.85.86m.13,0a1,1,0,0,0-2,0,1,1,0,1,0,2,0"/></g></g></svg>