<svg width="24" height="24" viewBox="0 0 24 24" fill="none" xmlns="http://www.w3.org/2000/svg">
<path d="M17.2518 0H6.91819C5.22951 0.00109422 3.61031 0.693365 2.41623 1.92475C1.22216 3.15614 0.550866 4.82595 0.549805 6.56739V17.2239C0.550866 18.9654 1.22216 20.6352 2.41623 21.8666C3.61031 23.0979 5.22951 23.7902 6.91819 23.7913H17.2518C18.9405 23.7902 20.5597 23.0979 21.7537 21.8666C22.9478 20.6352 23.6191 18.9654 23.6202 17.2239V6.56739C23.6191 4.82595 22.9478 3.15614 21.7537 1.92475C20.5597 0.693365 18.9405 0.00109422 17.2518 0ZM21.5735 17.2239C21.5724 18.4056 21.1167 19.5385 20.3065 20.3741C19.4963 21.2097 18.3976 21.6796 17.2518 21.6807H6.91819C5.77233 21.6796 4.67371 21.2097 3.86346 20.3741C3.05322 19.5385 2.59756 18.4056 2.5965 17.2239V6.56739C2.59756 5.38573 3.05322 4.25277 3.86346 3.41721C4.67371 2.58165 5.77233 2.11175 6.91819 2.11065H17.2518C18.3976 2.11175 19.4963 2.58165 20.3065 3.41721C21.1167 4.25277 21.5724 5.38573 21.5735 6.56739V17.2239Z" fill="#333333"/>
<path d="M11.7247 5.76758C10.5127 5.76758 9.32793 6.12698 8.32018 6.80034C7.31242 7.4737 6.52697 8.43078 6.06315 9.55053C5.59933 10.6703 5.47798 11.9024 5.71443 13.0912C5.95088 14.2799 6.53453 15.3718 7.39155 16.2288C8.24857 17.0859 9.34049 17.6695 10.5292 17.906C11.7179 18.1424 12.9501 18.021 14.0699 17.5572C15.1896 17.0934 16.1467 16.308 16.82 15.3002C17.4934 14.2925 17.8528 13.1077 17.8528 11.8956C17.8506 10.271 17.2043 8.71362 16.0555 7.56486C14.9068 6.4161 13.3493 5.76976 11.7247 5.76758ZM11.7247 15.9136C10.9301 15.9136 10.1532 15.6779 9.4925 15.2364C8.83176 14.7949 8.31677 14.1674 8.01266 13.4332C7.70856 12.6991 7.62899 11.8912 7.78402 11.1118C7.93905 10.3324 8.32172 9.61645 8.88364 9.05454C9.44556 8.49262 10.1615 8.10995 10.9409 7.95492C11.7203 7.79988 12.5282 7.87945 13.2623 8.18356C13.9965 8.48767 14.624 9.00265 15.0655 9.6634C15.507 10.3241 15.7427 11.101 15.7427 11.8956C15.7427 12.9613 15.3194 13.9832 14.5658 14.7367C13.8123 15.4903 12.7904 15.9136 11.7247 15.9136Z" fill="#333333"/>
<path d="M18.572 3.60474C18.3833 3.60443 18.1964 3.65068 18.022 3.74085C17.8477 3.83102 17.6892 3.96334 17.5556 4.13026C17.4213 4.29779 17.3147 4.4969 17.242 4.71615C17.1693 4.9354 17.1318 5.17047 17.1318 5.40789C17.1318 5.6453 17.1693 5.88038 17.242 6.09963C17.3147 6.31888 17.4213 6.51799 17.5556 6.68552C17.7577 6.9364 18.0145 7.1069 18.2937 7.17558C18.573 7.24427 18.8622 7.20808 19.125 7.07156C19.3879 6.93505 19.6126 6.7043 19.7711 6.4083C19.9296 6.1123 20.0146 5.76425 20.0156 5.40789C20.014 4.92886 19.8619 4.46988 19.5922 4.13026C19.458 3.96298 19.2989 3.83047 19.1238 3.74029C18.9488 3.65012 18.7613 3.60406 18.572 3.60474Z" fill="#333333"/>
</svg>
