<svg width="24" height="24" viewBox="0 0 24 24" fill="none" xmlns="http://www.w3.org/2000/svg">
<path d="M8.32936 19.419H5.30766V10.3556H8.32936V19.419ZM6.81576 8.63084C6.45652 8.63084 6.10535 8.52429 5.80669 8.32469C5.50803 8.12509 5.2753 7.8414 5.13795 7.50951C5.0006 7.17763 4.96481 6.81247 5.03509 6.46024C5.10538 6.10801 5.27858 5.78453 5.5328 5.53075C5.78701 5.27697 6.11081 5.10429 6.46321 5.03455C6.81562 4.96481 7.18079 5.00115 7.51253 5.13898C7.84427 5.27681 8.12766 5.50992 8.32685 5.80883C8.52604 6.10773 8.63207 6.45899 8.63153 6.81816C8.63262 7.05675 8.58638 7.29318 8.49548 7.51377C8.40459 7.73437 8.27084 7.93475 8.10197 8.10333C7.93311 8.27191 7.73248 8.40533 7.51171 8.49587C7.29093 8.58642 7.05439 8.63229 6.81576 8.63084ZM19.419 19.419H16.3973V14.0771C16.4097 13.8711 16.3799 13.6647 16.3096 13.4706C16.2392 13.2765 16.13 13.0989 15.9885 12.9486C15.8469 12.7983 15.6762 12.6786 15.4867 12.5967C15.2971 12.5149 15.0929 12.4727 14.8864 12.4727C14.68 12.4727 14.4757 12.5149 14.2862 12.5967C14.0967 12.6786 13.9259 12.7983 13.7844 12.9486C13.6429 13.0989 13.5336 13.2765 13.4633 13.4706C13.393 13.6647 13.3632 13.8711 13.3756 14.0771V19.419H10.3539V10.3556H13.3756V11.5668C13.6588 11.1533 14.0338 10.8107 14.4712 10.5658C14.9086 10.321 15.3967 10.1804 15.8973 10.1551C16.8269 10.1679 17.7148 10.5426 18.3724 11.1996C19.03 11.8565 19.4055 12.744 19.419 13.6734V19.419Z" fill="#333333"/>
<rect x="1" y="1" width="22" height="22" rx="6" stroke="#333333" stroke-width="2"/>
</svg>
