<svg width="36" height="36" viewBox="0 0 36 36" fill="none" xmlns="http://www.w3.org/2000/svg">
<rect width="36" height="36" fill="#333333"/>
<path d="M29.984 11.3779C29.0858 11.7812 28.1339 12.0449 27.1598 12.1603C28.1862 11.528 28.9541 10.5354 29.3209 9.36661C28.3558 9.95634 27.2992 10.372 26.1971 10.5955C25.4554 9.78463 24.4736 9.24734 23.4038 9.06695C22.334 8.88655 21.2361 9.07312 20.2803 9.59773C19.3244 10.1223 18.5641 10.9557 18.1171 11.9685C17.6702 12.9814 17.5616 14.1171 17.8083 15.1997C15.8528 15.0985 13.94 14.5773 12.1935 13.6699C10.447 12.7624 8.9058 11.4889 7.66977 9.9319C7.04108 11.0425 6.84851 12.3569 7.13123 13.6079C7.41396 14.8588 8.15074 15.9524 9.19174 16.6661C8.41026 16.6415 7.64591 16.4252 6.96272 16.0353V16.1009C6.9631 17.2659 7.35623 18.3949 8.07551 19.2968C8.79479 20.1986 9.79598 20.8177 10.9095 21.0491C10.4881 21.1695 10.0526 21.2301 9.61518 21.2294C9.30421 21.2288 8.99396 21.1986 8.68842 21.1393C9.00308 22.1417 9.61545 23.0182 10.4399 23.6462C11.2643 24.2742 12.2595 24.6222 13.2863 24.6416C11.5437 26.0459 9.39078 26.8078 7.17443 26.8044C6.78184 26.8048 6.38961 26.7802 6 26.7307C8.24885 28.2151 10.8675 29.003 13.5419 29C22.5939 29 27.5433 21.3113 27.5433 14.6631C27.5433 14.4419 27.5433 14.2248 27.5433 14.0077C28.508 13.2958 29.3401 12.412 30 11.3984L29.984 11.3779Z" fill="white"/>
</svg>
