<svg width="218" height="15" viewBox="0 0 218 15" fill="none" xmlns="http://www.w3.org/2000/svg">
<path d="M4.31475 10.1577C3.90382 10.1577 3.59563 10.1577 3.1847 10.1577V14.0109H0V1.1669C1.43825 1.0681 2.67104 0.969299 3.80109 0.969299C7.70492 0.969299 9.86229 2.9453 9.86229 5.61291C9.75956 8.28051 7.91038 10.1577 4.31475 10.1577ZM4.31475 3.7357C3.90382 3.7357 3.59563 3.7357 3.1847 3.8345V7.58891C3.59563 7.58891 3.80109 7.58891 4.10929 7.58891C5.75301 7.58891 6.57486 6.89731 6.57486 5.61291C6.57486 4.6249 5.85574 3.7357 4.31475 3.7357Z" fill="#333333"/>
<path d="M20.6491 14.1097L19.6218 11.7385H14.8961L13.8688 14.1097H10.6841L17.0535 0.969299H17.4644L23.8338 14.1097H20.6491ZM17.2589 6.20571L15.9234 9.36731H18.5945L17.2589 6.20571Z" fill="#333333"/>
<path d="M31.3328 10.1577C30.9219 10.1577 30.6137 10.1577 30.2028 10.1577V14.0109H27.0181V1.1669C28.4563 1.0681 29.6891 0.969299 30.8192 0.969299C34.723 0.969299 36.8804 2.9453 36.8804 5.61291C36.8804 8.28051 34.9284 10.1577 31.3328 10.1577ZM31.3328 3.7357C30.9219 3.7357 30.6137 3.7357 30.2028 3.8345V7.58891C30.6137 7.58891 30.8192 7.58891 31.1274 7.58891C32.7711 7.58891 33.5929 6.89731 33.5929 5.61291C33.5929 4.6249 32.8738 3.7357 31.3328 3.7357Z" fill="#333333"/>
<path d="M40.7842 14.1099V1.0683H49.4137V3.8347H43.9689V6.20591H48.9V8.87351H43.9689V11.4423H49.4137V14.2087H40.7842V14.1099Z" fill="#333333"/>
<path d="M61.5365 14.1097L59.1736 9.86131C58.9682 9.86131 58.8654 9.86131 58.66 9.86131C58.1463 9.86131 57.9408 9.86131 57.5299 9.86131V14.1097H54.3452V1.1669C55.4753 1.0681 56.7081 0.969299 58.3518 0.969299C62.5638 0.969299 64.2075 2.9453 64.2075 5.31651C64.2075 6.89731 63.3857 8.28051 61.8447 9.07091L65.0294 14.1097H61.5365ZM58.7627 3.6369C58.249 3.6369 57.9408 3.6369 57.5299 3.7357V7.29251C57.9408 7.29251 58.1463 7.39131 58.5572 7.39131C60.0982 7.39131 61.0228 6.69971 61.0228 5.41531C61.0228 4.2297 60.0982 3.6369 58.7627 3.6369Z" fill="#333333"/>
<path d="M75.9193 9.56511C75.9193 12.4303 74.6866 14.3075 71.0909 14.3075C69.6527 14.3075 68.5226 14.0111 67.3926 13.4183L68.4199 10.8495C69.139 11.3435 70.1663 11.5411 71.0909 11.5411C72.3237 11.5411 72.9401 10.7507 72.9401 9.26871V1.0683H76.1248V9.56511H75.9193Z" fill="#333333"/>
<path d="M87.9389 14.1097L86.9116 11.7385H82.1859L81.1586 14.1097H78.0767L84.4461 0.969299H84.857L91.2264 14.1097H87.9389ZM84.6515 6.20571L83.2133 9.36731H85.8843L84.6515 6.20571Z" fill="#333333"/>
<path d="M105.506 14.1097L105.3 7.68771L101.499 12.2325H101.191L97.4928 7.68771L97.3901 14.1097H94.3081L94.9245 0.969299H95.3354L101.499 8.37931L107.458 0.969299H107.869L108.485 14.1097H105.506Z" fill="#333333"/>
<path d="M121.019 8.37942V10.553H118.964V8.37942H116.807V6.50222H118.964V4.32861H121.019V6.50222H123.176V8.37942H121.019Z" fill="#333333"/>
<path d="M135.709 14.2085C134.168 14.2085 133.244 14.1097 131.6 14.0109V1.1669C133.141 0.969299 134.271 0.969299 135.607 0.969299C141.257 0.969299 143.825 3.7357 143.825 7.49011C143.825 11.2445 141.36 14.2085 135.709 14.2085ZM136.018 3.6369C135.504 3.6369 135.196 3.6369 134.682 3.7357V11.4421C135.298 11.5409 135.504 11.5409 136.223 11.5409C139.202 11.5409 140.538 9.96011 140.538 7.49011C140.538 5.02011 138.894 3.6369 136.018 3.6369Z" fill="#333333"/>
<path d="M148.14 14.1099V1.0683H156.769V3.8347H151.324V6.20591H156.255V8.87351H151.324V11.4423H156.769V14.2087H148.14V14.1099Z" fill="#333333"/>
<path d="M161.393 14.1099V1.0683H164.577V11.3435H170.022V14.1099H161.393Z" fill="#333333"/>
<path d="M181.836 14.1097L180.808 11.7385H176.083L175.055 14.1097H171.871L178.24 0.969299H178.651L185.02 14.1097H181.836ZM178.445 6.20571L177.11 9.36731H179.781L178.445 6.20571Z" fill="#333333"/>
<path d="M199.506 14.3081L191.288 7.29327V14.1105H188.103V0.871261L188.514 0.772461L196.63 7.78727V1.06886H199.814V14.3081H199.506Z" fill="#333333"/>
<path d="M211.011 14.3083C206.799 14.3083 204.128 11.4431 204.128 7.58987C204.128 3.73666 206.902 0.87146 211.114 0.87146C215.326 0.87146 217.997 3.73666 217.997 7.58987C218.1 11.3443 215.223 14.3083 211.011 14.3083ZM211.114 3.53906C208.957 3.53906 207.519 5.21867 207.519 7.58987C207.519 9.96107 208.957 11.6407 211.114 11.6407C213.272 11.6407 214.71 9.96107 214.71 7.58987C214.71 5.21867 213.272 3.53906 211.114 3.53906Z" fill="#333333"/>
</svg>
