<svg width="391" height="38" viewBox="0 0 391 38" fill="none" xmlns="http://www.w3.org/2000/svg">
<path d="M140.243 24.6568L136 20.4142L131.757 24.6568L130.343 23.2426L134.586 19L130.343 14.7573L131.757 13.3431L136 17.5857L140.243 13.3431L141.657 14.7573L137.414 19L141.657 23.2426L140.243 24.6568Z" fill="#333333"/>
<path d="M92.2005 37.7182H94.7782V36.8938H93.0753V35.8147H94.5469V34.9822H93.0753V34.0272H94.7782V33.2011H92.2005V37.7182ZM87.3943 37.7182H88.2756V33.1995H87.3943V36.2408L87.2084 35.9307L85.3712 33.1946H84.5012V37.7133H85.3858V34.69L85.5589 34.9871L87.3943 37.7182ZM80.9257 37.7182L79.9554 35.8653C80.1921 35.7635 80.3928 35.5921 80.5315 35.3734C80.6702 35.1547 80.7405 34.8989 80.7333 34.6394C80.7333 33.779 80.1203 33.1995 79.1613 33.1995H77.7852V37.7182H78.6616V36.0253H79.0578L79.9279 37.7182H80.9257ZM79.8325 34.6394C79.8325 35.0394 79.5705 35.2384 79.1613 35.2384H78.6568V34.0256H79.1613C79.5705 34.0256 79.8325 34.2312 79.8325 34.6394ZM71.4233 37.7182H74.001V36.8938H72.2997V35.8147H73.7714V34.9822H72.2997V34.0272H74.001V33.2011H71.4233V37.7182ZM67.7265 35.4589C67.7265 34.1219 66.8257 33.1995 65.4123 33.1995H63.737V37.7182H65.4123C66.8257 37.7182 67.7265 36.7959 67.7265 35.4589ZM66.8128 35.4589C66.8128 36.3682 66.3001 36.8922 65.4123 36.8922H64.6118V34.0256H65.4123C66.3066 34.0256 66.8128 34.5545 66.8128 35.4589ZM65.3897 27.5218H66.3438V0H65.3897V27.5218ZM64.1121 27.5218H64.7493V0.652988H64.1121V27.5218ZM60.9312 27.5218H62.841V1.28149H60.9312V27.5218ZM59.6552 27.5218H60.2907V0.0114273H59.6552V27.5218ZM60.0401 35.4524C60.0401 34.1023 59.0812 33.1146 57.7244 33.1146C56.3676 33.1146 55.4037 34.1023 55.4037 35.4524C55.4037 36.8024 56.3627 37.8015 57.7244 37.8015C59.086 37.8015 60.0401 36.8089 60.0401 35.4524ZM59.1265 35.4524C59.1265 36.3306 58.5701 36.977 57.7244 36.977C56.8786 36.977 56.3175 36.3241 56.3175 35.4524C56.3175 34.5806 56.8738 33.9407 57.7244 33.9407C58.575 33.9407 59.1265 34.5806 59.1265 35.4524ZM58.0559 27.5218H59.01V0.94357H58.0559V27.5218ZM53.4454 27.5218L57.4348 5.57815L56.8091 5.46388L52.8244 27.4108L53.4454 27.5218ZM50.0655 27.5104L57.409 1.16231L55.5639 0.652988L48.2332 26.9961L50.0655 27.5104ZM49.2101 36.1102L47.9308 33.1995H46.9202V37.7182H47.7966V34.8581L47.9244 35.2516L48.9416 37.7182H49.6838L50.701 35.2516L50.8288 34.8581V37.7182H51.7102V33.1995H50.6946L49.4009 36.1102L49.299 36.3746L49.2101 36.1102ZM45.7203 27.4973L47.5573 26.9733L40.7846 3.03313L38.9476 3.55715L45.7203 27.4973ZM45.0087 27.3341L37.9498 2.38504L37.3369 2.55971L44.3974 27.5088L45.0087 27.3341ZM34.8077 27.512H36.7095V1.28149H34.8012L34.8077 27.512ZM33.5236 27.512H34.1607V0.633398H33.5236V27.512ZM31.9404 27.512H32.8913V1.90346H31.9404V27.512ZM31.9145 35.454C31.9145 34.104 30.9572 33.1162 29.6004 33.1162C28.2436 33.1162 27.2782 34.104 27.2782 35.454C27.2782 36.8041 28.2372 37.8031 29.6004 37.8031C30.9636 37.8031 31.9145 36.8105 31.9145 35.454ZM31.0009 35.454C31.0009 36.3323 30.4446 36.9787 29.6004 36.9787C28.7562 36.9787 28.1919 36.3257 28.1919 35.454C28.1919 34.5822 28.7498 33.9423 29.6004 33.9423C30.4511 33.9423 31.0009 34.5822 31.0009 35.454ZM29.7071 27.512H30.6612V0.618706H29.7071V27.512ZM28.4345 27.512H29.07V0H28.4345V27.512ZM21.7701 34.388C21.7648 34.3204 21.7745 34.2525 21.7984 34.1893C21.8223 34.126 21.8598 34.0688 21.9082 34.022C21.9566 33.9751 22.0148 33.9397 22.0785 33.9183C22.1421 33.8969 22.2097 33.89 22.2763 33.8982C22.3498 33.8953 22.4229 33.908 22.4912 33.9355C22.5596 33.963 22.6214 34.0046 22.6727 34.0577C22.7241 34.1107 22.7639 34.1741 22.7894 34.2436C22.815 34.3132 22.8259 34.3874 22.8213 34.4614H23.7091C23.6703 33.5636 23.1334 33.1114 22.2958 33.1114C21.4127 33.1114 20.8823 33.6729 20.8823 34.4614C20.8823 35.2173 21.3561 35.578 22.168 35.8425C22.7243 36.0302 22.962 36.2049 22.962 36.5086C22.962 36.8122 22.7437 37.0179 22.3733 37.0179C21.9254 37.0179 21.6877 36.7779 21.6683 36.3339H20.7805C20.8063 37.1909 21.3368 37.8031 22.3604 37.8031C23.2045 37.8031 23.8498 37.3134 23.8498 36.4351C23.8498 35.7576 23.5118 35.356 22.5561 35.0344C22.0127 34.8402 21.7685 34.7308 21.7685 34.3814L21.7701 34.388ZM16.2023 37.7133H17.0788V33.1995H16.2023V37.7133ZM11.7583 37.7133H12.7108L10.9773 33.1995H10.007L8.27822 37.7182H9.23076L9.60266 36.7175H11.3816L11.7583 37.7133ZM11.1115 35.9371H9.88248L10.4145 34.5235L10.4986 34.2721L10.5811 34.5235L11.1115 35.9371ZM3.91513 37.7133H4.79649V33.1995H3.77282L2.48718 36.1102L2.3853 36.3746L2.28989 36.1102L1.0091 33.1995H0V37.7182H0.874881V34.8581L1.00264 35.2516L2.02144 37.7182H2.7621L3.77929 35.2516L3.90866 34.8581L3.91513 37.7133ZM38.5094 33.1946V36.2408L38.3233 35.9307L36.4879 33.1946H35.6178V37.7133H36.4944V34.69L36.6673 34.9871L38.5094 37.7182H39.3907V33.1995L38.5094 33.1946Z" fill="#333333"/>
<path d="M98.0292 32.6282C97.8366 32.6282 97.6494 32.6857 97.49 32.7933C97.3298 32.9009 97.2056 33.0539 97.1327 33.2329C97.0589 33.4118 97.04 33.6087 97.0769 33.7988C97.1147 33.9888 97.2065 34.1633 97.3424 34.3003C97.4783 34.4373 97.6512 34.5305 97.8393 34.5683C98.0274 34.6061 98.2227 34.5867 98.4 34.5126C98.5773 34.4385 98.7285 34.3129 98.8356 34.1518C98.9418 33.9908 98.9994 33.8014 98.9994 33.6076C99.003 33.478 98.9805 33.349 98.9328 33.2284C98.8851 33.1078 98.814 32.9982 98.7231 32.9065C98.6322 32.8148 98.5242 32.7428 98.4045 32.6949C98.2848 32.647 98.157 32.6244 98.0292 32.6282ZM98.0292 34.4729C97.8582 34.4761 97.6908 34.4281 97.5476 34.3351C97.4045 34.2419 97.292 34.1079 97.2245 33.95C97.157 33.7921 97.1372 33.6175 97.1678 33.4483C97.1993 33.2792 97.2794 33.1232 97.3982 33.0003C97.5179 32.8773 97.6701 32.7928 97.8375 32.7577C98.004 32.7226 98.1768 32.7382 98.3352 32.8028C98.4927 32.8675 98.6286 32.978 98.724 33.1205C98.8194 33.2629 98.8707 33.4308 98.8716 33.6028C98.8788 33.7174 98.8626 33.8323 98.823 33.94C98.7834 34.0478 98.7222 34.1459 98.643 34.228C98.5629 34.3101 98.4675 34.3744 98.3613 34.4166C98.256 34.4588 98.1426 34.478 98.0292 34.4729Z" fill="#333333"/>
<path d="M98.4478 33.9258L98.4253 33.7904C98.4118 33.6777 98.3587 33.6271 98.1724 33.6059V33.5798C98.3893 33.5308 98.4577 33.4671 98.4577 33.3316C98.4577 33.1962 98.3506 33.077 98.0464 33.077H97.5757V33.1651C97.7008 33.1651 97.7377 33.188 97.7377 33.2337V33.9439C97.7377 33.9928 97.6972 34.0107 97.5757 34.0157V34.1005H98.0743V34.0157C97.9501 34.0157 97.9222 33.9928 97.9222 33.9439V33.6418H97.9996C98.1877 33.6418 98.2363 33.6908 98.2408 33.8051V33.9178C98.2408 34.0532 98.2894 34.1152 98.4946 34.1152H98.6017V34.0271C98.4847 34.0255 98.4577 33.9977 98.4478 33.9258ZM97.9222 33.5521V33.1749H98.0338C98.1859 33.1749 98.2615 33.2239 98.2615 33.3463C98.2615 33.4688 98.194 33.5521 98.0338 33.5521H97.9222Z" fill="#333333"/>
<path d="M177.315 23.1577C176.904 23.1577 176.596 23.1577 176.185 23.1577V27.0109H173V14.1669C174.438 14.0681 175.671 13.9693 176.801 13.9693C180.705 13.9693 182.862 15.9453 182.862 18.6129C182.76 21.2805 180.91 23.1577 177.315 23.1577ZM177.315 16.7357C176.904 16.7357 176.596 16.7357 176.185 16.8345V20.5889C176.596 20.5889 176.801 20.5889 177.109 20.5889C178.753 20.5889 179.575 19.8973 179.575 18.6129C179.575 17.6249 178.856 16.7357 177.315 16.7357Z" fill="#333333"/>
<path d="M193.649 27.1097L192.622 24.7385H187.896L186.869 27.1097H183.684L190.053 13.9693H190.464L196.834 27.1097H193.649ZM190.259 19.2057L188.923 22.3673H191.594L190.259 19.2057Z" fill="#333333"/>
<path d="M204.333 23.1577C203.922 23.1577 203.614 23.1577 203.203 23.1577V27.0109H200.018V14.1669C201.456 14.0681 202.689 13.9693 203.819 13.9693C207.723 13.9693 209.88 15.9453 209.88 18.6129C209.88 21.2805 207.928 23.1577 204.333 23.1577ZM204.333 16.7357C203.922 16.7357 203.614 16.7357 203.203 16.8345V20.5889C203.614 20.5889 203.819 20.5889 204.127 20.5889C205.771 20.5889 206.593 19.8973 206.593 18.6129C206.593 17.6249 205.874 16.7357 204.333 16.7357Z" fill="#333333"/>
<path d="M213.784 27.1099V14.0683H222.414V16.8347H216.969V19.2059H221.9V21.8735H216.969V24.4423H222.414V27.2087H213.784V27.1099Z" fill="#333333"/>
<path d="M234.536 27.1097L232.174 22.8613C231.968 22.8613 231.865 22.8613 231.66 22.8613C231.146 22.8613 230.941 22.8613 230.53 22.8613V27.1097H227.345V14.1669C228.475 14.0681 229.708 13.9693 231.352 13.9693C235.564 13.9693 237.208 15.9453 237.208 18.3165C237.208 19.8973 236.386 21.2805 234.845 22.0709L238.029 27.1097H234.536ZM231.763 16.6369C231.249 16.6369 230.941 16.6369 230.53 16.7357V20.2925C230.941 20.2925 231.146 20.3913 231.557 20.3913C233.098 20.3913 234.023 19.6997 234.023 18.4153C234.023 17.2297 233.098 16.6369 231.763 16.6369Z" fill="#333333"/>
<path d="M248.919 22.5651C248.919 25.4303 247.687 27.3075 244.091 27.3075C242.653 27.3075 241.523 27.0111 240.393 26.4183L241.42 23.8495C242.139 24.3435 243.166 24.5411 244.091 24.5411C245.324 24.5411 245.94 23.7507 245.94 22.2687V14.0683H249.125V22.5651H248.919Z" fill="#333333"/>
<path d="M260.939 27.1097L259.912 24.7385H255.186L254.159 27.1097H251.077L257.446 13.9693H257.857L264.226 27.1097H260.939ZM257.652 19.2057L256.213 22.3673H258.884L257.652 19.2057Z" fill="#333333"/>
<path d="M278.506 27.1097L278.3 20.6877L274.499 25.2325H274.191L270.493 20.6877L270.39 27.1097H267.308L267.924 13.9693H268.335L274.499 21.3793L280.458 13.9693H280.869L281.485 27.1097H278.506Z" fill="#333333"/>
<path d="M294.019 21.3794V23.553H291.964V21.3794H289.807V19.5022H291.964V17.3286H294.019V19.5022H296.176V21.3794H294.019V21.3794Z" fill="#333333"/>
<path d="M308.709 27.2085C307.168 27.2085 306.244 27.1097 304.6 27.0109V14.1669C306.141 13.9693 307.271 13.9693 308.607 13.9693C314.257 13.9693 316.825 16.7357 316.825 20.4901C316.825 24.2445 314.36 27.2085 308.709 27.2085ZM309.018 16.6369C308.504 16.6369 308.196 16.6369 307.682 16.7357V24.4421C308.298 24.5409 308.504 24.5409 309.223 24.5409C312.202 24.5409 313.538 22.9601 313.538 20.4901C313.538 18.0201 311.894 16.6369 309.018 16.6369Z" fill="#333333"/>
<path d="M321.14 27.1099V14.0683H329.769V16.8347H324.324V19.2059H329.255V21.8735H324.324V24.4423H329.769V27.2087H321.14V27.1099Z" fill="#333333"/>
<path d="M334.393 27.1099V14.0683H337.577V24.3435H343.022V27.1099H334.393Z" fill="#333333"/>
<path d="M354.836 27.1097L353.808 24.7385H349.083L348.055 27.1097H344.871L351.24 13.9693H351.651L358.02 27.1097H354.836ZM351.445 19.2057L350.11 22.3673H352.781L351.445 19.2057Z" fill="#333333"/>
<path d="M372.506 27.3081L364.288 20.2933V27.1105H361.103V13.8713L361.514 13.7725L369.63 20.7873V14.0689H372.814V27.3081H372.506Z" fill="#333333"/>
<path d="M384.011 27.3083C379.799 27.3083 377.128 24.4431 377.128 20.5899C377.128 16.7367 379.902 13.8715 384.114 13.8715C388.326 13.8715 390.997 16.7367 390.997 20.5899C391.1 24.3443 388.223 27.3083 384.011 27.3083ZM384.114 16.5391C381.957 16.5391 380.519 18.2187 380.519 20.5899C380.519 22.9611 381.957 24.6407 384.114 24.6407C386.272 24.6407 387.71 22.9611 387.71 20.5899C387.71 18.2187 386.272 16.5391 384.114 16.5391Z" fill="#333333"/>
</svg>
