<svg width="152" height="58" viewBox="0 0 152 58" fill="none" xmlns="http://www.w3.org/2000/svg">
<path d="M141.46 57.8698H145.415V56.6049H142.802V54.9493H145.06V53.672H142.802V52.2067H145.415V50.9394H141.46V57.8698ZM134.086 57.8698H135.438V50.9369H134.086V55.603L133.801 55.1272L130.982 50.9294H129.647V57.8622H131.005V53.2236L131.27 53.6795L134.086 57.8698ZM124.161 57.8698L122.673 55.0269C123.036 54.8708 123.344 54.6077 123.557 54.2721C123.77 53.9367 123.877 53.5443 123.866 53.146C123.866 51.826 122.926 50.9369 121.455 50.9369H119.343V57.8698H120.688V55.2725H121.296L122.631 57.8698H124.161ZM122.484 53.146C122.484 53.7597 122.082 54.0651 121.455 54.0651H120.68V52.2043H121.455C122.082 52.2043 122.484 52.5198 122.484 53.146ZM109.582 57.8698H113.537V56.6049H110.927V54.9493H113.185V53.672H110.927V52.2067H113.537V50.9394H109.582V57.8698ZM103.91 54.4033C103.91 52.352 102.528 50.9369 100.36 50.9369H97.7895V57.8698H100.36C102.528 57.8698 103.91 56.4546 103.91 54.4033ZM102.509 54.4033C102.509 55.7984 101.722 56.6024 100.36 56.6024H99.1317V52.2043H100.36C101.732 52.2043 102.509 53.0158 102.509 54.4033ZM100.325 42.2258H101.789V0H100.325V42.2258ZM98.365 42.2258H99.3426V1.00186H98.365V42.2258ZM93.4847 42.2258H96.4148V1.96614H93.4847V42.2258ZM91.527 42.2258H92.502V0.0175325H91.527V42.2258ZM92.1175 54.3934C92.1175 52.322 90.6462 50.8067 88.5645 50.8067C86.4829 50.8067 85.0041 52.322 85.0041 54.3934C85.0041 56.4647 86.4754 57.9975 88.5645 57.9975C90.6536 57.9975 92.1175 56.4747 92.1175 54.3934ZM90.7157 54.3934C90.7157 55.7409 89.8622 56.7326 88.5645 56.7326C87.2669 56.7326 86.4059 55.7308 86.4059 54.3934C86.4059 53.0559 87.2595 52.074 88.5645 52.074C89.8696 52.074 90.7157 53.0559 90.7157 54.3934ZM89.0731 42.2258H90.537V1.44769H89.0731V42.2258ZM81.9994 42.2258L88.1203 8.55836L87.1602 8.38304L81.0467 42.0555L81.9994 42.2258ZM76.8138 42.2082L88.0807 1.7833L85.2497 1.00186L74.0026 41.4192L76.8138 42.2082ZM75.5013 55.4027L73.5386 50.9369H71.988V57.8698H73.3328V53.4816L73.5287 54.0853L75.0894 57.8698H76.2282L77.7889 54.0853L77.9848 53.4816V57.8698H79.3371V50.9369H77.7789L75.7941 55.4027L75.6377 55.8084L75.5013 55.4027ZM70.147 42.1882L72.9656 41.3843L62.5745 4.65362L59.7559 5.45762L70.147 42.1882ZM69.0553 41.9377L58.2251 3.65928L57.2847 3.92727L68.1174 42.2058L69.0553 41.9377ZM53.4042 42.2107H56.3221V1.96614H53.3943L53.4042 42.2107ZM51.4341 42.2107H52.4117V0.971801H51.4341V42.2107ZM49.0051 42.2107H50.4641V2.92041H49.0051V42.2107ZM48.9654 54.3959C48.9654 52.3245 47.4965 50.8091 45.415 50.8091C43.3333 50.8091 41.852 52.3245 41.852 54.3959C41.852 56.4672 43.3233 58 45.415 58C47.5065 58 48.9654 56.4772 48.9654 54.3959ZM47.5636 54.3959C47.5636 55.7433 46.7101 56.7351 45.415 56.7351C44.1197 56.7351 43.2539 55.7333 43.2539 54.3959C43.2539 53.0583 44.1099 52.0765 45.415 52.0765C46.72 52.0765 47.5636 53.0583 47.5636 54.3959ZM45.5786 42.2107H47.0425V0.949259H45.5786V42.2107ZM43.626 42.2107H44.6011V0H43.626V42.2107ZM33.4012 52.7603C33.393 52.6566 33.4078 52.5525 33.4445 52.4554C33.4811 52.3584 33.5387 52.2707 33.613 52.1987C33.6873 52.1268 33.7765 52.0725 33.8743 52.0397C33.9719 52.0068 34.0756 51.9963 34.1778 52.0089C34.2905 52.0044 34.4027 52.0239 34.5076 52.066C34.6124 52.1083 34.7072 52.1721 34.7859 52.2536C34.8648 52.3349 34.9258 52.4321 34.965 52.5388C35.0043 52.6456 35.021 52.7594 35.0139 52.873H36.376C36.3165 51.4954 35.4928 50.8017 34.2076 50.8017C32.8528 50.8017 32.0391 51.6632 32.0391 52.873C32.0391 54.0327 32.766 54.5862 34.0115 54.9919C34.8651 55.2799 35.2298 55.5479 35.2298 56.0139C35.2298 56.4796 34.8949 56.7953 34.3267 56.7953C33.6394 56.7953 33.2747 56.427 33.2449 55.7458H31.8828C31.9224 57.0607 32.7363 58 34.3068 58C35.6019 58 36.5919 57.2487 36.5919 55.9012C36.5919 54.8616 36.0734 54.2455 34.607 53.7521C33.7733 53.4541 33.3987 53.2863 33.3987 52.7503L33.4012 52.7603ZM24.8586 57.8622H26.2034V50.9369H24.8586V57.8622ZM18.0404 57.8622H19.5018L16.8421 50.9369H15.3533L12.701 57.8698H14.1624L14.733 56.3344H17.4624L18.0404 57.8622ZM17.048 55.1371H15.1623L15.9786 52.9682L16.1076 52.5825L16.2342 52.9682L17.048 55.1371ZM6.00686 57.8622H7.35908V50.9369H5.78851L3.816 55.4027L3.65968 55.8084L3.5133 55.4027L1.54823 50.9369H0V57.8698H1.3423V53.4816L1.53832 54.0853L3.10143 57.8698H4.2378L5.79844 54.0853L5.99693 53.4816L6.00686 57.8622ZM59.0836 50.9294V55.603L58.7982 55.1272L55.9821 50.9294H54.6472V57.8622H55.992V53.2236L56.2575 53.6795L59.0836 57.8698H60.4358V50.9369L59.0836 50.9294Z" fill="#333333"/>
<path d="M150.403 50.0604C150.108 50.0604 149.82 50.1485 149.576 50.3137C149.33 50.4788 149.14 50.7134 149.028 50.9881C148.915 51.2626 148.886 51.5647 148.942 51.8564C149 52.1479 149.141 52.4157 149.349 52.6258C149.558 52.836 149.823 52.9791 150.112 53.0371C150.4 53.0951 150.7 53.0652 150.972 52.9516C151.244 52.8378 151.476 52.6452 151.64 52.398C151.803 52.1509 151.892 51.8604 151.892 51.5631C151.897 51.3642 151.863 51.1662 151.79 50.9812C151.716 50.7961 151.607 50.6281 151.468 50.4874C151.328 50.3467 151.163 50.2362 150.979 50.1627C150.795 50.0893 150.599 50.0545 150.403 50.0604ZM150.403 52.8905C150.141 52.8955 149.884 52.8219 149.664 52.6791C149.445 52.5362 149.272 52.3306 149.169 52.0884C149.065 51.846 149.035 51.5781 149.082 51.3187C149.13 51.0592 149.253 50.8199 149.435 50.6313C149.619 50.4425 149.852 50.313 150.109 50.259C150.364 50.2051 150.63 50.2291 150.873 50.3283C151.114 50.4274 151.323 50.597 151.469 50.8156C151.616 51.0342 151.694 51.2917 151.696 51.5556C151.707 51.7314 151.682 51.9078 151.621 52.0731C151.56 52.2383 151.466 52.3889 151.345 52.5149C151.222 52.6409 151.076 52.7395 150.913 52.8042C150.751 52.869 150.577 52.8984 150.403 52.8905Z" fill="#333333"/>
<path d="M151.045 52.0513L151.011 51.8435C150.99 51.6706 150.908 51.593 150.622 51.5604V51.5203C150.955 51.4452 151.06 51.3474 151.06 51.1396C151.06 50.9318 150.896 50.749 150.429 50.749H149.707V50.8842C149.899 50.8842 149.956 50.9192 149.956 50.9894V52.0789C149.956 52.154 149.893 52.1815 149.707 52.1891V52.3193H150.472V52.1891C150.281 52.1891 150.239 52.154 150.239 52.0789V51.6155H150.357C150.646 51.6155 150.721 51.6906 150.727 51.866V52.0389C150.727 52.2467 150.802 52.3418 151.117 52.3418H151.281V52.2066C151.102 52.2041 151.06 52.1615 151.045 52.0513ZM150.239 51.4778V50.8992H150.41C150.643 50.8992 150.759 50.9743 150.759 51.1621C150.759 51.3501 150.656 51.4778 150.41 51.4778H150.239Z" fill="#333333"/>
</svg>
