<svg width="211" height="14" viewBox="0 0 211 14" fill="none" xmlns="http://www.w3.org/2000/svg">
<path d="M4.42042 9.07032C4.02328 9.07032 3.72542 9.07032 3.32828 9.07032V12.7942H0.250427V0.381156C1.64042 0.285671 2.83185 0.190186 3.92399 0.190186C7.69684 0.190186 9.78183 2.09989 9.78183 4.678C9.68255 7.2561 7.89541 9.07032 4.42042 9.07032ZM4.42042 2.86377C4.02328 2.86377 3.72542 2.86377 3.32828 2.95926V6.5877C3.72542 6.5877 3.92399 6.5877 4.22185 6.5877C5.81041 6.5877 6.6047 5.9193 6.6047 4.678C6.6047 3.72314 5.9097 2.86377 4.42042 2.86377Z" fill="#333333"/>
<path d="M20.2065 12.8897L19.2136 10.5981H14.6465L13.6537 12.8897H10.5758L16.7315 0.190186H17.1286L23.2843 12.8897H20.2065ZM16.9301 5.25091L15.6394 8.30644H18.2208L16.9301 5.25091Z" fill="#333333"/>
<path d="M30.5319 9.07032C30.1348 9.07032 29.8369 9.07032 29.4398 9.07032V12.7942H26.3619V0.381156C27.7519 0.285671 28.9434 0.190186 30.0355 0.190186C33.8084 0.190186 35.8933 2.09989 35.8933 4.678C35.8933 7.2561 34.0069 9.07032 30.5319 9.07032ZM30.5319 2.86377C30.1348 2.86377 29.8369 2.86377 29.4398 2.95926V6.5877C29.8369 6.5877 30.0355 6.5877 30.3334 6.5877C31.9219 6.5877 32.7162 5.9193 32.7162 4.678C32.7162 3.72314 32.0212 2.86377 30.5319 2.86377Z" fill="#333333"/>
<path d="M39.6662 12.89V0.285889H48.0062V2.95948H42.744V5.25113H47.5098V7.82923H42.744V10.3118H48.0062V12.9854H39.6662V12.89Z" fill="#333333"/>
<path d="M59.7221 12.8897L57.4385 8.78386C57.2399 8.78386 57.1407 8.78386 56.9421 8.78386C56.4457 8.78386 56.2471 8.78386 55.8499 8.78386V12.8897H52.7721V0.381156C53.8642 0.285671 55.0557 0.190186 56.6442 0.190186C60.7149 0.190186 62.3035 2.09989 62.3035 4.39154C62.3035 5.91931 61.5092 7.2561 60.0199 8.01998L63.0978 12.8897H59.7221ZM57.0414 2.76829C56.5449 2.76829 56.2471 2.76829 55.8499 2.86377V6.30125C56.2471 6.30125 56.4457 6.39673 56.8428 6.39673C58.3321 6.39673 59.2257 5.72833 59.2257 4.48703C59.2257 3.3412 58.3321 2.76829 57.0414 2.76829Z" fill="#333333"/>
<path d="M73.6221 8.49763C73.6221 11.2667 72.4307 13.0809 68.9557 13.0809C67.5657 13.0809 66.4735 12.7945 65.3814 12.2216L66.3743 9.73894C67.0693 10.2164 68.0621 10.4073 68.9557 10.4073C70.1471 10.4073 70.7428 9.64345 70.7428 8.21117V0.285889H73.8207V8.49763H73.6221Z" fill="#333333"/>
<path d="M85.2382 12.8897L84.2454 10.5981H79.6782L78.6854 12.8897H75.7068L81.8625 0.190186H82.2597L88.4154 12.8897H85.2382ZM82.0611 5.25091L80.6711 8.30644H83.2525L82.0611 5.25091Z" fill="#333333"/>
<path d="M102.216 12.8897L102.017 6.68319L98.3435 11.0755H98.0456L94.4713 6.68319L94.3721 12.8897H91.3935L91.9892 0.190186H92.3863L98.3435 7.35159L104.102 0.190186H104.499L105.095 12.8897H102.216Z" fill="#333333"/>
<path d="M117.208 7.35167V9.45234H115.222V7.35167H113.137V5.53745H115.222V3.43677H117.208V5.53745H119.293V7.35167H117.208Z" fill="#333333"/>
<path d="M131.406 12.9852C129.916 12.9852 129.023 12.8897 127.434 12.7943V0.381156C128.923 0.190186 130.016 0.190186 131.306 0.190186C136.767 0.190186 139.249 2.86378 139.249 6.49222C139.249 10.1207 136.866 12.9852 131.406 12.9852ZM131.703 2.76829C131.207 2.76829 130.909 2.76829 130.413 2.86378V10.3116C131.008 10.4071 131.207 10.4071 131.902 10.4071C134.781 10.4071 136.072 8.87935 136.072 6.49222C136.072 4.10508 134.483 2.76829 131.703 2.76829Z" fill="#333333"/>
<path d="M143.419 12.89V0.285889H151.759V2.95948H146.497V5.25113H151.262V7.82923H146.497V10.3118H151.759V12.9854H143.419V12.89Z" fill="#333333"/>
<path d="M156.227 12.89V0.285889H159.305V10.2164H164.567V12.89H156.227Z" fill="#333333"/>
<path d="M175.984 12.8897L174.991 10.5981H170.424L169.431 12.8897H166.353L172.509 0.190186H172.906L179.062 12.8897H175.984ZM172.708 5.25091L171.417 8.30644H173.998L172.708 5.25091Z" fill="#333333"/>
<path d="M193.062 13.0815L185.119 6.30203V12.8905H182.041V0.0954853L182.438 0L190.282 6.77946V0.286456H193.359V13.0815H193.062Z" fill="#333333"/>
<path d="M204.181 13.0817C200.11 13.0817 197.529 10.3126 197.529 6.58871C197.529 2.86478 200.209 0.0957031 204.28 0.0957031C208.351 0.0957031 210.932 2.86478 210.932 6.58871C211.031 10.2171 208.251 13.0817 204.181 13.0817ZM204.28 2.67381C202.195 2.67381 200.805 4.29706 200.805 6.58871C200.805 8.88035 202.195 10.5036 204.28 10.5036C206.365 10.5036 207.755 8.88035 207.755 6.58871C207.755 4.29706 206.365 2.67381 204.28 2.67381Z" fill="#333333"/>
</svg>
