<svg width="391" height="38" viewBox="0 0 391 38" fill="none" xmlns="http://www.w3.org/2000/svg">
<path d="M92.2005 37.7182H94.7782V36.8938H93.0753V35.8147H94.5469V34.9822H93.0753V34.0272H94.7782V33.2011H92.2005V37.7182ZM87.3943 37.7182H88.2756V33.1995H87.3943V36.2408L87.2084 35.9307L85.3712 33.1946H84.5012V37.7133H85.3858V34.69L85.5589 34.9871L87.3943 37.7182ZM80.9257 37.7182L79.9554 35.8653C80.1921 35.7635 80.3928 35.5921 80.5315 35.3734C80.6702 35.1547 80.7405 34.8989 80.7333 34.6394C80.7333 33.779 80.1203 33.1995 79.1613 33.1995H77.7852V37.7182H78.6616V36.0253H79.0578L79.9279 37.7182H80.9257ZM79.8325 34.6394C79.8325 35.0394 79.5705 35.2384 79.1613 35.2384H78.6568V34.0256H79.1613C79.5705 34.0256 79.8325 34.2312 79.8325 34.6394ZM71.4233 37.7182H74.001V36.8938H72.2997V35.8147H73.7714V34.9822H72.2997V34.0272H74.001V33.2011H71.4233V37.7182ZM67.7265 35.4589C67.7265 34.1219 66.8257 33.1995 65.4123 33.1995H63.737V37.7182H65.4123C66.8257 37.7182 67.7265 36.7959 67.7265 35.4589ZM66.8128 35.4589C66.8128 36.3682 66.3001 36.8922 65.4123 36.8922H64.6118V34.0256H65.4123C66.3066 34.0256 66.8128 34.5545 66.8128 35.4589ZM65.3897 27.5218H66.3438V0H65.3897V27.5218ZM64.1121 27.5218H64.7493V0.652988H64.1121V27.5218ZM60.9312 27.5218H62.841V1.28149H60.9312V27.5218ZM59.6552 27.5218H60.2907V0.0114273H59.6552V27.5218ZM60.0401 35.4524C60.0401 34.1023 59.0812 33.1146 57.7244 33.1146C56.3676 33.1146 55.4037 34.1023 55.4037 35.4524C55.4037 36.8024 56.3627 37.8015 57.7244 37.8015C59.086 37.8015 60.0401 36.8089 60.0401 35.4524ZM59.1265 35.4524C59.1265 36.3306 58.5701 36.977 57.7244 36.977C56.8786 36.977 56.3175 36.3241 56.3175 35.4524C56.3175 34.5806 56.8738 33.9407 57.7244 33.9407C58.575 33.9407 59.1265 34.5806 59.1265 35.4524ZM58.0559 27.5218H59.01V0.94357H58.0559V27.5218ZM53.4454 27.5218L57.4348 5.57815L56.8091 5.46388L52.8244 27.4108L53.4454 27.5218ZM50.0655 27.5104L57.409 1.16231L55.5639 0.652988L48.2332 26.9961L50.0655 27.5104ZM49.2101 36.1102L47.9308 33.1995H46.9202V37.7182H47.7966V34.8581L47.9244 35.2516L48.9416 37.7182H49.6838L50.701 35.2516L50.8288 34.8581V37.7182H51.7102V33.1995H50.6946L49.4009 36.1102L49.299 36.3746L49.2101 36.1102ZM45.7203 27.4973L47.5573 26.9733L40.7846 3.03313L38.9476 3.55715L45.7203 27.4973ZM45.0087 27.3341L37.9498 2.38504L37.3369 2.55971L44.3974 27.5088L45.0087 27.3341ZM34.8077 27.512H36.7095V1.28149H34.8012L34.8077 27.512ZM33.5236 27.512H34.1607V0.633398H33.5236V27.512ZM31.9404 27.512H32.8913V1.90346H31.9404V27.512ZM31.9145 35.454C31.9145 34.104 30.9572 33.1162 29.6004 33.1162C28.2436 33.1162 27.2782 34.104 27.2782 35.454C27.2782 36.8041 28.2372 37.8031 29.6004 37.8031C30.9636 37.8031 31.9145 36.8105 31.9145 35.454ZM31.0009 35.454C31.0009 36.3323 30.4446 36.9787 29.6004 36.9787C28.7562 36.9787 28.1919 36.3257 28.1919 35.454C28.1919 34.5822 28.7498 33.9423 29.6004 33.9423C30.4511 33.9423 31.0009 34.5822 31.0009 35.454ZM29.7071 27.512H30.6612V0.618706H29.7071V27.512ZM28.4345 27.512H29.07V0H28.4345V27.512ZM21.7701 34.388C21.7648 34.3204 21.7745 34.2525 21.7984 34.1893C21.8223 34.126 21.8598 34.0688 21.9082 34.022C21.9566 33.9751 22.0148 33.9397 22.0785 33.9183C22.1421 33.8969 22.2097 33.89 22.2763 33.8982C22.3498 33.8953 22.4229 33.908 22.4912 33.9355C22.5596 33.963 22.6214 34.0046 22.6727 34.0577C22.7241 34.1107 22.7639 34.1741 22.7894 34.2436C22.815 34.3132 22.8259 34.3874 22.8213 34.4614H23.7091C23.6703 33.5636 23.1334 33.1114 22.2958 33.1114C21.4127 33.1114 20.8823 33.6729 20.8823 34.4614C20.8823 35.2173 21.3561 35.578 22.168 35.8425C22.7243 36.0302 22.962 36.2049 22.962 36.5086C22.962 36.8122 22.7437 37.0179 22.3733 37.0179C21.9254 37.0179 21.6877 36.7779 21.6683 36.3339H20.7805C20.8063 37.1909 21.3368 37.8031 22.3604 37.8031C23.2045 37.8031 23.8498 37.3134 23.8498 36.4351C23.8498 35.7576 23.5118 35.356 22.5561 35.0344C22.0127 34.8402 21.7685 34.7308 21.7685 34.3814L21.7701 34.388ZM16.2023 37.7133H17.0788V33.1995H16.2023V37.7133ZM11.7583 37.7133H12.7108L10.9773 33.1995H10.007L8.27822 37.7182H9.23076L9.60266 36.7175H11.3816L11.7583 37.7133ZM11.1115 35.9371H9.88248L10.4145 34.5235L10.4986 34.2721L10.5811 34.5235L11.1115 35.9371ZM3.91513 37.7133H4.79649V33.1995H3.77282L2.48718 36.1102L2.3853 36.3746L2.28989 36.1102L1.0091 33.1995H0V37.7182H0.874881V34.8581L1.00264 35.2516L2.02144 37.7182H2.7621L3.77929 35.2516L3.90866 34.8581L3.91513 37.7133ZM38.5094 33.1946V36.2408L38.3233 35.9307L36.4879 33.1946H35.6178V37.7133H36.4944V34.69L36.6673 34.9871L38.5094 37.7182H39.3907V33.1995L38.5094 33.1946Z" fill="#333333"/>
<path d="M98.0293 32.6282C97.8367 32.6282 97.6495 32.6857 97.4902 32.7933C97.33 32.9009 97.2058 33.0539 97.1329 33.2329C97.0591 33.4118 97.0402 33.6087 97.0771 33.7988C97.1149 33.9888 97.2067 34.1633 97.3426 34.3003C97.4785 34.4373 97.6513 34.5305 97.8394 34.5683C98.0275 34.6061 98.2229 34.5867 98.4002 34.5126C98.5775 34.4385 98.7287 34.3129 98.8358 34.1518C98.942 33.9908 98.9996 33.8014 98.9996 33.6076C99.0032 33.478 98.9807 33.349 98.933 33.2284C98.8853 33.1078 98.8142 32.9982 98.7233 32.9065C98.6324 32.8148 98.5244 32.7428 98.4047 32.6949C98.285 32.647 98.1572 32.6244 98.0293 32.6282ZM98.0293 34.4729C97.8583 34.4761 97.6909 34.4281 97.5478 34.3351C97.4047 34.2419 97.2922 34.1079 97.2247 33.95C97.1572 33.7921 97.1374 33.6175 97.168 33.4483C97.1995 33.2792 97.2796 33.1232 97.3984 33.0003C97.5181 32.8773 97.6702 32.7928 97.8376 32.7577C98.0041 32.7226 98.177 32.7382 98.3354 32.8028C98.4929 32.8675 98.6288 32.978 98.7242 33.1205C98.8196 33.2629 98.8709 33.4308 98.8718 33.6028C98.879 33.7174 98.8628 33.8323 98.8232 33.94C98.7836 34.0478 98.7224 34.1459 98.6432 34.228C98.5631 34.3101 98.4677 34.3744 98.3615 34.4166C98.2562 34.4588 98.1428 34.478 98.0293 34.4729Z" fill="#333333"/>
<path d="M98.4478 33.9258L98.4253 33.7904C98.4118 33.6777 98.3587 33.6271 98.1724 33.6059V33.5798C98.3893 33.5308 98.4577 33.4671 98.4577 33.3316C98.4577 33.1962 98.3506 33.077 98.0464 33.077H97.5757V33.1651C97.7008 33.1651 97.7377 33.188 97.7377 33.2337V33.9439C97.7377 33.9928 97.6972 34.0107 97.5757 34.0157V34.1005H98.0743V34.0157C97.9501 34.0157 97.9222 33.9928 97.9222 33.9439V33.6418H97.9996C98.1877 33.6418 98.2363 33.6908 98.2408 33.8051V33.9178C98.2408 34.0532 98.2894 34.1152 98.4946 34.1152H98.6017V34.0271C98.4847 34.0255 98.4577 33.9977 98.4478 33.9258ZM97.9222 33.5521V33.1749H98.0338C98.1859 33.1749 98.2615 33.2239 98.2615 33.3463C98.2615 33.4688 98.194 33.5521 98.0338 33.5521H97.9222Z" fill="#333333"/>
<path d="M140.243 24.6274L136 20.3848L131.757 24.6274L130.343 23.2132L134.586 18.9705L130.343 14.7279L131.757 13.3137L136 17.5563L140.243 13.3137L141.657 14.7279L137.414 18.9705L141.657 23.2132L140.243 24.6274Z" fill="#333333"/>
<path d="M177.315 21.3852C176.904 21.3852 176.596 21.3852 176.185 21.3852V25.2384H173V12.3944C174.438 12.2956 175.671 12.1968 176.801 12.1968C180.705 12.1968 182.862 14.1728 182.862 16.8404C182.76 19.508 180.91 21.3852 177.315 21.3852ZM177.315 14.9632C176.904 14.9632 176.596 14.9632 176.185 15.062V18.8164C176.596 18.8164 176.801 18.8164 177.109 18.8164C178.753 18.8164 179.575 18.1248 179.575 16.8404C179.575 15.8524 178.856 14.9632 177.315 14.9632Z" fill="#333333"/>
<path d="M193.649 25.3372L192.622 22.966H187.896L186.869 25.3372H183.684L190.053 12.1968H190.464L196.834 25.3372H193.649ZM190.259 17.4332L188.923 20.5948H191.594L190.259 17.4332Z" fill="#333333"/>
<path d="M204.333 21.3852C203.922 21.3852 203.614 21.3852 203.203 21.3852V25.2384H200.018V12.3944C201.456 12.2956 202.689 12.1968 203.819 12.1968C207.723 12.1968 209.881 14.1728 209.881 16.8404C209.881 19.508 207.929 21.3852 204.333 21.3852ZM204.333 14.9632C203.922 14.9632 203.614 14.9632 203.203 15.062V18.8164C203.614 18.8164 203.819 18.8164 204.128 18.8164C205.771 18.8164 206.593 18.1248 206.593 16.8404C206.593 15.8524 205.874 14.9632 204.333 14.9632Z" fill="#333333"/>
<path d="M213.784 25.3375V12.2959H222.414V15.0623H216.969V17.4335H221.9V20.1011H216.969V22.6699H222.414V25.4363H213.784V25.3375Z" fill="#333333"/>
<path d="M234.537 25.3372L232.174 21.0888C231.968 21.0888 231.866 21.0888 231.66 21.0888C231.147 21.0888 230.941 21.0888 230.53 21.0888V25.3372H227.345V12.3944C228.475 12.2956 229.708 12.1968 231.352 12.1968C235.564 12.1968 237.208 14.1728 237.208 16.544C237.208 18.1248 236.386 19.508 234.845 20.2984L238.03 25.3372H234.537ZM231.763 14.8644C231.249 14.8644 230.941 14.8644 230.53 14.9632V18.52C230.941 18.52 231.147 18.6188 231.557 18.6188C233.098 18.6188 234.023 17.9272 234.023 16.6428C234.023 15.4572 233.098 14.8644 231.763 14.8644Z" fill="#333333"/>
<path d="M248.919 20.7927C248.919 23.6579 247.687 25.5351 244.091 25.5351C242.653 25.5351 241.523 25.2387 240.393 24.6459L241.42 22.0771C242.139 22.5711 243.166 22.7687 244.091 22.7687C245.324 22.7687 245.94 21.9783 245.94 20.4963V12.2959H249.125V20.7927H248.919Z" fill="#333333"/>
<path d="M260.939 25.3372L259.912 22.966H255.186L254.159 25.3372H251.077L257.446 12.1968H257.857L264.226 25.3372H260.939ZM257.651 17.4332L256.213 20.5948H258.884L257.651 17.4332Z" fill="#333333"/>
<path d="M278.506 25.3372L278.3 18.9152L274.499 23.46H274.191L270.493 18.9152L270.39 25.3372H267.308L267.924 12.1968H268.335L274.499 19.6068L280.458 12.1968H280.869L281.485 25.3372H278.506Z" fill="#333333"/>
<path d="M294.019 19.607V21.7806H291.964V19.607H289.807V17.7298H291.964V15.5562H294.019V17.7298H296.176V19.607H294.019Z" fill="#333333"/>
<path d="M308.709 25.436C307.168 25.436 306.244 25.3372 304.6 25.2384V12.3944C306.141 12.1968 307.271 12.1968 308.607 12.1968C314.257 12.1968 316.825 14.9632 316.825 18.7176C316.825 22.472 314.36 25.436 308.709 25.436ZM309.018 14.8644C308.504 14.8644 308.196 14.8644 307.682 14.9632V22.6696C308.298 22.7684 308.504 22.7684 309.223 22.7684C312.202 22.7684 313.538 21.1876 313.538 18.7176C313.538 16.2476 311.894 14.8644 309.018 14.8644Z" fill="#333333"/>
<path d="M321.14 25.3375V12.2959H329.769V15.0623H324.324V17.4335H329.256V20.1011H324.324V22.6699H329.769V25.4363H321.14V25.3375Z" fill="#333333"/>
<path d="M334.392 25.3375V12.2959H337.577V22.5711H343.022V25.3375H334.392Z" fill="#333333"/>
<path d="M354.836 25.3372L353.808 22.966H349.083L348.055 25.3372H344.871L351.24 12.1968H351.651L358.02 25.3372H354.836ZM351.445 17.4332L350.11 20.5948H352.781L351.445 17.4332Z" fill="#333333"/>
<path d="M372.506 25.5356L364.288 18.5208V25.338H361.103V12.0988L361.514 12L369.63 19.0148V12.2964H372.814V25.5356H372.506Z" fill="#333333"/>
<path d="M384.012 25.5358C379.8 25.5358 377.128 22.6706 377.128 18.8174C377.128 14.9642 379.902 12.099 384.114 12.099C388.326 12.099 390.997 14.9642 390.997 18.8174C391.1 22.5718 388.224 25.5358 384.012 25.5358ZM384.114 14.7666C381.957 14.7666 380.519 16.4462 380.519 18.8174C380.519 21.1886 381.957 22.8682 384.114 22.8682C386.272 22.8682 387.71 21.1886 387.71 18.8174C387.71 16.4462 386.272 14.7666 384.114 14.7666Z" fill="#333333"/>
</svg>
