<svg width="152" height="41" viewBox="0 0 152 41" fill="none" xmlns="http://www.w3.org/2000/svg">
<path d="M114.645 11.0069C114.619 11.0103 114.595 11.0244 114.577 11.0465C114.635 11.0393 114.652 11.0285 114.645 11.0069Z" fill="#E50046"/>
<path d="M140.932 16.2994L140.629 16.2237C140.728 16.2605 140.829 16.2858 140.932 16.2994Z" fill="#E50046"/>
<path d="M98.674 9.01098C98.6868 9.01333 98.6999 9.01333 98.7127 9.01098L97.5875 8.89929L98.674 9.01098Z" fill="#E50046"/>
<path d="M111.715 37.4047L112.072 37.3863C111.911 37.3937 111.811 37.3937 111.715 37.4047Z" fill="#E50046"/>
<path d="M144.498 30.6167C144.377 30.7087 144.248 30.7894 144.115 30.8581C144.255 30.8041 144.385 30.7224 144.498 30.6167Z" fill="#E50046"/>
<path d="M90.2659 7.2492L90.7205 7.35368C90.7141 7.32126 90.5529 7.27802 90.2659 7.2492Z" fill="#E50046"/>
<path d="M73.9307 6.83131C73.9446 6.83212 73.9586 6.83212 73.9726 6.83131C73.9984 6.84193 73.9726 6.83485 73.9307 6.83131Z" fill="#E50046"/>
<path d="M80.304 7.28192H80.7618C80.6098 7.25964 80.4559 7.25964 80.304 7.28192Z" fill="#E50046"/>
<path d="M80.9815 7.26002H80.7622C80.8349 7.2721 80.9088 7.2721 80.9815 7.26002Z" fill="#E50046"/>
<path d="M88.0544 3.74732C88.4823 3.80885 88.9127 3.84492 89.344 3.85541L88.0544 3.74732Z" fill="#E50046"/>
<path d="M60.0325 36.147L60.1356 36.1254C60.0389 36.129 60.0228 36.1362 60.0325 36.147Z" fill="#E50046"/>
<path d="M88.7057 3.22133L89.0281 3.28979C88.9217 3.26097 88.8088 3.23935 88.7057 3.22133Z" fill="#E50046"/>
<path d="M98.9157 7.76443C99.3929 7.74282 100.35 7.92296 100.347 7.8545C99.8442 7.82928 99.1446 7.70319 98.9157 7.76443Z" fill="#E50046"/>
<path d="M48.9006 37.6674L48.5782 37.6349C48.7361 37.6674 48.8296 37.6674 48.9006 37.6674Z" fill="#E50046"/>
<path d="M88.7057 3.22133L88.3286 3.14569L88.4382 3.19973L88.7057 3.22133Z" fill="#E50046"/>
<path d="M7.641 25.155H7.65712L7.75062 25.1982L7.641 25.155Z" fill="#E50046"/>
<path d="M5.49374 23.4689C5.63705 23.5981 5.78665 23.7184 5.94186 23.8291C5.70007 23.6346 5.58723 23.5265 5.49374 23.4689Z" fill="#E50046"/>
<path d="M89.3376 3.85542L90.0695 3.91667C89.8083 3.88425 89.5665 3.86984 89.3376 3.85542Z" fill="#E50046"/>
<path d="M20.2787 6.1864L20.0047 6.26206C20.124 6.23324 20.2142 6.20802 20.2787 6.1864Z" fill="#E50046"/>
<path d="M146.352 29.5395L146.561 29.4098C146.574 29.381 146.555 29.381 146.352 29.5395Z" fill="#E50046"/>
<path d="M127.705 37.6674C127.326 37.7317 126.953 37.8305 126.589 37.9628C126.967 37.8962 127.34 37.7974 127.705 37.6674Z" fill="#E50046"/>
<path d="M124.155 38.359H124.291C124.246 38.3553 124.201 38.3553 124.155 38.359Z" fill="#E50046"/>
<path d="M142.241 33.8736C142.161 33.8917 142.051 33.9277 141.919 33.9673C142.028 33.9429 142.136 33.9116 142.241 33.8736Z" fill="#E50046"/>
<path d="M69.9394 39.8002C72.0865 39.9299 74.5367 40.1028 77.032 40.1605L84.1052 40.319C85.0337 40.1857 86.3877 40.2109 87.7482 40.1857L87.89 40.3802L89.0248 40.3298C89.4859 40.391 88.1512 40.3586 88.9668 40.4379L89.3956 40.3226C89.4859 40.3947 92.2971 40.3802 90.4047 40.5135H94.8214C95.7886 40.5135 95.3888 40.3514 96.4688 40.3983C96.688 40.4523 96.0819 40.4379 96.169 40.5063C99.3929 40.6252 99.9022 40.1136 102.917 40.1461L102.662 40.1749C102.92 40.1461 103.291 40.128 103.6 40.1172C103.789 40.1167 103.977 40.1034 104.164 40.0776C103.774 39.8903 103.623 40.1929 102.701 40.0776C102.781 39.9119 103.848 39.9695 103.787 39.847C104.366 39.8587 104.945 39.8322 105.521 39.7678C106.569 39.8398 108.075 39.7389 108.868 39.8326C109.59 39.6821 110.32 39.5846 111.054 39.5408C111.85 39.6381 110.873 39.6741 111.953 39.6705L112.121 39.5696C113.007 39.5408 112.869 39.5696 112.836 39.6201C113.784 39.5804 113.62 39.4615 114.806 39.4543L114.161 39.584C115.038 39.5012 115.399 39.4868 116.621 39.4219C116.335 39.4954 116.041 39.5257 115.748 39.512C116.418 39.6092 116.879 39.3787 117.24 39.3715C117.134 39.339 116.273 39.3715 116.695 39.2526C117.302 39.2526 117.985 39.022 118.423 39.1013L117.779 39.249C118.482 39.1046 119.193 39.012 119.906 38.9716C119.826 38.9896 119.868 39.0076 119.836 39.0328C120.358 38.911 120.886 38.8292 121.418 38.7878C122.005 38.723 122.64 38.6509 123.314 38.55L123.063 38.6149C123.601 38.496 123.888 38.3663 124.181 38.3231C123.408 38.3951 123.614 38.3231 123.537 38.2546C124.568 38.2546 125.058 37.8259 126.719 37.6205C126.45 37.7731 126.152 37.8487 125.851 37.8403C125.353 38.1443 124.816 38.3617 124.259 38.4852C124.881 38.3447 125.616 38.197 125.468 38.2906L125.645 38.1069L126.612 37.9412C126.76 37.8187 125.826 37.9412 126.696 37.707C127.663 37.48 127.244 37.761 127.386 37.6674C128.74 37.3467 127.927 37.408 129.243 37.1954C129.081 37.248 128.916 37.2889 128.75 37.3179C129.694 37.1918 131.045 36.8171 131.351 36.9288C131.198 37.0373 131.023 37.1029 130.842 37.1197V37.0909C129.833 37.4512 131.696 36.8711 131.4 37.0909C131.313 37.0153 132.631 36.7306 133.228 36.6118L133.018 36.5505C134.923 35.7399 132.957 36.7991 134.894 36.2587C136.113 35.8588 134.42 36.3523 135.162 36.0785C135.962 35.9273 136.755 35.7252 137.535 35.4733C137.88 35.4156 138.582 35.2535 138.673 35.3508C139.398 35.0734 140.929 34.6302 141.297 34.3564C140.024 34.7167 140.088 34.9509 138.579 35.2787L138.96 35.0301C139.978 34.7059 141.249 34.1691 141.951 33.9277C141.806 33.9673 141.735 33.9601 141.816 33.8989C143.222 33.272 143.586 32.9802 144.943 32.3281C145.162 32.3281 144.369 32.7352 143.792 33.009C144.124 32.8922 144.447 32.7476 144.759 32.5766C145.046 32.4253 145.404 32.2344 146.049 31.8561C146.162 31.9065 145.149 32.3605 145.03 32.5262L145.768 32.1047L146.497 31.6543C146.497 31.6543 146.497 31.6543 146.497 31.6724C146.636 31.3949 147.619 30.9986 148.431 30.2565C149.128 29.7089 149.739 29.0371 150.24 28.2677C150.569 27.7226 150.843 27.1391 151.059 26.5276C151.256 26.1673 151.336 26.0701 151.301 26.2466C151.139 26.5528 151.078 26.6789 151.046 26.7582C151.014 26.8375 151.023 26.8735 150.985 26.9924C151.42 26.1637 151.852 25.0757 151.762 25.6269C152.116 24.0813 151.552 26.1529 151.762 25.2054C151.943 24.5036 152.022 23.7736 151.994 23.0437C151.923 23.3139 151.92 24.0633 151.839 22.9501C151.803 22.5478 151.735 22.15 151.636 21.7612C151.578 21.5774 151.526 21.3793 151.446 21.1631L151.301 20.8244L151.217 20.6371L151.11 20.4497C151.169 20.5146 151.146 20.4173 151.162 20.3993C151.178 20.3813 151.262 20.4353 151.443 20.8713C151.315 20.5445 151.152 20.2361 150.959 19.9526C150.801 19.7187 150.61 19.5144 150.395 19.3473C150.801 19.8553 150.446 19.459 150.037 19.0843C149.627 18.7096 149.179 18.4358 149.482 18.7637C149.2 18.4934 148.903 18.2431 148.593 18.0143C148.791 18.1228 148.983 18.243 149.17 18.3746C148.96 18.0935 148.383 17.8522 148.038 17.672L147.297 17.2001C147.109 17.101 146.928 16.9878 146.755 16.8614C146.591 16.8001 146.323 16.6596 146.075 16.5299C145.888 16.4466 145.708 16.3428 145.54 16.2201C145.056 16.0292 145.475 16.2777 145.324 16.2525C144.792 15.9967 144.244 15.8022 143.712 15.5716C143.644 15.4743 143.563 15.2402 143.818 15.3122C143.173 15.1393 143.534 15.4203 142.599 15.0744C142.886 15.1105 142.583 14.9735 142.309 14.8438C142.035 14.7141 141.79 14.6097 142.206 14.6637C141.77 14.4619 141.323 14.2886 140.868 14.1449C140.304 13.972 139.698 13.7846 139.256 13.6946C138.979 13.6946 139.208 13.7522 139.498 13.8495C139.788 13.9468 140.143 14.0693 140.091 14.1125C137.673 13.4604 137.464 13.7522 135.7 13.255L136.155 13.3883C135.609 13.2695 135.056 13.1912 134.501 13.1542C134.823 13.0929 133.302 12.5129 131.461 12.1922C131.296 12.2246 132.467 12.5201 132.151 12.5525C131.748 12.4768 131.338 12.4048 130.932 12.3399C130.845 12.3147 130.984 12.3147 131.142 12.3399C130.046 12.1814 129.136 11.8031 128.798 11.904L127.715 11.5437L128.143 11.695C127.982 11.7383 126.757 11.5617 126.499 11.5473C125.695 11.4822 124.899 11.3314 124.12 11.097C124.33 11.187 124.858 11.396 123.872 11.2627C123.907 11.0501 121.818 10.8664 121.86 10.7583C121.464 10.7007 120.767 10.5277 120.709 10.6106L120.793 10.4845C120.677 10.661 119.229 10.4413 118.114 10.3116C118.394 10.0918 116.892 10.153 116.425 9.85762C116.199 10.0017 114.445 9.65226 114.232 9.77476C113.375 9.66307 113.478 9.51536 113.265 9.41448H112.859C112.433 9.28118 110.828 9.0542 109.877 8.88127L108.971 8.92451L108.649 8.81642C108.5 8.83804 107.759 8.77319 108.213 8.88488L107.733 8.81642C107.678 8.98215 107.053 8.78039 106.079 8.73716C105.86 8.68672 105.924 8.6543 106.134 8.6543C105.654 8.60026 105.87 8.53541 105.612 8.45255C105.934 8.53181 103.852 8.56063 105.141 8.78039C105.225 8.85605 104.464 8.82363 103.993 8.74076L103.719 8.55702L103.139 8.6543C102.398 8.59305 102.088 8.46696 101.492 8.3877C102.104 8.44174 102.881 8.23638 101.295 8.08146C102.13 8.14631 102.546 8.08146 102.981 8.11749C102.659 8.07425 102.491 8.04183 103.007 8.03462C101.762 7.94816 102.585 8.08506 101.356 7.97698C101.437 7.85088 101.095 7.77162 100.028 7.6167L100.821 7.79684C100.77 7.81101 100.718 7.81828 100.666 7.81846C100.969 7.86169 101.053 7.89411 101.114 7.95176C100.873 7.92654 99.6766 7.97338 99.4799 7.8725C100.695 8.20035 97.3135 7.82566 98.0936 8.03102C97.7283 8.04669 97.3628 8.00669 97.0072 7.91213C98.0421 7.91213 96.2464 7.68876 96.4204 7.6095C96.0368 7.6095 97.22 7.78243 96.7009 7.78603C96.2322 7.74191 95.7669 7.66125 95.3082 7.54465H95.5629L94.6247 7.40414C94.4635 7.45818 95.5307 7.59148 94.657 7.55545C94.2984 7.53111 93.9412 7.48662 93.5866 7.42215C94.0058 7.36451 93.7124 7.2168 94.4571 7.25282C93.8413 7.21319 91.878 7.07269 92.6646 7.25282L91.9296 7.19158C92.3874 7.28525 93.6705 7.49061 92.1972 7.39333V7.36451L91.1655 7.38973L90.7238 7.28885C90.7238 7.32128 90.5723 7.34289 90.1919 7.31407C90.0952 7.26723 89.7373 7.2276 89.7696 7.17356C88.6638 7.10511 88.7508 7.17356 88.6057 7.20959C87.99 7.17716 87.7579 7.13393 88.0512 7.07269C87.2066 6.99703 85.73 6.93938 85.1497 6.8313C84.0149 6.8313 85.3819 6.87453 84.7177 6.92857C83.9057 6.75822 83.0809 6.67498 82.2547 6.67998C81.2102 6.64756 80.056 6.62954 79.134 6.62594C79.6272 6.84571 78.6278 6.62594 78.2829 6.81329C78.6826 6.75924 76.5323 6.59712 78.1539 6.58991H77.1642C76.4936 6.45301 78.7987 6.55028 77.7832 6.36654C76.6741 6.33412 75.9455 6.54308 74.6431 6.44941C75.0815 6.3125 73.6372 6.48183 73.9661 6.32691C74.2994 6.29458 74.6342 6.28375 74.9687 6.29449L74.7366 6.32331C72.309 6.24405 74.0338 6.48543 72.7603 6.56469C71.2806 6.56469 71.5933 6.4458 71.5095 6.37735C71.0548 6.35594 70.5994 6.36557 70.1458 6.40617C71.0485 6.31971 71.8125 6.49985 71.3966 6.59352C70.7519 6.42419 69.2044 6.59352 68.8014 6.64035C70.9098 6.82049 70.2651 6.64035 72.2445 6.84571C72.5185 6.79167 72.4734 6.64035 73.663 6.72322C72.9151 6.78446 73.7146 6.80608 73.9242 6.8349C73.6953 6.74483 74.7495 6.81328 75.1106 6.78086C75.4329 6.85652 74.3981 6.9682 75.6006 7.02585L75.8327 6.82409C76.3034 6.86372 75.6296 6.9646 76.6322 6.94299C76.0874 7.03666 76.7934 7.10511 75.4329 7.11592C77.0449 7.31407 77.9218 7.0907 79.1823 7.05107C79.0534 7.05107 79.0373 7.08349 78.9115 7.0943C79.2869 7.06169 79.6636 7.05207 80.0399 7.06548C80.8716 7.14474 79.3951 7.13393 79.595 7.20239L80.9393 7.24922C80.9684 7.24922 80.9748 7.24922 80.9748 7.24922C81.246 7.22273 81.5191 7.23606 81.7872 7.28885C81.3842 7.33569 81.2263 7.39693 80.9555 7.44017L82.3708 7.3609C82.216 7.41855 83.5313 7.52663 82.5255 7.53024C83.2219 7.55185 83.9182 7.56987 84.6146 7.60589L84.7854 7.75C85.2851 7.75 85.3013 7.72839 84.7016 7.67795C85.4141 7.75001 87.8771 7.6167 87.4871 7.86529C89.1312 7.86529 89.7212 7.94455 91.7039 8.02021C90.1758 8.02021 93.4416 8.31924 91.8232 8.25079C92.7645 8.38409 92.9709 8.25079 93.7156 8.29042C94.412 8.4021 94.0896 8.51379 93.332 8.50298H94.2217V8.5282H94.9955C95.8079 8.67592 95.1599 8.67952 96.0013 8.77679L96.1915 8.67231L96.7589 8.79481C96.5462 8.71915 97.0491 8.74076 97.6616 8.79481L97.6455 8.82003L98.3902 8.86326C97.6487 8.86326 99.0673 8.94972 98.7126 9.00737C99.3574 9.07582 99.3574 9.07582 100.508 9.16949L100.315 9.06862C101.817 9.14788 100.366 9.19831 101.579 9.32801L101.511 9.22354C103.239 9.55859 104.477 9.45772 105.754 9.6991C105.015 9.63785 105.193 9.77116 105.209 9.74594C106.321 9.8252 108.126 10.081 109.284 10.1062C109.69 10.2936 109.783 10.344 110.957 10.5602C111.377 10.6462 111.805 10.6668 112.23 10.6214C113.052 10.7799 114.616 10.9132 114.645 11.0213C114.845 10.9673 115.39 11.1366 115.854 11.133L115.944 11.187L115.883 11.0826C117.327 11.4933 118.378 11.3167 119.839 11.7166H119.581L120.21 11.7707C120.303 11.8247 120.045 11.8139 120.01 11.8644L122.911 12.3183L122.35 12.1598C122.927 12.1971 123.502 12.2705 124.072 12.3796C122.895 12.3435 125.039 12.5309 125.207 12.675L124.581 12.6137C125.429 12.7398 125.429 12.7398 125.371 12.6354C126.477 12.7795 126.103 12.938 127.131 12.9956L126.409 12.8731C126.203 12.7831 126.731 12.7903 127.215 12.8731C127.328 12.9056 127.663 13.0028 127.292 12.956C128.166 13.0569 129.452 13.3163 129.836 13.3559C130.3 13.4712 130.136 13.5108 129.881 13.4892C131.732 13.745 130.71 13.6513 132.563 13.9323L132.522 13.9792L133.166 14.044L134.046 14.3503L133.724 14.2134C134.327 14.3287 134.711 14.3755 135.404 14.5736H135.107C135.714 14.6933 136.315 14.8509 136.906 15.0456C137.377 15.1825 137.838 15.323 138.64 15.4887C138.747 15.532 138.495 15.4887 138.366 15.4671C138.808 15.5294 139.241 15.6504 139.656 15.8274C140.074 16.0001 140.506 16.128 140.946 16.2093C140.852 16.2093 141 16.2922 140.946 16.2958L141.623 16.4615L141.542 16.548C141.735 16.548 141.932 16.548 142.122 16.5804L142.496 16.8326L142.764 16.8722C143.409 17.3225 144.427 17.5639 145.288 18.1332L145.179 17.935C146.494 18.384 147.722 19.1051 148.799 20.0606C149.32 20.4881 149.736 21.0556 150.008 21.7107C150.28 22.3657 150.4 23.087 150.356 23.8075L150.263 23.7463C150.275 24.15 150.245 24.5539 150.172 24.9496C150.043 25.2522 150.047 25.1441 150.082 24.9964C150.118 24.8487 150.14 24.6362 150.082 24.7262C149.947 25.3495 149.908 25.49 149.879 25.6557C149.794 26.0271 149.643 26.3752 149.434 26.6789C149.195 26.978 149.215 26.9023 149.324 26.7294C149.445 26.5168 149.553 26.2953 149.647 26.0665C149.486 26.417 149.295 26.7489 149.076 27.0572C148.947 27.2229 148.818 27.3923 148.68 27.558C148.541 27.7237 148.399 27.8822 148.244 28.0336C147.731 28.5598 147.167 29.0202 146.562 29.4062C146.562 29.4314 146.504 29.4855 146.562 29.4603C145.633 30.1321 144.652 30.7085 143.631 31.1824C143.631 31.1247 143.876 30.995 144.115 30.8617C143.763 31.0383 143.27 31.24 142.983 31.431L143.322 31.168C142.567 31.5283 141.097 32.22 140.884 32.1767C140.991 32.1767 140.978 32.2704 140.298 32.537C139.878 32.537 138.453 33.2756 137.312 33.5278C137.438 33.4521 138.25 33.1675 138.018 33.254C137.497 33.4016 136.986 33.5882 136.487 33.8124L136.622 33.7043C135.758 33.9889 134.891 34.2627 134.014 34.5185C133.595 34.4645 131.522 35.149 131.68 34.9833C130.732 35.1923 132.489 34.8788 131.293 35.167C130.971 35.167 130.213 35.4409 130.245 35.322L130.371 35.2823L129.53 35.4661L130.042 35.2499C129.323 35.43 128.808 35.6354 128.785 35.7255C128.089 35.8047 127.115 36.0389 126.786 35.9993L127.038 35.9272C125.103 36.3271 123.785 36.2046 122.276 36.6226C122.16 36.6226 122.173 36.5973 122.411 36.5613C122.012 36.6189 121.605 36.6838 121.209 36.7306L121.483 36.5865L119.532 36.9468L119.555 36.8928L117.166 37.0981L114.477 37.2963L114.732 37.253C112.875 37.4368 112.933 37.2891 111.569 37.4152C111.617 37.4 111.665 37.3904 111.715 37.3863L110.486 37.4368L110.754 37.3719C109.848 37.5196 108.152 37.3107 108.713 37.3899C108.201 37.462 107.314 37.5449 107.166 37.6169C105.825 37.653 106.843 37.5521 106.002 37.5269C105.035 37.5449 104.864 37.6493 103.548 37.6205L103.574 37.5665C102.958 37.5665 102.578 37.6313 101.721 37.653L101.975 37.6205C100.579 37.761 100.228 37.4836 99.1349 37.7322C98.5482 37.6962 97.4327 37.7322 97.4876 37.6313C95.7434 37.7034 94.3894 37.7502 92.6517 37.7863C92.3745 37.6061 92.281 37.7863 91.2332 37.6926L91.3106 37.7899C88.8637 37.7899 86.0556 37.5269 83.3605 37.516L83.2863 37.4188L82.7447 37.5124L78.0507 37.3215C76.4581 37.2458 74.9881 37.1558 73.821 37.0621C73.0602 37.0621 71.9028 37.0873 70.7003 36.9612H70.8292C68.7273 36.8603 66.5124 36.7378 64.2299 36.5001C64.375 36.4712 64.1526 36.428 64.4072 36.4208C63.7954 36.4289 63.1841 36.3807 62.5793 36.2767L63.1467 36.3956C62.5058 36.4077 61.8661 36.3327 61.2414 36.1722L60.2097 36.1902C60.1466 36.1794 60.0849 36.1601 60.026 36.1326L59.839 36.1686L59.3038 35.9957C58.623 35.9557 57.9407 35.9557 57.2599 35.9957C57.1632 35.9416 56.2089 35.8227 56.9375 35.866C55.6899 35.7435 54.4454 35.603 53.201 35.4625L53.7813 35.5669C53.8458 35.675 52.7174 35.6138 52.1404 35.5057C52.9109 35.5057 52.2145 35.3796 51.8953 35.2751C51.386 35.2751 52.3306 35.4048 52.0598 35.43C51.2798 35.4125 50.5014 35.3427 49.7289 35.2211H50.1125C49.2453 35.1562 48.8584 34.9473 48.0073 34.8608C47.2336 34.8428 46.6759 34.6987 46.8177 34.8824C45.7087 34.7779 46.4051 34.7167 46.0472 34.6554C45.2861 34.6196 44.5301 34.4989 43.7905 34.2952C43.1457 34.4429 40.831 33.7764 40.5666 33.9349L39.6768 33.6827C39.6413 33.7331 39.4479 33.8232 38.7096 33.7331C38.4502 33.7012 38.2042 33.5875 38.0004 33.4053L37.5104 33.5278C36.5206 33.3116 35.4503 33.0991 34.3316 32.8829C33.2129 32.6667 32.0588 32.4542 30.8917 32.2164C28.5576 31.7444 26.1816 31.2076 24.0539 30.5915C22.1195 30.1664 19.7048 29.6188 17.5029 28.9307L17.7512 28.9775C17.0258 28.7433 16.3004 28.5055 15.5783 28.2569C16.0973 28.4551 16.6196 28.6532 17.1451 28.837C16.6583 28.7181 16.2778 28.6388 15.8168 28.4767C14.6272 28.0624 13.2377 27.5508 11.8128 26.996C11.4549 26.8627 11.0906 26.7222 10.7295 26.5744C10.3685 26.4267 9.9977 26.2862 9.6592 26.1313C9.32069 25.9764 8.95639 25.8395 8.62433 25.6629C8.29227 25.4864 7.94409 25.3387 7.62492 25.1514C7.4057 25.0541 7.22194 24.9748 7.07364 24.8884C6.92534 24.8019 6.8125 24.7262 6.71579 24.6578C6.56455 24.5538 6.42306 24.4331 6.29346 24.2975C5.94933 23.9144 5.56756 23.576 5.15542 23.2887C5.28438 23.3752 5.34563 23.3896 5.47781 23.4653C4.84568 22.9559 4.27184 22.3618 3.76915 21.6963C3.27532 21.0558 2.87297 20.334 2.57631 19.5563C2.71172 19.6247 2.60533 19.3293 2.53118 19.0231C2.49572 18.8717 2.45058 18.7168 2.43124 18.6123C2.4119 18.5079 2.43124 18.443 2.45058 18.4826L2.35064 18.3385C2.34448 18.0561 2.35202 17.7734 2.37321 17.4919C2.4119 17.2073 2.44091 16.9947 2.46993 17.0704C2.46348 16.9311 2.46348 16.7916 2.46993 16.6524C2.46985 16.5113 2.47955 16.3704 2.49894 16.2309L2.59888 16.1841C2.77851 15.458 3.08051 14.7769 3.48868 14.1773C3.81686 13.6369 4.24577 13.1821 4.74599 12.8443C5.68737 11.8031 7.24773 10.7259 9.04021 9.87564C10.8497 9.0361 12.7102 8.34141 14.6079 7.79684C15.3786 7.4871 16.1643 7.22609 16.9613 7.01504L17.8704 6.88894C18.6931 6.58014 19.5318 6.32748 20.3818 6.13236C20.3818 6.13236 20.3496 6.16479 20.2948 6.18641C21.1556 5.93421 21.9809 5.82613 22.7675 5.54871C23.7089 5.34696 24.6342 5.18844 24.3633 5.37218C24.3924 5.2641 24.8953 5.17763 25.395 5.12359C25.8947 5.06955 26.3622 5.03352 26.3622 5.03352L28.4835 4.67324L30.9659 4.34179L32.5037 4.16165L34.2284 3.97791C39.0417 3.43749 45.6249 2.96914 52.6046 2.78179C59.5843 2.59445 66.9412 2.63768 73.3052 2.88267C79.6691 3.12766 85.0337 3.56359 88.0609 3.76535C88.4736 3.73653 89.5987 3.85542 89.186 3.67888C90.0533 3.77976 90.424 4.00673 90.6046 3.94188C89.4407 3.69329 91.0043 3.76174 89.8727 3.46271L90.611 3.55639C90.7722 3.51676 89.5987 3.46992 89.7953 3.37985L89.5665 3.52036C89.1852 3.45686 88.8097 3.35558 88.4445 3.21773C87.6809 3.28205 86.9131 3.23969 86.1588 3.09163L86.5328 3.12766C85.4367 2.99796 85.8719 2.9295 85.6462 2.87186L85.888 2.90429L84.9724 2.70253C85.6688 2.84664 86.8391 2.85024 86.233 2.78539C84.9273 2.57283 86.5554 2.87186 85.5882 2.78539C84.9789 2.71694 85.1594 2.64489 85.1916 2.59445L84.0858 2.43232C84.131 2.35306 84.8112 2.526 84.376 2.38549C83.9118 2.35667 83.4507 2.32424 82.9865 2.31343C82.7447 2.08286 81.4713 2.2666 80.8555 2.0144C81.8549 2.06124 80.7717 1.93514 80.9361 1.8847C80.1205 1.80905 79.3081 1.72979 78.4924 1.68295C78.2635 1.63611 79.1372 1.66493 78.7664 1.65052C78.4325 1.60791 78.0959 1.59947 77.7606 1.6253C77.551 1.55325 75.9359 1.49561 76.01 1.3623C74.3562 1.14974 75.304 1.4884 73.7533 1.32267C73.5534 1.229 74.9848 1.36591 74.3014 1.24702L72.6894 1.19297C72.9891 1.10572 73.3008 1.0825 73.6082 1.12452C72.525 1.04166 71.5675 0.944383 70.6777 0.843505L68.1502 0.59131C67.3378 0.512049 66.5382 0.436391 65.6904 0.385953C64.8425 0.335514 63.9527 0.331914 62.9597 0.346325C62.3988 0.238242 63.3627 0.285076 63.7625 0.223829C60.8803 0.306693 59.71 -0.0211589 57.2534 0.00406045L57.2115 0.0833217C55.4996 -0.042775 53.6137 0.00406111 51.6697 0.0328832L45.799 0.234637L46.2632 0.26346C45.7345 0.375146 44.8737 0.436392 44.2418 0.515652C44.1419 0.479625 44.6932 0.310295 43.5745 0.414775C43.8066 0.414775 44.2805 0.414775 44.1419 0.479625C43.3101 0.479625 42.2495 0.479625 41.0373 0.569694L37.0461 0.854313L32.6552 1.29745L28.3577 1.83787C24.6954 2.45754 20.8396 3.22854 17.1128 4.2265C15.2365 4.71648 13.3602 5.24968 11.5226 5.90539C9.68494 6.53065 7.90224 7.34225 6.19674 8.33005C6.70934 8.01661 6.88343 7.99859 6.82217 8.07425C6.59073 8.27529 6.33721 8.44237 6.06779 8.57143C5.01871 9.02756 4.05373 9.69559 3.22109 10.5421C2.33535 11.4429 1.55831 12.4687 0.909566 13.5937C0.344858 14.822 0.0341697 16.1763 0.000429589 17.5567C-0.0118207 18.8827 0.238067 20.1953 0.732251 21.4009C1.19663 22.5362 1.83734 23.5706 2.62467 24.456C3.38039 25.3063 4.23483 26.0394 5.1651 26.6357L5.18766 26.7654C5.59369 27.0754 6.02555 27.3408 6.47722 27.558H6.45143L6.9737 27.875L7.52821 28.1597L8.08272 28.4335L8.63077 28.664C9.35615 28.9775 9.97191 29.1828 10.3684 29.3846L10.449 29.3017C11.284 29.6044 10.8585 29.5431 11.7386 29.7989L11.6967 29.8422L12.7219 30.0907C12.5736 30.2529 15.0753 30.8978 15.7266 31.1716C16.8227 31.4778 18.9053 32.0038 20.5624 32.483C20.8493 32.6595 22.8868 33.2035 24.1796 33.5638C26.72 34.1583 30.3727 34.9184 33.6288 35.5057L33.5869 35.3724L34.438 35.5129C34.438 35.5381 34.5347 35.5706 34.4025 35.5633C35.0473 35.8191 36.3691 35.8588 37.0397 36.0533C36.6903 35.9338 36.3281 35.8671 35.9629 35.8552C35.273 35.6822 35.9629 35.675 36.8881 35.8912L36.8656 35.9128L37.5104 35.956C37.5684 36.0641 38.1551 36.2046 38.2099 36.3163C41.0147 36.7342 42.9426 36.8603 45.8377 37.2891C45.5153 37.3611 47.9267 37.5269 47.3239 37.6493C49.0744 37.7971 47.0531 37.462 47.859 37.4332C48.2245 37.4479 48.588 37.4986 48.9455 37.5845C48.7101 37.5845 49.3291 37.7466 48.9455 37.7142L50.1093 37.8367C50.2221 37.8655 49.961 37.8583 49.8321 37.8583C52.2145 38.0276 54.0231 38.4384 56.1702 38.5356C56.3346 38.4852 55.3288 38.4384 55.4868 38.3843C57.6403 38.4492 57.3727 38.6869 59.3812 38.7446L58.9589 38.8022C59.6254 38.7597 60.2941 38.7935 60.9545 38.9031C61.1318 39.0328 60.0453 38.9031 59.5295 38.9247C60.2613 38.9932 62.1086 39.1157 61.5509 38.9716C62.1074 39.0023 62.6612 39.0781 63.208 39.1985C63.208 39.1733 62.3955 39.058 62.9114 39.0508C64.0978 39.2057 65.9322 39.3462 67.3861 39.4651C67.37 39.494 67.4699 39.5408 67.341 39.5444C68.4726 39.4687 68.3339 39.7101 69.9394 39.8002Z" fill="#E50046"/>
<path d="M147.039 31.3949L146.497 31.7264C146.497 31.748 146.497 31.784 146.258 31.957C146.523 31.784 146.781 31.5859 147.039 31.3949Z" fill="#E50046"/>
<path d="M119.81 39.0688L119.6 39.1229C119.672 39.1197 119.744 39.1014 119.81 39.0688Z" fill="#E50046"/>
<path d="M113.02 39.7318C113.504 39.6849 113.072 39.6777 112.833 39.6597C112.824 39.6849 112.837 39.7101 113.02 39.7318Z" fill="#E50046"/>
<path d="M146.736 16.9047C146.836 16.9443 146.9 16.9623 146.894 16.9335C146.755 16.8866 146.723 16.8866 146.736 16.9047Z" fill="#E50046"/>
<path d="M103.726 8.27963L103.897 8.31205C103.84 8.29627 103.783 8.28543 103.726 8.27963Z" fill="#E50046"/>
<path d="M106.118 8.71555C106.237 8.71555 106.389 8.74437 106.611 8.75878C106.448 8.73184 106.283 8.7174 106.118 8.71555Z" fill="#E50046"/>
<path d="M150.982 27.0392C150.901 27.2193 150.804 27.3815 150.737 27.5364C150.837 27.3831 150.919 27.216 150.982 27.0392Z" fill="#E50046"/>
<path d="M102.965 8.17874C103.2 8.21117 103.523 8.2436 103.726 8.27963C103.475 8.22254 103.22 8.18878 102.965 8.17874Z" fill="#E50046"/>
<path d="M131.122 12.3867H131.187C131.664 12.448 131.367 12.4012 131.122 12.3867Z" fill="#E50046"/>
<path d="M100.344 7.86891C100.46 7.86891 100.566 7.86891 100.65 7.86891L100.305 7.82207C100.337 7.85089 100.344 7.8581 100.344 7.86891Z" fill="#E50046"/>
<path d="M122.092 10.7403C121.918 10.7403 121.851 10.7727 121.841 10.7907C122.044 10.8196 122.173 10.8232 122.092 10.7403Z" fill="#E50046"/>
</svg>
