<svg width="290" height="10" viewBox="0 0 290 10" fill="none" xmlns="http://www.w3.org/2000/svg">
<path d="M143.391 7.55555C147.031 7.37778 151.748 6.97778 155.357 6.98889C156.346 6.69091 157.407 6.53242 158.481 6.52222L158.622 6.94444L159.575 6.78889C159.981 6.91111 158.841 6.87778 159.575 7.03333L159.919 6.75555C160.012 6.91111 162.402 6.81111 160.793 7.14444L164.527 7.07778C165.355 7.07778 164.996 6.71111 165.917 6.8C166.105 6.92222 165.589 6.88889 165.667 7.04444C168.417 7.3 168.792 6.15555 171.369 6.3L171.151 6.36667C171.572 6.24444 172.4 6.24445 172.416 6.17778C172.072 5.75556 171.963 6.42222 171.182 6.17778C171.182 5.82222 172.135 5.96667 172.072 5.7C172.681 5.81111 173.025 5.6 173.541 5.56666C174.447 5.77778 175.712 5.56667 176.384 5.86666C176.933 5.59303 177.564 5.41422 178.227 5.34445C178.914 5.62222 178.086 5.62222 178.993 5.71111L179.133 5.5C179.883 5.5 179.774 5.57778 179.742 5.67778C180.555 5.67778 180.398 5.37778 181.414 5.48889L180.852 5.71111C181.538 5.63414 182.235 5.61177 182.929 5.64444C182.929 5.76666 182.507 5.76667 182.195 5.73333C182.773 6.03333 183.148 5.58889 183.46 5.61111C183.367 5.52222 182.648 5.48889 182.992 5.27778C183.507 5.27778 184.085 4.97778 184.46 5.27778L183.898 5.48889C184.96 5.31111 184.46 5.21111 185.694 5.27778C185.694 5.27778 185.694 5.34444 185.694 5.38889C186.46 5.11111 187.491 5.38889 188.631 5.38889H188.428C188.881 5.31111 189.131 5.12222 189.381 5.13333C188.725 5.02222 188.897 4.95555 188.834 4.75555C189.709 5.08889 190.146 4.33333 191.568 4.52222C191.532 4.5669 191.485 4.60612 191.427 4.6376C191.37 4.66908 191.305 4.69221 191.235 4.70564C191.166 4.71907 191.093 4.72254 191.021 4.71585C190.95 4.70916 190.881 4.69244 190.818 4.66667C190.349 5.03333 190.287 5.33333 189.443 5.51111C189.975 5.42222 190.599 5.36667 190.474 5.51111L190.631 5.17778H191.459C191.584 4.96667 190.787 4.84444 191.537 4.7C192.287 4.55555 191.99 5.03333 192.13 4.87778C193.286 4.72222 192.599 4.51111 193.692 4.61111C193.583 4.61111 193.364 4.7 193.271 4.61111C194.067 4.73333 195.239 4.52222 195.489 4.91111C195.38 5 195.348 5.12222 195.052 5.08889C194.177 5.38889 195.801 5 195.536 5.35556C195.536 5.14444 196.598 5.17778 197.098 5.21111L196.942 4.96667C198.613 4.21111 196.864 5.45555 198.504 5.33333C199.566 5.14444 198.098 5.26666 198.754 5.08889C199.42 5.21788 200.113 5.2593 200.8 5.21111C201.097 5.3 201.691 5.42222 201.753 5.68889C202.394 5.57778 203.706 5.78889 204.05 5.51111C202.956 5.3 202.972 5.82222 201.691 5.51111L202.034 5.24445C202.907 5.18673 203.783 5.16447 204.659 5.17778C204.534 5.17778 204.487 5.06666 204.565 5.01111C205.487 4.80947 206.444 4.69734 207.408 4.67778C207.564 4.92222 206.846 4.88889 206.33 4.92222C207.127 5.1 207.158 4.92222 208.392 4.92222C208.392 5.13333 207.564 4.92222 207.424 5.13333L208.783 5.04445C208.97 4.68889 209.814 5.04445 210.642 4.94445C212.626 4.94445 212.907 4.43333 213.985 4.13333C214.282 4.22222 214.376 4.31111 214.251 4.41111C213.766 4.25556 213.86 4.41111 213.688 4.47778C214.36 4.47778 215.157 4.8 214.782 4.95555C215.844 4.83333 214.407 4.76667 215.047 4.64444H216.484C216.313 4.45556 215.797 4.42222 216.484 4.27778C217.072 4.24866 217.662 4.24866 218.25 4.27778C218.125 4.36666 218.515 4.54444 217.89 4.54444C218.102 4.58861 218.323 4.60056 218.541 4.57949C218.759 4.55843 218.969 4.50484 219.156 4.42222C218.25 4.27778 220.64 4.25555 219.952 3.97778L220.858 4.13333C220.655 4.13333 220.64 4.25555 220.327 4.22222C220.593 4.48889 221.062 4.13333 221.374 4.1C221.686 4.06666 222.53 4.16667 222.592 4.26667C222.781 4.22922 222.978 4.21976 223.171 4.23887C223.365 4.25799 223.551 4.30527 223.717 4.37778C224.139 4.37778 223.717 4.2 223.873 4.11111H225.311C225.389 4.26667 225.529 4.68889 225.311 4.74444C225.857 4.6 225.498 4.3 226.31 4.3C225.857 4.6 227.42 4.51111 226.732 4.87778C227.566 5.06605 228.453 5.10046 229.31 4.97778C229.763 4.73333 228.497 4.85556 228.544 4.61111C230.622 4.5 230.731 3.83333 232.278 3.92222L231.872 3.86667C232.368 3.82562 232.846 3.71214 233.278 3.53333C233.012 3.83333 234.371 4.32222 235.949 4.24444C236.074 4.08889 235.059 3.96666 235.308 3.72222L236.355 3.66667C236.433 3.66667 236.355 3.74445 236.183 3.77778C237.121 3.66667 237.933 4.15556 238.199 3.77778L239.151 4.2L238.776 4.02222C238.901 3.87778 239.948 3.81111 240.167 3.75556C240.503 3.67677 240.857 3.64795 241.21 3.67089C241.562 3.69383 241.903 3.76803 242.213 3.88889C242.026 3.76667 241.557 3.48889 242.401 3.43333C242.401 3.92222 244.166 3.6 244.15 3.84444C244.478 3.84444 245.088 3.97778 245.134 3.77778V4.07778C245.134 3.65555 246.447 3.66667 247.4 3.57778C247.197 4.15556 248.446 3.52222 248.868 4.04444C249.04 3.65555 250.555 3.86667 250.711 3.53333C251.446 3.53333 251.383 3.87778 251.571 4L251.914 3.84444C252.753 4.00351 253.611 4.10765 254.476 4.15555L255.226 3.81111L255.507 3.95556C255.632 3.86667 256.257 3.81111 255.867 3.68889H256.273C256.273 3.31111 256.851 3.57778 257.663 3.41111C257.866 3.46667 257.819 3.55556 257.663 3.61111C258.069 3.61111 257.897 3.8 258.132 3.92222C257.835 3.83333 259.585 3.24444 258.491 3.07778C258.397 2.93333 259.053 2.81111 259.444 2.87778L259.709 3.21111L260.178 2.85556C260.803 2.85556 261.084 3.01111 261.6 3.04444C261.069 3.04444 260.444 3.7 261.787 3.67778C261.302 3.74024 260.83 3.84472 260.381 3.98889C260.647 3.98889 260.787 3.98889 260.381 4.17778C261.428 4.06666 260.725 3.96667 261.772 3.92222C261.772 4.22222 262.006 4.31111 262.928 4.41111L262.24 4.2C262.269 4.16243 262.312 4.13157 262.365 4.11111C262.115 4.11111 262.037 4.03333 261.975 3.92222C262.178 3.92222 263.177 3.53333 263.365 3.72222C262.303 3.25555 265.177 3.33333 264.505 3.06666C264.63 2.97778 265.349 2.94444 265.427 3.06666C264.568 3.3 266.099 3.4 265.958 3.61111C266.286 3.52222 265.271 3.4 265.708 3.27778C266.13 3.28154 266.542 3.37014 266.895 3.53333H266.692L267.489 3.65556C267.614 3.51111 266.708 3.41111 267.489 3.32222C267.692 3.38889 268.426 3.32222 268.411 3.42222C268.067 3.63333 268.317 3.9 267.692 3.96667C268.208 3.96667 269.879 3.88889 269.254 3.61111H269.879C269.473 3.48889 268.317 3.26667 269.629 3.22222L270.504 2.98889L270.879 3.14444C270.879 3.06666 271.004 2.98889 271.332 3C271.66 3.01111 271.723 3.12222 271.707 3.24444C272.644 3.24444 272.566 3.06667 272.675 2.97778C273.207 2.97778 273.394 2.97778 273.16 3.18889C273.987 3.16953 274.816 3.21799 275.628 3.33333C276.581 3.18889 275.425 3.27778 275.987 3.06666C276.815 3.58889 279.112 3.24444 280.674 3.16666C280.236 2.71111 281.095 3.11111 281.377 2.68889C281.049 2.83333 282.939 3.03333 281.502 3.17778L282.345 3.12222C282.923 3.36667 280.955 3.32222 281.83 3.65556C282.767 3.65556 283.392 3.13333 284.485 3.28889C284.126 3.62222 285.329 3.17778 285.063 3.53333C284.829 3.65556 284.532 3.62222 284.22 3.65556H284.407C286.469 3.73333 285.001 3.26667 286.079 3.03333C287.328 3.03333 287.063 3.28889 287.141 3.44444C287.531 3.48249 287.928 3.45197 288.297 3.35556C287.532 3.56667 286.875 3.16667 287.235 2.95556C287.782 3.32222 289.094 2.95556 289.422 2.82222C287.641 2.44445 288.188 2.82222 286.501 2.41111C286.266 2.52222 286.313 2.85555 285.298 2.73333C285.938 2.55555 285.298 2.54444 285.079 2.48889C285.282 2.67778 284.376 2.57778 284.079 2.65555C283.782 2.5 284.673 2.21111 283.642 2.14444L283.454 2.58889C283.064 2.52222 283.626 2.26667 282.783 2.37778C283.236 2.13333 282.626 2.01111 283.782 1.93333C282.408 1.55555 281.673 2.15556 280.658 2.32222C280.767 2.32222 280.783 2.23333 280.892 2.2C280.588 2.2995 280.258 2.3525 279.924 2.35555C279.221 2.25555 280.486 2.14444 280.299 2.02222H279.158C278.862 2.02222 278.58 2.12222 278.471 2.02222C278.711 1.89467 278.941 1.75741 279.158 1.61111L277.971 1.93333C278.096 1.77778 276.971 1.67778 277.831 1.56667L276.05 1.64444L275.893 1.34444C275.472 1.34444 275.456 1.45556 275.972 1.48889C275.362 1.42222 273.285 2.04444 273.597 1.48889C272.415 1.6519 271.221 1.76322 270.02 1.82222C271.316 1.52222 268.458 1.47778 269.895 1.33333C269.098 1.21111 268.926 1.53333 268.333 1.58889C267.739 1.46667 267.989 1.16667 268.629 1.05556L267.88 1.2V1.13333L267.223 1.31111C266.521 1.15556 267.067 1.01111 266.349 0.977779L266.192 1.24444L265.708 1.08889C265.896 1.21111 265.474 1.27778 264.943 1.3H264.318C264.943 1.12222 263.724 1.3 264.021 1.04444C263.501 1.02264 262.979 1.02264 262.459 1.04444L262.631 1.23333C261.35 1.4 262.631 0.955554 261.537 0.944443V1.15556C260.053 0.822223 259.022 1.38889 257.913 1.15556C258.538 1.15556 258.382 0.855555 258.366 0.911111C257.198 0.929049 256.036 1.03331 254.898 1.22222C254.539 0.92222 254.445 0.833334 253.43 0.700001C252.711 0.700001 252.602 0.7 252.367 0.933333C251.649 0.822222 250.321 1.02222 250.274 0.800001C250.118 0.977779 249.649 0.799998 249.259 0.92222L249.165 0.833333L249.243 1.04444C247.962 0.577776 247.118 1.33333 245.837 0.933333L246.056 0.877779L245.525 0.966665C245.431 0.866665 245.65 0.81111 245.666 0.688888H243.182L243.682 0.844443C243.151 0.844443 242.807 1.07778 242.213 0.955556C243.197 0.633334 241.385 0.955555 241.213 0.71111L241.745 0.622224C241.026 0.622224 241.026 0.622221 241.088 0.866665C240.136 0.944443 240.432 0.466668 239.526 0.700001H240.151C240.339 0.822223 239.901 1 239.479 1C239.386 1 239.089 0.877778 239.401 0.855556C238.667 0.944445 237.542 0.855556 237.214 0.933333C236.886 1.01111 236.933 0.722222 237.214 0.655556C235.652 0.866667 236.496 0.655556 234.902 0.833333V0.71111L234.356 0.855556L233.574 0.61111L233.856 0.766665C233.378 0.836778 232.888 0.855505 232.403 0.82222L232.637 0.644442C231.169 0.755553 230.919 0.366664 229.513 0.644442C229.419 0.644442 229.638 0.555557 229.747 0.522224C228.451 0.822224 228.763 0.222224 227.451 0.522224C227.529 0.455557 227.451 0.388888 227.451 0.333332L226.857 0.455555V0.222223L226.373 0.577778L226.014 0.333332L225.779 0.455555C225.139 -1.65568e-07 224.217 0.355556 223.374 0.0222227L223.53 0.322223C221.343 0.98889 218.5 0.0333344 215.86 0.322223V0.0777774L214.782 0.377778C214.188 0.2 215.125 0.166668 214.938 0.0444455C213.782 0.200001 214.469 0.411112 213.11 0.500001C212.407 0.344445 213.344 0.322223 213.673 0.222223C212.335 0.406558 210.97 0.466319 209.611 0.400001C209.611 0.400001 209.533 0.477776 209.611 0.488887C208.646 0.556596 207.675 0.578868 206.705 0.555556C206.705 0.444444 206.955 0.42222 207.19 0.388887C206.837 0.321442 206.465 0.321442 206.112 0.388887L206.455 0.177778C205.737 0.177778 204.362 0.355554 204.19 0.111109C204.284 0.199998 204.19 0.377778 203.628 0.377778C203.269 0.0222224 201.941 0.555556 200.941 0.377778C201.05 0.288889 201.785 0.255555 201.581 0.255555C201.098 0.218771 200.611 0.292734 200.191 0.466665L200.332 0.31111L198.004 0.555556C197.66 0.188889 195.817 0.644445 195.973 0.377778C195.145 0.377778 196.676 0.522221 195.63 0.588888C195.348 0.433332 194.677 0.677777 194.724 0.433333H194.833H194.099L194.552 0.2C193.927 0.255556 193.458 0.500001 193.443 0.677778C192.833 0.555556 191.99 0.677776 191.709 0.466665H191.927C190.256 0.588887 189.131 -0.133335 187.819 0.288887C187.725 0.288887 187.741 0.199998 187.944 0.188887H186.897L187.147 0L185.429 0.3V0.188887C184.288 0.188887 182.523 0.188888 181.055 0.31111L181.273 0.244446C179.711 0.455557 179.711 0.155554 178.571 0.31111C178.612 0.304442 178.655 0.304442 178.696 0.31111H177.649L177.868 0.188887C177.102 0.455554 175.65 -0.111111 176.134 0.1C175.696 0.222222 174.947 0.377779 174.822 0.522224C173.681 0.522224 174.54 0.377776 173.822 0.288887C173.132 0.38279 172.43 0.423767 171.729 0.41111V0.288887C171.197 0.288887 170.869 0.411113 170.166 0.444446L170.385 0.388887C169.198 0.655554 168.823 0.0555566 167.964 0.600001C167.464 0.511112 166.511 0.599998 166.558 0.366664C165.074 0.544442 163.933 0.644443 162.465 0.766665C162.199 0.377776 162.137 0.766665 161.246 0.588888V0.800001C159.169 0.877779 156.763 0.399999 154.467 0.533333V0.322223L154.014 0.566665C151.53 0.511109 148.327 0.499998 146.359 0.566665C145.536 0.889225 144.635 1.10021 143.703 1.18889H143.813C141.957 1.3881 140.08 1.4625 138.204 1.41111C138.314 1.31111 138.126 1.25555 138.329 1.2C137.876 1.44444 137.189 1.2 136.767 1.2L137.252 1.35556C136.997 1.42317 136.723 1.44831 136.452 1.42904C136.182 1.40978 135.921 1.34663 135.689 1.24444L134.815 1.48889C134.815 1.48889 134.674 1.48889 134.658 1.4L134.502 1.52222L134.034 1.24444C133.815 1.31111 132.659 1.41111 132.3 1.68889C132.221 1.58889 131.393 1.53333 132.034 1.47778H128.91L129.41 1.56667C129.41 1.76667 128.519 1.93333 128.019 1.84444C128.675 1.65556 128.019 1.54444 127.785 1.38889C127.347 1.51111 128.16 1.56667 127.941 1.68889C127.308 1.85497 126.628 1.91208 125.957 1.85555L126.27 1.76667C125.535 1.85556 125.176 1.5 124.442 1.53333C123.708 1.56667 123.301 1.53333 123.458 1.93333C122.52 2.03333 123.083 1.7 122.77 1.66667C122.455 1.75033 122.119 1.78661 121.783 1.77322C121.446 1.75983 121.118 1.69707 120.818 1.58889C120.333 2.14444 118.256 1.46667 118.084 1.92222L117.303 1.67778C117.261 1.80732 117.161 1.92343 117.016 2.00788C116.872 2.09234 116.693 2.14037 116.506 2.14444C115.897 2.02222 116.037 1.81111 115.85 1.68889L115.475 2.15555C112.023 1.75555 107.508 2.15556 103.728 1.88889C101.83 2.10487 99.9151 2.23476 97.9944 2.27778L98.1975 2.21111L96.2448 2.14444L97.6664 2.31111C97.2893 2.39247 96.9022 2.44827 96.5104 2.47778C93.9784 2.26103 91.419 2.26103 88.887 2.47778C87.1999 3.04444 87.731 2.05555 86.1064 2.47778C86.247 2.47778 86.2938 2.35556 86.4188 2.3C84.9215 2.46462 83.4398 2.69469 81.9823 2.98889C82.1541 2.46667 80.8263 2.98889 80.9825 2.75555L80.8419 2.96666C80.4357 2.85555 79.5141 2.83333 79.639 2.67778L78.8736 2.95556L78.7955 2.74445C77.7801 2.74445 75.5774 3 74.9994 2.57778C71.769 2.92541 68.502 3.07042 65.2359 3.01111C64.5678 3.19258 63.8577 3.28305 63.1426 3.27778L62.3459 3.05556C61.6117 3.15556 60.7837 3.5 60.1432 3.35556C60.1331 3.34594 60.1276 3.33424 60.1276 3.32222C60.1276 3.3102 60.1331 3.2985 60.1432 3.28889C59.4124 3.26288 58.6812 3.33448 57.9875 3.5C57.1595 3.5 56.3472 3.4 56.5815 3.15556C56.5815 3.57778 54.8319 3.15556 54.8319 3.15556C54.8319 3.15556 44.1936 3.22222 32.3055 3.64444C20.4175 4.06667 7.21719 4.85556 2.12454 6.18889C1.79649 6.4 0.843569 6.57778 1.23411 6.81111C0.484272 6.91111 0.124973 6.55556 0 6.81111C1.01541 6.91111 -0.281185 7.36666 0.718599 7.58889L0.0937319 7.65555C-0.0312411 7.81111 0.95292 7.45555 0.812325 7.73333L0.95292 7.34444C1.31409 7.33765 1.6674 7.42011 1.9527 7.57778C2.42135 7.41111 2.70254 6.86666 3.85854 7.05555H3.54611C4.48341 7.05555 4.13973 7.28889 4.34281 7.34444H4.13973L4.93643 7.51111C4.32719 7.4 3.37428 7.74444 3.87417 7.71111C5.01455 7.77778 3.57735 7.62222 4.42092 7.54445C4.93644 7.54445 4.81146 7.72222 4.79584 7.84445H5.73314C5.73314 8.03333 5.10827 7.84444 5.49881 8.03333L6.67043 7.8C6.92038 8.24444 7.93579 7.53333 8.49817 7.94445C7.6546 8.08889 8.5919 8.1 8.49817 8.25556L10.5758 8.15555C10.7789 8.15555 10.0291 8.31111 10.3415 8.27778C10.654 8.24444 10.982 8.14444 11.2007 8.13333C11.4194 8.12222 12.7629 8.13333 12.7629 8.37778C14.1844 8.53333 13.3252 7.97778 14.6531 8.1C14.8249 8.27778 13.6064 8.18889 14.2001 8.35556L15.5591 8.23333C15.4902 8.32996 15.3815 8.40937 15.2476 8.46098C15.1136 8.51258 14.9608 8.53395 14.8093 8.52222C18.496 8.63333 20.5581 9.53333 23.9011 9.17778C24.3854 9.37778 23.573 9.33333 23.245 9.48889C25.6663 9.11111 26.6974 9.85555 28.775 9.75555V9.57778C31.6963 10.0444 35.1643 9.57778 38.4448 9.71111L38.0387 9.6C38.5848 9.43941 39.1567 9.32745 39.7414 9.26667C39.8351 9.35556 39.3821 9.66667 40.3194 9.56667C40.1163 9.56667 39.7102 9.45555 39.8351 9.35555C42.6626 9.74444 48.5832 9.43333 53.2229 9.52222C59.4715 9.18889 66.2357 9.34444 72.3594 9.04444C71.4221 9.04444 71.797 8.63333 72.5156 8.71111C74.4839 9.41111 75.843 8.48889 77.8425 8.94444C81.4043 8.61111 84.6223 9.17778 87.9185 8.5V8.71111C88.4184 8.8 88.5434 8.64444 89.0589 8.61111V8.66667C90.293 8.66667 91.7614 8.45555 92.48 8.54444V8.3C93.2142 8.3 92.8705 8.47778 93.6048 8.3V8.41111L94.4796 8.16666C94.4796 8.58889 96.5416 8.16666 97.1352 8.32222C98.5105 8.1368 99.9065 8.04011 101.306 8.03333C102.327 8.21439 103.378 8.29661 104.431 8.27778C106.618 8.16667 109.742 8.01111 112.523 8.02222V7.75555H113.241C113.241 7.75555 113.335 7.84444 113.241 7.87778C113.819 8.16667 114.913 7.73333 115.506 7.87778C115.131 7.64444 115.006 7.87778 114.585 7.87778C114.163 7.87778 114.585 7.48889 115.35 7.6V7.66667L115.897 7.51111C115.897 7.72222 116.475 7.81111 116.537 8.01111C118.927 7.91111 120.536 7.5 123.02 7.54445C122.77 7.78889 124.786 7.43333 124.301 7.86666C125.863 7.66666 124.051 7.53333 124.707 7.22222C125.129 7.22222 125.551 7.1 125.629 7.22222C125.442 7.32222 125.988 7.45555 125.629 7.51111L126.629 7.44444C126.723 7.44444 126.504 7.54445 126.395 7.56667C128.394 7.28889 129.988 7.76667 131.784 7.47778C131.909 7.32222 131.065 7.47778 131.19 7.3C132.987 6.95555 132.753 7.53333 134.487 7.3L134.143 7.51111C134.392 7.40074 134.67 7.32713 134.959 7.29468C135.249 7.26223 135.545 7.2716 135.83 7.32222C136.002 7.56667 135.08 7.54445 134.643 7.66667C135.268 7.66667 136.83 7.56667 136.346 7.35555C137.08 7.25555 137.361 7.46667 137.767 7.52222C137.767 7.52222 137.064 7.37778 137.486 7.25555C138.753 7.34085 140.026 7.36312 141.298 7.32222C141.298 7.37778 141.391 7.46667 141.298 7.5C142.141 7.11111 142.032 7.65555 143.391 7.55555Z" fill="#E50046"/>
</svg>
